<?xml version="1.0" encoding="utf-8"?>
<!-- Generator: Adobe Illustrator 23.0.2, SVG Export Plug-In . SVG Version: 6.00 Build 0)  -->
<svg version="1.1"
	 id="svg2" xmlns:cc="http://creativecommons.org/ns#" xmlns:dc="http://purl.org/dc/elements/1.1/" xmlns:rdf="http://www.w3.org/1999/02/22-rdf-syntax-ns#" xmlns:svg="http://www.w3.org/2000/svg"
	 xmlns="http://www.w3.org/2000/svg" xmlns:xlink="http://www.w3.org/1999/xlink" x="0px" y="0px" viewBox="0 0 165 113"
	 style="enable-background:new 0 0 165 113;" xml:space="preserve">
<style type="text/css">
	.st0{fill-rule:evenodd;clip-rule:evenodd;fill:#003865;}
	.st1{fill-rule:evenodd;clip-rule:evenodd;fill:#E30016;}
	.st2{fill-rule:evenodd;clip-rule:evenodd;fill:#006AA6;}
	.st3{fill-rule:evenodd;clip-rule:evenodd;fill:#1B1918;}
</style>
<g id="g4">
	<g id="g8">
		<path id="path10" class="st0" d="M32.5,59.5c4.1,1.2,9.7,4.7,13.7,6.7c19,9.4,9.9,4.7,16.5,14.1c4.6,6.6,11.2,11,19.8,11
			c6,0,11.1-2.4,14.7-5.4c4.6-3.8,5.3-5.7,8.5-12.1c1.3-2.6,10.2-6.2,12.9-7.5c4.2-2.1,9.9-5.6,13.9-6.8l-0.2-10.2
			c-2,0.2-25.2,11.9-26.9,13.4c0,10-1,13.9-5.9,19.6c-9,10.6-25.5,10.2-34.1,0.1c-5.6-6.6-5.2-9.5-5.9-20.2
			c-5.4-2.1-23-12.5-26.6-12.8L32.5,59.5L32.5,59.5z"/>
		<path id="path12" class="st0" d="M82.6,103c-17,0-31.8-10.4-38.8-24.7c-5.7-11.7-2-12.6-7.5-14.1c2.4,22.7,22.5,42.1,46.3,42.1
			c23.8,0,43.9-19.4,46.3-42.1c-4.5,1.2-3.1,2.3-4.5,6.8C118.7,89.4,102.1,103,82.6,103z"/>
		<path id="path14" class="st0" d="M40,36.2l2.3,0.8c0.8-0.8,3.5-6.3,6.5-10.2c2.6-3.4,5-5.8,8.7-8.5c15.2-11.2,34.8-11.1,50.1,0
			c5,3.6,8.9,8,12.1,13.3c1.1,1.7,1.7,4,3.2,5.4l2.3-0.9c-1.9-7.9-10.9-16.8-15.6-20.3C93.3,3.9,72.2,3.8,55.9,15.6
			C51,19.2,41.9,28.1,40,36.2L40,36.2z"/>
		<path id="path16" class="st0" d="M33.8,46L60,59.5c0.6-0.9,3.7-7.4,4.2-8.5c-5.1-2.4-24.9-13.1-28.3-14C35.3,40,33.9,42.6,33.8,46
			z"/>
		<path id="path18" class="st0" d="M100.9,50.9c1.2,2.9,2.9,4.7,3.7,8.5l26.9-13.3c-0.2-3.6-1.5-6.2-2.2-9.2c-3.7,1-10.5,5-14.2,6.8
			C110.5,46.1,105.4,49,100.9,50.9L100.9,50.9z"/>
		<path id="path20" class="st1" d="M78.4,47.5c11.1-2.9,19.9,5.2,21.9,14.2c2.6,12-5.2,21-13.6,23C63.3,90.4,55.2,53.4,78.4,47.5
			L78.4,47.5z M78.3,45.2c-9.6,2.2-18.2,12.5-15.4,25.4c5.9,27.1,44.8,18.3,39.2-9.3C100.2,51.3,90.2,42.4,78.3,45.2z"/>
		<path id="path22" class="st2" d="M77.3,63.1l-1.3,0.3c0.1-0.4,0.1-0.7,0.1-0.9c0-1.6-0.7-2.4-2.1-2.4c-1.1,0-1.6,0.5-1.6,1.6
			c0,0.8,0.6,1.5,1.8,2.1c2.4,1.1,3.5,2.8,3.5,5c0,1.3-0.3,2.3-1,3.1c-0.7,0.8-1.5,1.2-2.6,1.2c-2.4,0-3.6-1.3-3.6-3.9
			c0-0.2,0-0.5,0-0.8l1.4-0.4c-0.1,0.6-0.2,1.1-0.2,1.5c0,1.7,0.7,2.5,2.1,2.5c1.1,0,1.7-0.6,1.7-1.8c0-0.9-0.7-1.7-2-2.4
			c-1.9-1-2.9-2.5-2.9-4.7c0-1.2,0.3-2.2,1-2.9c0.6-0.7,1.5-1.1,2.5-1.1C76.2,59.1,77.3,60.4,77.3,63.1L77.3,63.1z M85.4,63.1
			L84,63.4c0.1-0.4,0.1-0.7,0.1-0.9c0-1.6-0.7-2.4-2.1-2.4c-1.1,0-1.6,0.5-1.6,1.6c0,0.8,0.6,1.5,1.8,2.1c2.4,1.1,3.5,2.8,3.5,5
			c0,1.3-0.3,2.3-1,3.1c-0.7,0.8-1.5,1.2-2.6,1.2c-2.4,0-3.6-1.3-3.6-3.9c0-0.2,0-0.5,0-0.8l1.4-0.4c-0.1,0.6-0.2,1.1-0.2,1.5
			c0,1.7,0.7,2.5,2.1,2.5c1.1,0,1.7-0.6,1.7-1.8c0-0.9-0.7-1.7-2-2.4c-1.9-1-2.9-2.5-2.9-4.7c0-1.2,0.3-2.2,1-2.9
			c0.6-0.7,1.5-1.1,2.5-1.1C84.3,59.1,85.4,60.4,85.4,63.1L85.4,63.1z M90.9,65.5h4.1v7.3H94l-0.3-0.9c-0.8,0.8-1.6,1.2-2.5,1.2
			c-1.5,0-2.6-0.6-3.4-1.8c-0.8-1.2-1.2-2.9-1.2-5.1c0-2.1,0.4-3.8,1.3-5.1c0.9-1.3,2-2,3.3-2c1.8,0,2.9,1.3,3.3,3.8l-1.3,0.8v-0.3
			l0-0.7c-0.1-1.6-0.6-2.4-1.6-2.4c-0.7,0-1.2,0.4-1.5,1.3c-0.3,0.8-0.4,2.4-0.4,4.7c0,2.2,0.1,3.6,0.3,4.4c0.2,0.8,0.6,1.2,1.2,1.2
			c0.7,0,1.1-0.5,1.1-1.6v-3.3h-1.4V65.5L90.9,65.5z"/>
		<g id="g24">
			<path id="path26" class="st3" d="M65.1,22.8c0.4,0,0.8,0.1,1.4,0.3c0.1,0,0.1,0,0.2,0c0,0,0.1,0,0.3-0.1c0.1,0,0.1,0,0.2,0
				c0.2,0,0.5,0.2,0.7,0.6c0.3,0.4,0.4,0.8,0.4,1.1c0,0.2-0.1,0.4-0.2,0.5c-0.1,0.1-0.3,0.2-0.4,0.2c-0.1,0-0.3,0-0.3-0.1
				c-0.1-0.1-0.3-0.2-0.6-0.5c-0.4-0.4-0.8-0.6-1.2-0.6c-0.2,0-0.4,0.1-0.5,0.1c-0.1,0.1-0.2,0.2-0.2,0.4c0,0.3,0.3,0.6,0.8,0.7
				c0.7,0.2,1.2,0.4,1.4,0.5c0.9,0.5,1.3,1.1,1.3,2c0,0.8-0.3,1.4-0.9,1.9c-0.6,0.5-1.4,0.8-2.4,0.8c-0.4,0-0.9-0.1-1.4-0.2
				c-0.5-0.1-0.9-0.2-1.1-0.4c-0.2-0.1-0.3-0.4-0.5-0.8C62,29,62,28.6,62,28.2c0-0.2,0-0.3,0.1-0.4c0.1-0.1,0.2-0.2,0.3-0.2
				c0.1,0,0.3,0.1,0.4,0.2c0.1,0.1,0.2,0.3,0.5,0.8c0.1,0.2,0.3,0.4,0.6,0.5c0.3,0.1,0.6,0.2,0.9,0.2c0.3,0,0.5,0,0.6-0.2
				c0.2-0.1,0.2-0.2,0.2-0.4c0-0.1-0.1-0.3-0.2-0.4c-0.1-0.1-0.3-0.2-0.6-0.3c-0.5-0.2-0.9-0.3-1.1-0.5c-0.3-0.1-0.5-0.3-0.7-0.5
				c-0.6-0.5-0.8-1.1-0.8-1.8c0-0.3,0.1-0.6,0.2-0.9c0.1-0.3,0.3-0.6,0.6-0.8C63.6,23.1,64.3,22.8,65.1,22.8L65.1,22.8z M71.1,22.9
				c1.1,0,1.6,0.2,1.6,0.7c0,0.1,0,0.2-0.1,0.3c-0.1,0.1-0.2,0.2-0.3,0.3c-0.1,0.1-0.2,0.2-0.3,0.3c0,0.1-0.1,0.4-0.1,0.9
				c0,0.3,0,0.4,0.1,0.5c0.1,0,0.1,0.1,0.2,0.1c0.1,0,0.4,0,0.8,0c0.4,0,0.6,0,0.7-0.1c0.1,0,0.1-0.1,0.1-0.3c0-0.5,0-0.8-0.1-1
				c0-0.2-0.1-0.3-0.2-0.4c-0.2-0.1-0.3-0.2-0.3-0.2c0-0.1-0.1-0.1-0.1-0.3c0-0.2,0.1-0.3,0.2-0.4c0.1-0.1,0.2-0.2,0.4-0.3
				c0.4-0.1,0.8-0.1,1.4-0.1c0.6,0,1.1,0.1,1.4,0.2c0.3,0.1,0.5,0.3,0.5,0.6c0,0.2-0.1,0.4-0.3,0.5c-0.1,0.1-0.2,0.1-0.3,0.2
				c0,0.1-0.1,0.2-0.1,0.3c0,0.1,0,0.5-0.1,1.2c0,0.7,0,1.3,0,1.7c0,0.7,0,1.2,0.1,1.4c0,0.1,0.1,0.2,0.1,0.2c0,0,0.1,0.1,0.3,0.2
				c0.1,0.1,0.2,0.2,0.2,0.4c0,0.3-0.2,0.5-0.5,0.6c-0.3,0.1-0.8,0.2-1.5,0.2c-0.6,0-1.1-0.1-1.4-0.2c-0.3-0.1-0.4-0.3-0.4-0.5
				c0-0.2,0.1-0.4,0.3-0.5c0.1-0.1,0.2-0.1,0.2-0.2c0-0.1,0.1-0.2,0.1-0.3c0.1-0.3,0.1-0.7,0.1-1.1c0-0.2,0-0.4-0.1-0.4
				c-0.1-0.1-0.2-0.1-0.5-0.1c-0.6,0-1,0-1.2,0.1c-0.1,0-0.1,0.1-0.1,0.3c0,0.2,0,0.4,0,0.7c0,0.4,0.1,0.7,0.2,0.9
				c0,0.1,0.1,0.1,0.3,0.2c0.1,0.1,0.2,0.2,0.2,0.4c0,0.3-0.2,0.5-0.5,0.6c-0.3,0.1-0.8,0.2-1.4,0.2c-0.6,0-1-0.1-1.4-0.2
				c-0.2-0.1-0.3-0.1-0.4-0.2c-0.1-0.1-0.1-0.2-0.1-0.3c0-0.1,0-0.2,0.1-0.3c0.1-0.1,0.2-0.2,0.4-0.3c0.1-0.1,0.2-0.1,0.2-0.2
				c0-0.1,0.1-0.2,0.1-0.4c0.1-0.4,0.1-1,0.1-1.7c0-0.1,0-0.3,0-0.5c0-0.9,0-1.4,0-1.5c0-0.3,0-0.5-0.1-0.6
				c-0.1-0.1-0.2-0.2-0.4-0.3c-0.2-0.1-0.2-0.2-0.2-0.3c0-0.4,0.3-0.6,1-0.8C70.3,22.9,70.7,22.9,71.1,22.9L71.1,22.9z M79.7,22.9
				c0.4,0,0.8,0,1.1,0.1c0.5,0.1,0.7,0.3,0.7,0.6c0,0.1,0,0.2-0.1,0.2c0,0.1-0.2,0.1-0.4,0.2c-0.2,0.1-0.3,0.3-0.3,0.6
				c0,0.3-0.1,0.8-0.1,1.7c0,1.4,0,2.3,0.1,2.6c0,0.1,0.1,0.2,0.1,0.2c0,0.1,0.1,0.1,0.3,0.2c0.2,0.1,0.3,0.3,0.3,0.5
				c0,0.3-0.2,0.5-0.6,0.6c-0.5,0.1-1,0.2-1.7,0.2c-1.1,0-1.7-0.2-1.7-0.7c0-0.2,0.1-0.3,0.3-0.5c0.2-0.1,0.3-0.3,0.3-0.5
				c0.1-0.4,0.1-1.3,0.1-2.7c0-0.9,0-1.5-0.1-1.8c0-0.2-0.2-0.3-0.4-0.4c-0.1-0.1-0.2-0.2-0.3-0.2c0-0.1-0.1-0.2-0.1-0.3
				c0-0.2,0.1-0.3,0.2-0.4c0.1-0.1,0.4-0.2,0.8-0.3C78.8,22.9,79.2,22.9,79.7,22.9L79.7,22.9z M83,23h2.7c0.5,0,0.9,0,1.2,0
				c0.2,0,0.5-0.1,0.7-0.1c0.1,0,0.1,0,0.2,0c0.2,0,0.3,0.1,0.5,0.3c0.2,0.3,0.3,0.7,0.3,1.2c0,0.2,0,0.4-0.1,0.6
				c-0.1,0.1-0.2,0.2-0.4,0.2c-0.1,0-0.2,0-0.3-0.1c-0.1,0-0.2-0.2-0.3-0.3c-0.2-0.2-0.3-0.4-0.6-0.5c-0.2-0.1-0.6-0.1-1.2-0.1
				c-0.4,0-0.6,0.1-0.7,0.2c0,0.1-0.1,0.2-0.1,0.3c0,0.1,0,0.5,0,1c0,0.2,0,0.4,0.1,0.4c0.1,0.1,0.3,0.1,0.5,0.1
				c0.1,0,0.3,0,0.3-0.1C86,26,86,25.9,86,25.7c0-0.2,0.1-0.4,0.1-0.4c0-0.1,0.1-0.1,0.1-0.2c0.1-0.1,0.2-0.1,0.3-0.1
				c0.1,0,0.3,0.1,0.4,0.2c0.1,0.1,0.1,0.3,0.2,0.6c0,0.3,0.1,0.6,0.1,0.8c0,0.6-0.1,1.1-0.3,1.4c-0.1,0.2-0.2,0.3-0.4,0.3
				c-0.1,0-0.2,0-0.2-0.1c0-0.1-0.1-0.2-0.1-0.4c-0.1-0.4-0.3-0.6-0.7-0.6c-0.2,0-0.3,0.1-0.3,0.2C85,27.5,85,27.7,85,27.9
				c0,0.2,0,0.4,0,0.7c0,0.3,0,0.5,0.1,0.5c0,0.1,0.1,0.2,0.3,0.2c0.1,0,0.4,0.1,0.7,0.1c0.5,0,0.9-0.1,1.2-0.2
				c0.3-0.1,0.5-0.4,0.6-0.8c0.1-0.2,0.2-0.4,0.3-0.4c0.1-0.1,0.2-0.1,0.3-0.1c0.1,0,0.3,0.1,0.4,0.2c0.1,0.1,0.1,0.3,0.1,0.5
				c0,0.2-0.1,0.5-0.2,0.8c-0.1,0.3-0.2,0.6-0.4,0.9c-0.1,0.1-0.1,0.2-0.2,0.3c-0.1,0-0.1,0.1-0.2,0.1c-0.1,0-0.2,0-0.3,0
				c-0.2,0-0.5-0.1-0.9-0.1h-4.4c-0.2,0-0.3,0-0.4-0.1c-0.1-0.1-0.1-0.2-0.1-0.4c0-0.1,0-0.2,0.1-0.2c0,0,0.1-0.1,0.3-0.2
				c0.1,0,0.2-0.1,0.2-0.2c0-0.1,0.1-0.2,0.1-0.3c0.1-0.6,0.2-1.3,0.2-2.3c0-1.4-0.1-2.3-0.3-2.7c0-0.1-0.1-0.1-0.1-0.2
				c0,0-0.1-0.1-0.3-0.1c-0.2-0.1-0.3-0.2-0.3-0.4c0-0.1,0-0.2,0.1-0.3c0.1-0.1,0.2-0.2,0.3-0.2C82.3,23,82.6,23,83,23L83,23z
				 M92.6,25.4V28c0,0.6,0,0.9,0.1,1.1c0.1,0.2,0.4,0.3,0.7,0.3c0.4,0,0.7-0.1,0.9-0.3c0.2-0.2,0.4-0.5,0.5-0.9
				c0.1-0.2,0.2-0.4,0.4-0.4c0.2,0,0.3,0.1,0.5,0.3c0.1,0.2,0.2,0.4,0.2,0.7c0,0.5-0.2,0.9-0.5,1.5c-0.1,0.2-0.2,0.3-0.3,0.3
				c-0.1,0.1-0.2,0.1-0.3,0.1l-1.2-0.1h-3.7c-0.2,0-0.4,0-0.5-0.1c-0.1-0.1-0.2-0.2-0.2-0.4c0-0.1,0-0.2,0.1-0.2
				c0,0,0.2-0.1,0.3-0.2c0.2-0.1,0.3-0.2,0.4-0.4c0-0.2,0.1-0.6,0.1-1.3c0-0.3,0-0.8,0-1.5c0-0.6,0-1.1,0-1.4c0-0.3,0-0.5-0.1-0.6
				c0-0.1-0.1-0.2-0.3-0.2c-0.2-0.1-0.4-0.2-0.4-0.2c-0.1-0.1-0.2-0.2-0.2-0.3c0-0.3,0.2-0.5,0.6-0.6c0.4-0.1,0.8-0.2,1.4-0.2
				c0.7,0,1.2,0,1.5,0.1c0.4,0.1,0.6,0.3,0.6,0.6c0,0.1,0,0.2-0.1,0.3c-0.1,0.1-0.2,0.1-0.4,0.2c-0.1,0.1-0.2,0.2-0.3,0.3
				C92.7,24.6,92.6,24.9,92.6,25.4L92.6,25.4z M98.2,30.5h-0.4c-0.2,0-0.5,0-0.7,0c-0.2,0-0.3,0-0.4,0c-0.2,0-0.4-0.1-0.6-0.2
				C96.1,30.3,96,30.2,96,30c0-0.1,0-0.2,0.1-0.3c0.1-0.1,0.2-0.1,0.3-0.2c0.1,0,0.2-0.1,0.3-0.2c0-0.1,0.1-0.2,0.1-0.5
				c0-0.3,0.1-0.8,0.1-1.6c0-0.8,0-1.6,0-2.4c0-0.3,0-0.5-0.1-0.6c0-0.1-0.2-0.2-0.3-0.2c-0.2-0.1-0.4-0.3-0.4-0.5
				c0-0.2,0.1-0.3,0.2-0.4c0.2-0.1,0.4-0.2,0.7-0.2c0.1,0,0.2,0,0.3,0c0.3,0,0.5,0,0.6,0c0.5,0,1.1,0,1.7-0.1c0.1,0,0.3,0,0.5,0
				c0.8,0,1.4,0.1,1.9,0.3c0.7,0.3,1.2,0.8,1.6,1.4c0.3,0.6,0.5,1.3,0.5,2.1c0,0.4-0.1,0.8-0.2,1.3c-0.1,0.4-0.3,0.8-0.5,1.1
				c-0.4,0.6-1,1.1-1.7,1.3c-0.4,0.1-0.9,0.2-1.3,0.2l-0.6,0l-0.5,0C98.9,30.6,98.6,30.5,98.2,30.5L98.2,30.5z M99.3,24.6v4.3
				c0,0.2,0,0.4,0.1,0.5c0.1,0.1,0.3,0.1,0.5,0.1c1,0,1.5-0.8,1.5-2.5c0-0.9-0.1-1.6-0.4-2.1c-0.3-0.5-0.7-0.8-1.3-0.8
				c-0.2,0-0.3,0-0.4,0.1C99.4,24.3,99.3,24.4,99.3,24.6L99.3,24.6z"/>
			<g id="g28">
				<path id="path30" class="st3" d="M50.1,33.9c0.2,0,0.4,0.1,0.7,0.2c0,0,0.1,0,0.1,0c0,0,0.1,0,0.2-0.1c0,0,0.1,0,0.1,0
					c0.1,0,0.2,0.1,0.4,0.4c0.1,0.3,0.2,0.5,0.2,0.7c0,0.1,0,0.2-0.1,0.3c-0.1,0.1-0.1,0.1-0.2,0.1c-0.1,0-0.1,0-0.2-0.1
					c0,0-0.1-0.2-0.3-0.3c-0.2-0.3-0.4-0.4-0.6-0.4c-0.1,0-0.2,0-0.2,0.1C50,34.9,50,35,50,35.1c0,0.2,0.1,0.4,0.4,0.5
					c0.4,0.1,0.6,0.3,0.7,0.3c0.5,0.3,0.7,0.7,0.7,1.3c0,0.5-0.2,0.9-0.5,1.3C51,38.8,50.6,39,50,39c-0.2,0-0.5,0-0.7-0.1
					c-0.3-0.1-0.4-0.2-0.6-0.3c-0.1-0.1-0.2-0.2-0.2-0.5c-0.1-0.3-0.1-0.5-0.1-0.8c0-0.1,0-0.2,0.1-0.3c0-0.1,0.1-0.1,0.2-0.1
					c0.1,0,0.1,0,0.2,0.1c0,0.1,0.1,0.2,0.3,0.5c0.1,0.1,0.2,0.2,0.3,0.3c0.1,0.1,0.3,0.1,0.4,0.1c0.1,0,0.2,0,0.3-0.1
					c0.1-0.1,0.1-0.2,0.1-0.3c0-0.1,0-0.2-0.1-0.2c-0.1-0.1-0.2-0.1-0.3-0.2c-0.3-0.1-0.5-0.2-0.6-0.3c-0.1-0.1-0.3-0.2-0.4-0.3
					c-0.3-0.3-0.4-0.7-0.4-1.2c0-0.2,0-0.4,0.1-0.6c0.1-0.2,0.2-0.4,0.3-0.5C49.2,34,49.6,33.9,50.1,33.9L50.1,33.9z M52.5,34h1.4
					c0.3,0,0.5,0,0.6,0c0.1,0,0.3,0,0.4-0.1c0,0,0.1,0,0.1,0c0.1,0,0.2,0.1,0.2,0.2c0.1,0.2,0.2,0.5,0.2,0.8c0,0.2,0,0.3-0.1,0.4
					c0,0.1-0.1,0.1-0.2,0.1c-0.1,0-0.1,0-0.1,0c0,0-0.1-0.1-0.1-0.2c-0.1-0.2-0.2-0.3-0.3-0.3c-0.1-0.1-0.3-0.1-0.6-0.1
					c-0.2,0-0.3,0.1-0.4,0.1c0,0.1,0,0.1,0,0.2c0,0.1,0,0.3,0,0.7c0,0.1,0,0.2,0.1,0.3c0,0,0.1,0.1,0.3,0.1C54,36,54,36,54,36
					c0,0,0.1-0.1,0.1-0.2c0-0.1,0-0.2,0-0.3c0-0.1,0-0.1,0.1-0.1c0,0,0.1-0.1,0.1-0.1c0.1,0,0.1,0,0.2,0.1c0,0.1,0.1,0.2,0.1,0.4
					c0,0.2,0,0.4,0,0.6c0,0.4,0,0.7-0.1,0.9c0,0.1-0.1,0.2-0.2,0.2c-0.1,0-0.1,0-0.1-0.1c0,0,0-0.1-0.1-0.3c0-0.3-0.1-0.4-0.4-0.4
					c-0.1,0-0.1,0-0.2,0.1c0,0.1,0,0.2,0,0.4c0,0.1,0,0.3,0,0.4c0,0.2,0,0.3,0,0.4c0,0.1,0.1,0.1,0.1,0.1c0.1,0,0.2,0,0.4,0
					c0.3,0,0.5,0,0.6-0.1c0.1-0.1,0.2-0.3,0.3-0.5c0.1-0.1,0.1-0.2,0.1-0.3c0,0,0.1-0.1,0.2-0.1c0.1,0,0.1,0,0.2,0.1
					c0,0.1,0.1,0.2,0.1,0.3c0,0.1,0,0.3-0.1,0.5c-0.1,0.2-0.1,0.4-0.2,0.6c0,0.1-0.1,0.1-0.1,0.2c0,0-0.1,0-0.1,0c0,0-0.1,0-0.1,0
					c-0.1,0-0.3,0-0.5-0.1h-2.3c-0.1,0-0.2,0-0.2-0.1c0-0.1-0.1-0.1-0.1-0.2c0-0.1,0-0.1,0-0.2c0,0,0.1-0.1,0.1-0.1
					c0.1,0,0.1-0.1,0.1-0.1c0,0,0-0.1,0.1-0.2c0.1-0.4,0.1-0.9,0.1-1.5c0-0.9,0-1.5-0.1-1.8c0,0,0-0.1-0.1-0.1c0,0-0.1,0-0.1-0.1
					c-0.1,0-0.2-0.1-0.2-0.3c0-0.1,0-0.1,0.1-0.2c0-0.1,0.1-0.1,0.1-0.1C52.2,34,52.3,34,52.5,34L52.5,34z M57.8,33.9
					c0.3,0,0.5,0.1,0.8,0.2c0.1,0.1,0.2,0.1,0.2,0.1c0,0,0.1,0,0.2,0c0,0,0,0,0.1,0c0.1,0,0.2,0.1,0.2,0.2c0.2,0.3,0.3,0.6,0.3,1
					c0,0.3-0.1,0.5-0.2,0.6c-0.1,0.1-0.2,0.1-0.3,0.1c-0.1,0-0.2,0-0.2-0.1c-0.1-0.1-0.1-0.1-0.2-0.3c-0.1-0.2-0.1-0.3-0.2-0.4
					c0-0.1-0.1-0.2-0.2-0.2c-0.2-0.2-0.4-0.2-0.5-0.2c-0.2,0-0.3,0.1-0.4,0.3c-0.1,0.2-0.2,0.4-0.2,0.7c0,0.4,0.1,0.8,0.2,1.1
					c0.2,0.5,0.5,0.7,0.9,0.7c0.1,0,0.3,0,0.4-0.1c0.1-0.1,0.3-0.1,0.3-0.3c0.1-0.1,0.1-0.1,0.2-0.1c0.1,0,0.1,0,0.2,0.1
					c0,0.1,0.1,0.2,0.1,0.3c0,0.1,0,0.3-0.1,0.5c-0.1,0.2-0.1,0.3-0.2,0.4c0,0-0.1,0.1-0.2,0.1c-0.1,0-0.2,0.1-0.3,0.1
					c-0.3,0.2-0.5,0.3-0.8,0.3c-0.3,0-0.6-0.1-0.9-0.3c-0.3-0.2-0.6-0.5-0.8-1c-0.2-0.4-0.3-0.9-0.3-1.3c0-0.5,0.1-1,0.4-1.5
					c0.2-0.4,0.5-0.7,0.8-0.9C57.3,33.9,57.6,33.9,57.8,33.9L57.8,33.9z M63.7,35.8v0.9c0,0.5,0,0.9-0.1,1.1c-0.1,0.5-0.4,0.8-0.8,1
					c-0.3,0.1-0.6,0.2-0.9,0.2c-0.6,0-1-0.2-1.4-0.6c-0.2-0.2-0.3-0.4-0.3-0.6c-0.1-0.2-0.1-0.6-0.1-1c0-0.2,0-0.5,0-0.9
					c0-0.3,0-0.5,0-0.6c0-0.2,0-0.3,0-0.4c0-0.1-0.1-0.1-0.1-0.2c-0.1-0.1-0.2-0.2-0.2-0.3c0-0.1,0-0.2,0.1-0.2
					C59.9,34,59.9,34,60,34c0.2-0.1,0.4-0.1,0.7-0.1c0.3,0,0.5,0,0.7,0.1c0.2,0.1,0.3,0.2,0.3,0.4c0,0.1,0,0.2-0.1,0.2
					c0,0-0.1,0.1-0.2,0.1c-0.1,0-0.1,0.1-0.1,0.2c0,0.1,0,0.2,0,0.4c0,0.2,0,0.7,0,1.4c0,0.4,0.1,0.7,0.3,0.9
					c0.1,0.2,0.3,0.3,0.6,0.3c0.1,0,0.3,0,0.4-0.1c0.1-0.1,0.2-0.2,0.3-0.3c0-0.1,0.1-0.2,0.1-0.3c0-0.1,0-0.3,0-0.5v-0.8
					c0-0.6,0-1,0-1.1c0-0.1-0.1-0.2-0.2-0.2c-0.1-0.1-0.2-0.1-0.2-0.2c0,0-0.1-0.1-0.1-0.2c0-0.1,0.1-0.2,0.2-0.3
					c0.1-0.1,0.3-0.1,0.6-0.1c0.3,0,0.5,0,0.6,0.1c0.1,0.1,0.2,0.2,0.2,0.3c0,0.1,0,0.1,0,0.2c0,0-0.1,0.1-0.2,0.2
					c-0.1,0.1-0.1,0.2-0.2,0.2C63.7,34.9,63.7,35.2,63.7,35.8L63.7,35.8z M66,36.8c-0.1,0-0.1,0-0.1,0.1c0,0.1,0,0.2,0,0.4
					c0,0.3,0,0.5,0,0.7c0,0,0,0.1,0,0.1c0,0,0.1,0.1,0.1,0.1c0.1,0.1,0.2,0.2,0.2,0.3c0,0.2-0.1,0.3-0.2,0.3
					c-0.1,0.1-0.4,0.1-0.8,0.1c-0.7,0-1-0.2-1-0.5c0-0.1,0-0.1,0-0.1c0,0,0.1-0.1,0.1-0.1c0.1-0.1,0.1-0.2,0.2-0.2
					c0-0.1,0-0.3,0.1-0.5c0-0.2,0-0.8,0-1.8c0-0.3,0-0.6,0-0.7c0-0.1-0.1-0.2-0.2-0.3c-0.1-0.1-0.1-0.1-0.2-0.1c0,0,0-0.1,0-0.2
					c0-0.1,0-0.2,0.1-0.2c0.1-0.1,0.1-0.1,0.2-0.1c0.1,0,0.2,0,0.3,0c0.1,0,0.2,0,0.4,0c0,0,0.1,0,0.2,0c0.2,0,0.4,0,0.6,0
					c0.2,0,0.3,0,0.4,0c0.4,0,0.7,0.1,1,0.4c0.2,0.2,0.3,0.5,0.3,0.9c0,0.2,0,0.4-0.1,0.6c-0.1,0.2-0.2,0.3-0.3,0.4
					c-0.1,0-0.1,0.1-0.1,0.1c0,0.1,0,0.1,0.1,0.2c0.2,0.1,0.3,0.2,0.4,0.4c0.1,0.2,0.2,0.5,0.2,0.9c0,0.2,0,0.3,0.1,0.3
					c0,0,0.1,0.1,0.2,0.1c0,0,0.1,0,0.1,0.1c0,0,0,0.1,0,0.2c0,0.1,0,0.1-0.1,0.2c0,0.1-0.1,0.1-0.2,0.2C68,39,67.8,39,67.5,39
					c-0.3,0-0.6-0.1-0.7-0.4c-0.1-0.1-0.1-0.3-0.2-0.4c0-0.2-0.1-0.4-0.2-0.8c0-0.2-0.1-0.4-0.2-0.5C66.2,36.9,66.1,36.8,66,36.8
					L66,36.8z M65.9,35l0,0.8c0,0,0,0,0,0c0,0.1,0,0.1,0,0.2c0,0,0.1,0,0.1,0c0.2,0,0.3-0.1,0.3-0.2c0.1-0.1,0.1-0.3,0.1-0.5
					c0-0.5-0.1-0.7-0.4-0.7c-0.1,0-0.1,0-0.1,0.1C65.9,34.8,65.9,34.9,65.9,35L65.9,35z M69.7,33.9c0.2,0,0.4,0,0.6,0.1
					c0.2,0.1,0.4,0.2,0.4,0.4c0,0.1,0,0.1,0,0.2c0,0-0.1,0.1-0.2,0.2c-0.1,0.1-0.1,0.2-0.2,0.4c0,0.2,0,0.6,0,1.1
					c0,0.9,0,1.5,0.1,1.7c0,0.1,0,0.1,0.1,0.2c0,0,0.1,0.1,0.1,0.1c0.1,0.1,0.2,0.2,0.2,0.3c0,0.2-0.1,0.3-0.3,0.4
					c-0.2,0.1-0.5,0.1-0.9,0.1c-0.6,0-0.9-0.2-0.9-0.4c0-0.1,0.1-0.2,0.2-0.3c0.1-0.1,0.1-0.2,0.2-0.3c0-0.3,0.1-0.9,0.1-1.8
					c0-0.6,0-1-0.1-1.2c0-0.1-0.1-0.2-0.2-0.3c-0.1-0.1-0.1-0.1-0.1-0.2c0,0,0-0.1,0-0.2c0-0.1,0-0.2,0.1-0.2
					c0.1-0.1,0.2-0.1,0.4-0.2C69.2,33.9,69.5,33.9,69.7,33.9L69.7,33.9z M72,34h1.4c0.2,0,0.3,0,0.4-0.1c0.1,0,0.1,0,0.1,0
					c0.1,0,0.3,0.1,0.4,0.4c0.1,0.3,0.2,0.6,0.2,0.9c0,0.2,0,0.4-0.1,0.5c-0.1,0.1-0.2,0.1-0.3,0.1c-0.1,0-0.2,0-0.2-0.1
					c-0.1-0.1-0.1-0.2-0.2-0.4c-0.1-0.1-0.1-0.2-0.1-0.3c0,0-0.1-0.1-0.1-0.1c-0.1,0-0.1,0-0.1,0.1c0,0.1,0,0.2,0,0.4v2
					c0,0.2,0,0.4,0,0.5c0,0.1,0.1,0.2,0.2,0.2c0.1,0.1,0.2,0.1,0.2,0.2c0,0,0.1,0.1,0.1,0.2c0,0.2-0.1,0.3-0.3,0.4
					C73.3,38.9,73,39,72.7,39c-0.4,0-0.8-0.1-1-0.1c-0.2-0.1-0.3-0.2-0.3-0.4c0-0.1,0-0.2,0.1-0.2c0,0,0.1,0,0.2-0.1
					c0.1,0,0.1-0.1,0.1-0.2c0-0.1,0-0.2,0.1-0.4c0-0.2,0-0.5,0-0.9c0-0.4,0-0.8,0-1.1c0-0.2,0-0.4,0-0.5c0-0.1-0.1-0.1-0.1-0.1
					c-0.1,0-0.1,0.1-0.2,0.2c-0.1,0.2-0.2,0.4-0.3,0.5c-0.1,0.1-0.2,0.1-0.3,0.1c-0.1,0-0.2,0-0.2-0.1c-0.1-0.1-0.1-0.2-0.1-0.4
					c0-0.1,0-0.3,0.1-0.5c0.1-0.2,0.1-0.3,0.2-0.5c0.1-0.2,0.3-0.4,0.4-0.4c0,0,0.1,0,0.1,0c0.1,0,0.2,0,0.2,0.1
					C71.8,34,71.9,34,72,34L72,34z M75.8,33.9c0.4,0,0.6,0,0.8,0.1c0.1,0,0.2,0.1,0.2,0.1c0.1,0.1,0.1,0.1,0.1,0.2
					c0,0.1,0,0.1-0.1,0.2c-0.1,0.1-0.1,0.2-0.1,0.2c0,0.1,0.1,0.2,0.2,0.4c0.1,0.1,0.1,0.2,0.2,0.2c0,0,0.1,0,0.1-0.1
					c0,0,0.1-0.1,0.1-0.2c0.1-0.1,0.1-0.2,0.1-0.3c0,0,0-0.1,0-0.1c0,0,0-0.1-0.1-0.2c0-0.1-0.1-0.1-0.1-0.2c0-0.3,0.3-0.4,0.8-0.4
					c0.3,0,0.5,0,0.6,0.1c0.1,0,0.1,0.1,0.1,0.1c0,0.1,0.1,0.1,0.1,0.2c0,0.1,0,0.2-0.1,0.2c0,0.1-0.1,0.1-0.2,0.1
					c-0.1,0-0.2,0.1-0.3,0.2c-0.1,0.1-0.2,0.3-0.4,0.6c-0.2,0.4-0.4,0.6-0.5,0.8c-0.1,0.2-0.1,0.4-0.1,0.8c0,0.3,0,0.5,0,0.8
					c0,0.1,0,0.2,0.1,0.3c0,0.1,0.1,0.1,0.2,0.2c0.1,0.1,0.2,0.2,0.2,0.3c0,0.3-0.4,0.5-1.1,0.5c-0.3,0-0.6,0-0.8-0.1
					c-0.2-0.1-0.3-0.2-0.3-0.4c0-0.1,0.1-0.3,0.2-0.3c0.1,0,0.2-0.1,0.2-0.2c0.1-0.2,0.1-0.6,0.1-1.2c0-0.2,0-0.3,0-0.5
					c0-0.1-0.1-0.2-0.2-0.4c-0.2-0.4-0.4-0.7-0.6-1c-0.1-0.1-0.2-0.2-0.3-0.3c-0.1-0.1-0.2-0.1-0.2-0.1c-0.1-0.1-0.1-0.1-0.1-0.2
					c0-0.2,0.1-0.3,0.3-0.3C75.1,33.9,75.4,33.9,75.8,33.9L75.8,33.9z M82.5,33.9c0.2,0,0.5,0,0.7,0.1c0.1,0,0.2,0.1,0.2,0.1
					c0,0,0.1,0,0.2-0.1c0,0,0.1,0,0.1,0c0.1,0,0.2,0.1,0.3,0.2c0.1,0.3,0.2,0.5,0.2,0.8c0,0.2,0,0.4-0.1,0.5
					c-0.1,0.1-0.2,0.2-0.3,0.2c-0.1,0-0.2-0.1-0.3-0.2c0,0-0.1-0.1-0.2-0.3c-0.2-0.3-0.4-0.5-0.7-0.5c-0.2,0-0.4,0.1-0.6,0.3
					c-0.1,0.2-0.2,0.5-0.2,0.9c0,0.6,0.1,1.1,0.3,1.5c0.1,0.1,0.2,0.3,0.3,0.4c0.1,0.1,0.2,0.1,0.3,0.1c0.1,0,0.2,0,0.2-0.1
					c0.1-0.1,0.1-0.2,0.1-0.3c0-0.1,0-0.2-0.1-0.2c0,0,0,0-0.1,0c0,0-0.1,0-0.2,0c-0.1,0-0.1,0-0.2-0.1c-0.1-0.1-0.1-0.2-0.1-0.3
					c0-0.2,0.1-0.3,0.3-0.4c0.2-0.1,0.5-0.1,0.8-0.1c0.3,0,0.6,0,0.8,0.1c0.2,0.1,0.3,0.2,0.3,0.4c0,0.1,0,0.2-0.1,0.2
					c0,0.1-0.1,0.1-0.2,0.1c-0.1,0-0.1,0-0.1,0.1c0,0,0,0.1-0.1,0.2c-0.1,0.4-0.2,0.7-0.5,1c-0.2,0.2-0.3,0.3-0.6,0.4
					C83,38.9,82.7,39,82.5,39c-0.4,0-0.8-0.1-1.1-0.4c-0.3-0.2-0.6-0.6-0.8-1c-0.1-0.4-0.2-0.8-0.2-1.2c0-0.4,0.1-0.9,0.3-1.2
					c0.2-0.4,0.4-0.7,0.8-1C81.8,34,82.1,33.9,82.5,33.9L82.5,33.9z M88.7,35.8v0.9c0,0.5,0,0.9-0.1,1.1c-0.1,0.5-0.4,0.8-0.8,1
					c-0.3,0.1-0.6,0.2-0.9,0.2c-0.6,0-1-0.2-1.4-0.6c-0.2-0.2-0.3-0.4-0.3-0.6c-0.1-0.2-0.1-0.6-0.1-1c0-0.2,0-0.5,0-0.9
					c0-0.3,0-0.5,0-0.6c0-0.2,0-0.3,0-0.4c0-0.1-0.1-0.1-0.1-0.2c-0.1-0.1-0.2-0.2-0.2-0.3c0-0.1,0-0.2,0.1-0.2
					C84.9,34,85,34,85.1,34c0.2-0.1,0.4-0.1,0.7-0.1c0.3,0,0.5,0,0.7,0.1c0.2,0.1,0.3,0.2,0.3,0.4c0,0.1,0,0.2-0.1,0.2
					c0,0-0.1,0.1-0.2,0.1c-0.1,0-0.1,0.1-0.1,0.2c0,0.1,0,0.2,0,0.4c0,0.2,0,0.7,0,1.4c0,0.4,0.1,0.7,0.3,0.9
					c0.1,0.2,0.3,0.3,0.6,0.3c0.1,0,0.3,0,0.4-0.1c0.1-0.1,0.2-0.2,0.3-0.3c0-0.1,0.1-0.2,0.1-0.3c0-0.1,0-0.3,0-0.5v-0.8
					c0-0.6,0-1,0-1.1c0-0.1-0.1-0.2-0.2-0.2c-0.1-0.1-0.2-0.1-0.2-0.2c0,0-0.1-0.1-0.1-0.2c0-0.1,0.1-0.2,0.2-0.3
					c0.1-0.1,0.3-0.1,0.6-0.1c0.3,0,0.5,0,0.6,0.1c0.1,0.1,0.2,0.2,0.2,0.3c0,0.1,0,0.1,0,0.2c0,0-0.1,0.1-0.2,0.2
					c-0.1,0.1-0.1,0.2-0.2,0.2C88.7,34.9,88.7,35.2,88.7,35.8L88.7,35.8z M92.5,36.4l0.5,1.5c0,0.1,0.1,0.2,0.1,0.3
					c0,0,0.1,0.1,0.1,0.1c0.1,0,0.2,0.1,0.2,0.3c0,0.2-0.1,0.3-0.2,0.4C93,38.9,92.8,39,92.4,39c-0.4,0-0.7,0-0.9-0.1
					c-0.1,0-0.2-0.1-0.2-0.1c-0.1-0.1-0.1-0.1-0.1-0.2c0-0.1,0-0.1,0-0.2c0,0,0.1-0.1,0.2-0.1c0.1,0,0.1-0.1,0.1-0.2
					c0-0.2-0.1-0.3-0.2-0.3c-0.2,0-0.4,0-0.7,0c-0.2,0-0.4,0-0.4,0.1c0,0-0.1,0.1-0.1,0.1c0,0.1,0,0.1,0,0.2c0,0.1,0,0.1,0,0.1
					c0,0,0.1,0,0.1,0.1c0.1,0,0.2,0.1,0.2,0.3c0,0.3-0.3,0.4-0.8,0.4c-0.3,0-0.5,0-0.6-0.1c-0.1-0.1-0.2-0.2-0.2-0.3
					c0-0.1,0-0.1,0-0.2c0,0,0.1-0.1,0.1-0.1c0.1-0.1,0.2-0.1,0.3-0.2c0.1-0.1,0.1-0.3,0.3-0.6l0.4-1.1c0.1-0.4,0.2-0.7,0.3-0.9
					c0-0.2,0.1-0.4,0.1-0.6c0-0.2,0-0.4,0-0.4c0-0.1,0.1-0.2,0.1-0.2c0.1-0.2,0.3-0.3,0.5-0.3c0.2,0,0.4,0.1,0.5,0.3
					C91.7,34.4,92,35.1,92.5,36.4L92.5,36.4z M90.6,36.9h0.5c0.1,0,0.1,0,0.1-0.1c0-0.1-0.1-0.3-0.2-0.6C91,36,91,35.9,90.9,35.9
					c0,0-0.1-0.1-0.1-0.1c-0.1,0-0.1,0.1-0.2,0.2c0,0,0,0.1-0.1,0.3c-0.1,0.2-0.1,0.4-0.1,0.4C90.5,36.8,90.5,36.9,90.6,36.9
					L90.6,36.9z"/>
				<path id="path32" class="st3" d="M95.3,36.8c-0.1,0-0.1,0-0.1,0.1c0,0.1,0,0.2,0,0.4c0,0.3,0,0.5,0,0.7c0,0,0,0.1,0,0.1
					c0,0,0.1,0.1,0.1,0.1c0.1,0.1,0.2,0.2,0.2,0.3c0,0.2-0.1,0.3-0.2,0.3c-0.1,0.1-0.4,0.1-0.8,0.1c-0.7,0-1-0.2-1-0.5
					c0-0.1,0-0.1,0-0.1c0,0,0.1-0.1,0.1-0.1c0.1-0.1,0.1-0.2,0.2-0.2c0-0.1,0-0.3,0.1-0.5c0-0.2,0-0.8,0-1.8c0-0.3,0-0.6,0-0.7
					c0-0.1-0.1-0.2-0.2-0.3c-0.1-0.1-0.1-0.1-0.2-0.1c0,0,0-0.1,0-0.2c0-0.1,0-0.2,0.1-0.2c0.1-0.1,0.1-0.1,0.2-0.1
					c0.1,0,0.2,0,0.3,0c0.1,0,0.2,0,0.4,0c0,0,0.1,0,0.2,0c0.2,0,0.4,0,0.6,0c0.2,0,0.3,0,0.4,0c0.4,0,0.7,0.1,1,0.4
					c0.2,0.2,0.3,0.5,0.3,0.9c0,0.2,0,0.4-0.1,0.6c-0.1,0.2-0.2,0.3-0.3,0.4c-0.1,0-0.1,0.1-0.1,0.1c0,0.1,0,0.1,0.1,0.2
					c0.2,0.1,0.3,0.2,0.4,0.4c0.1,0.2,0.2,0.5,0.2,0.9c0,0.2,0,0.3,0.1,0.3c0,0,0.1,0.1,0.2,0.1c0,0,0.1,0,0.1,0.1c0,0,0,0.1,0,0.2
					c0,0.1,0,0.1-0.1,0.2c0,0.1-0.1,0.1-0.2,0.2C97.3,39,97.1,39,96.8,39c-0.3,0-0.6-0.1-0.7-0.4c-0.1-0.1-0.1-0.3-0.2-0.4
					c0-0.2-0.1-0.4-0.2-0.8c0-0.2-0.1-0.4-0.2-0.5C95.5,36.9,95.4,36.8,95.3,36.8L95.3,36.8z M95.2,35l0,0.8c0,0,0,0,0,0
					c0,0.1,0,0.1,0,0.2c0,0,0.1,0,0.1,0c0.2,0,0.3-0.1,0.3-0.2c0.1-0.1,0.1-0.3,0.1-0.5c0-0.5-0.1-0.7-0.4-0.7c-0.1,0-0.1,0-0.1,0.1
					C95.2,34.8,95.2,34.9,95.2,35L95.2,35z M99,38.9h-0.2c-0.1,0-0.2,0-0.4,0c-0.1,0-0.1,0-0.2,0c-0.1,0-0.2,0-0.3-0.1
					c-0.1-0.1-0.1-0.2-0.1-0.3c0-0.1,0-0.1,0-0.2c0,0,0.1-0.1,0.2-0.1c0.1,0,0.1-0.1,0.1-0.1c0-0.1,0-0.2,0.1-0.3c0-0.2,0-0.5,0-1.1
					c0-0.5,0-1,0-1.6c0-0.2,0-0.3,0-0.4c0-0.1-0.1-0.1-0.2-0.2c-0.1-0.1-0.2-0.2-0.2-0.3c0-0.1,0-0.2,0.1-0.3
					c0.1-0.1,0.2-0.1,0.4-0.1c0.1,0,0.1,0,0.2,0c0.2,0,0.3,0,0.3,0c0.3,0,0.5,0,0.9,0c0.1,0,0.2,0,0.3,0c0.4,0,0.7,0.1,1,0.2
					c0.4,0.2,0.6,0.5,0.8,0.9c0.2,0.4,0.2,0.9,0.2,1.4c0,0.3,0,0.5-0.1,0.8c-0.1,0.3-0.1,0.5-0.2,0.7c-0.2,0.4-0.5,0.7-0.9,0.9
					c-0.2,0.1-0.4,0.1-0.7,0.1l-0.3,0l-0.3,0C99.3,38.9,99.1,38.9,99,38.9L99,38.9z M99.5,35v2.8c0,0.2,0,0.3,0.1,0.3
					c0,0.1,0.1,0.1,0.2,0.1c0.5,0,0.8-0.5,0.8-1.6c0-0.6-0.1-1.1-0.2-1.4c-0.1-0.4-0.4-0.5-0.7-0.5c-0.1,0-0.1,0-0.2,0.1
					C99.5,34.8,99.5,34.9,99.5,35z M103.9,33.9c0.2,0,0.4,0.1,0.7,0.2c0,0,0.1,0,0.1,0c0,0,0.1,0,0.2-0.1c0,0,0.1,0,0.1,0
					c0.1,0,0.2,0.1,0.4,0.4c0.1,0.3,0.2,0.5,0.2,0.7c0,0.1,0,0.2-0.1,0.3c-0.1,0.1-0.1,0.1-0.2,0.1c-0.1,0-0.1,0-0.2-0.1
					c0,0-0.1-0.2-0.3-0.3c-0.2-0.3-0.4-0.4-0.6-0.4c-0.1,0-0.2,0-0.2,0.1c-0.1,0.1-0.1,0.2-0.1,0.3c0,0.2,0.1,0.4,0.4,0.5
					c0.4,0.1,0.6,0.3,0.7,0.3c0.5,0.3,0.7,0.7,0.7,1.3c0,0.5-0.2,0.9-0.5,1.3c-0.3,0.3-0.7,0.5-1.2,0.5c-0.2,0-0.5,0-0.7-0.1
					c-0.3-0.1-0.4-0.2-0.6-0.3c-0.1-0.1-0.2-0.2-0.2-0.5c-0.1-0.3-0.1-0.5-0.1-0.8c0-0.1,0-0.2,0.1-0.3c0-0.1,0.1-0.1,0.2-0.1
					c0.1,0,0.1,0,0.2,0.1c0,0.1,0.1,0.2,0.3,0.5c0.1,0.1,0.2,0.2,0.3,0.3c0.1,0.1,0.3,0.1,0.4,0.1c0.1,0,0.2,0,0.3-0.1
					c0.1-0.1,0.1-0.2,0.1-0.3c0-0.1,0-0.2-0.1-0.2c-0.1-0.1-0.2-0.1-0.3-0.2c-0.3-0.1-0.5-0.2-0.6-0.3c-0.1-0.1-0.3-0.2-0.4-0.3
					c-0.3-0.3-0.4-0.7-0.4-1.2c0-0.2,0-0.4,0.1-0.6c0.1-0.2,0.2-0.4,0.3-0.5C103.1,34,103.4,33.9,103.9,33.9L103.9,33.9z
					 M108.9,35.5v1.7c0,0.4,0,0.6,0.1,0.7c0.1,0.1,0.2,0.2,0.4,0.2c0.2,0,0.4-0.1,0.5-0.2c0.1-0.1,0.2-0.3,0.2-0.6
					c0-0.2,0.1-0.2,0.2-0.2c0.1,0,0.2,0.1,0.2,0.2c0.1,0.1,0.1,0.3,0.1,0.4c0,0.3-0.1,0.6-0.2,1c-0.1,0.1-0.1,0.2-0.1,0.2
					c0,0-0.1,0.1-0.1,0.1l-0.6-0.1h-1.9c-0.1,0-0.2,0-0.3-0.1c-0.1-0.1-0.1-0.1-0.1-0.2c0-0.1,0-0.1,0-0.2c0,0,0.1-0.1,0.2-0.1
					c0.1-0.1,0.2-0.2,0.2-0.3c0-0.1,0-0.4,0-0.9c0-0.2,0-0.5,0-1c0-0.4,0-0.7,0-0.9c0-0.2,0-0.3,0-0.4c0-0.1-0.1-0.1-0.1-0.2
					c-0.1-0.1-0.2-0.1-0.2-0.1c-0.1-0.1-0.1-0.1-0.1-0.2c0-0.2,0.1-0.3,0.3-0.4c0.2-0.1,0.4-0.1,0.7-0.1c0.3,0,0.6,0,0.8,0.1
					c0.2,0.1,0.3,0.2,0.3,0.4c0,0.1,0,0.1,0,0.2c0,0-0.1,0.1-0.2,0.2c-0.1,0-0.1,0.1-0.1,0.2C108.9,35,108.9,35.2,108.9,35.5
					L108.9,35.5z M112.4,35.5v1.7c0,0.4,0,0.6,0.1,0.7c0.1,0.1,0.2,0.2,0.4,0.2c0.2,0,0.4-0.1,0.5-0.2c0.1-0.1,0.2-0.3,0.2-0.6
					c0-0.2,0.1-0.2,0.2-0.2c0.1,0,0.2,0.1,0.2,0.2c0.1,0.1,0.1,0.3,0.1,0.4c0,0.3-0.1,0.6-0.2,1c-0.1,0.1-0.1,0.2-0.1,0.2
					c0,0-0.1,0.1-0.1,0.1l-0.6-0.1h-1.9c-0.1,0-0.2,0-0.3-0.1c-0.1-0.1-0.1-0.1-0.1-0.2c0-0.1,0-0.1,0-0.2c0,0,0.1-0.1,0.2-0.1
					c0.1-0.1,0.2-0.2,0.2-0.3c0-0.1,0-0.4,0-0.9c0-0.2,0-0.5,0-1c0-0.4,0-0.7,0-0.9c0-0.2,0-0.3,0-0.4c0-0.1-0.1-0.1-0.1-0.2
					c-0.1-0.1-0.2-0.1-0.2-0.1c-0.1-0.1-0.1-0.1-0.1-0.2c0-0.2,0.1-0.3,0.3-0.4c0.2-0.1,0.4-0.1,0.7-0.1c0.3,0,0.6,0,0.8,0.1
					c0.2,0.1,0.3,0.2,0.3,0.4c0,0.1,0,0.1,0,0.2c0,0-0.1,0.1-0.2,0.2c-0.1,0-0.1,0.1-0.1,0.2C112.4,35,112.4,35.2,112.4,35.5
					L112.4,35.5z M114.6,37.2v-1.9c0-0.2,0-0.4,0-0.5c0-0.1-0.1-0.1-0.2-0.2c-0.2-0.1-0.2-0.2-0.2-0.3c0-0.1,0-0.2,0.1-0.3
					c0.1-0.1,0.2-0.1,0.3-0.1c0,0,0.1,0,0.3,0h0.2c0.3,0,0.5,0,0.5,0c0.1,0,0.2,0,0.5-0.1c0.1,0,0.2,0,0.3,0c0.3,0,0.6,0.1,0.8,0.2
					c0.4,0.3,0.6,0.7,0.6,1.3c0,0.5-0.1,0.9-0.4,1.2c-0.3,0.3-0.6,0.4-1,0.4c-0.1,0-0.2,0-0.3,0c-0.1,0-0.1,0-0.1,0
					c-0.1,0-0.1,0-0.1,0.1v0l0,0.6c0,0.1,0,0.2,0,0.3c0,0.1,0.1,0.1,0.2,0.2c0.1,0.1,0.2,0.2,0.2,0.3c0,0.2-0.1,0.3-0.3,0.4
					c-0.2,0.1-0.4,0.1-0.7,0.1c-0.7,0-1-0.2-1-0.5c0-0.1,0-0.1,0-0.2c0,0,0.1-0.1,0.2-0.2c0.1,0,0.1-0.1,0.1-0.2
					C114.6,37.9,114.6,37.6,114.6,37.2L114.6,37.2z M115.8,34.8v1.2c0,0.1,0,0.2,0,0.2c0.1,0,0.1,0.1,0.2,0.1c0.1,0,0.2,0,0.3-0.1
					c0.1-0.1,0.2-0.3,0.2-0.6c0-0.3-0.1-0.5-0.2-0.7c-0.1-0.1-0.2-0.1-0.3-0.1C115.9,34.7,115.8,34.7,115.8,34.8L115.8,34.8z"/>
			</g>
		</g>
		<g id="g34">
			<path id="path36" class="st3" d="M53.5,75.1c0,0.3,0,0.6,0,1c0,0.1,0,0.1,0,0.1c0,0,0,0.1,0.1,0.2c0,0,0,0.1,0,0.1
				c0,0.2-0.1,0.4-0.3,0.6c-0.2,0.2-0.4,0.4-0.7,0.4c-0.1,0-0.3,0-0.4-0.1c-0.1-0.1-0.2-0.2-0.2-0.3c0-0.1,0-0.2,0-0.3
				c0-0.1,0.1-0.2,0.3-0.5c0.2-0.3,0.3-0.7,0.2-0.9c0-0.1-0.1-0.2-0.2-0.3c-0.1-0.1-0.2-0.1-0.3-0.1c-0.2,0-0.3,0.3-0.4,0.7
				c-0.1,0.5-0.1,0.9-0.1,1c-0.2,0.7-0.6,1.1-1.1,1.2c-0.5,0.1-1,0-1.4-0.4c-0.4-0.4-0.7-0.9-0.8-1.6c-0.1-0.3-0.1-0.7-0.1-1
				c0-0.4,0-0.6,0.1-0.8c0.1-0.1,0.2-0.3,0.4-0.4c0.2-0.1,0.5-0.2,0.7-0.3c0.1,0,0.2,0,0.3,0c0.1,0,0.1,0.1,0.2,0.2
				c0,0.1,0,0.2-0.1,0.3c0,0.1-0.2,0.2-0.4,0.5c-0.1,0.1-0.2,0.3-0.3,0.5c-0.1,0.2-0.1,0.4,0,0.6c0,0.2,0.1,0.3,0.2,0.4
				c0.1,0.1,0.2,0.1,0.3,0.1c0.1,0,0.2-0.1,0.2-0.2c0.1-0.1,0.1-0.3,0.1-0.5c0-0.4,0.1-0.7,0.1-0.9c0.1-0.2,0.1-0.4,0.2-0.6
				c0.3-0.5,0.6-0.7,1-0.8c0.2,0,0.4,0,0.6,0c0.2,0.1,0.4,0.2,0.6,0.3C53.2,74,53.4,74.5,53.5,75.1L53.5,75.1z M54.1,78l0.8,1.7
				c0.2,0.4,0.3,0.6,0.4,0.8c0.1,0.2,0.2,0.3,0.3,0.4c0,0,0.1,0.1,0.1,0.1c0.1,0.1,0,0.3,0,0.4c-0.1,0.2-0.3,0.4-0.6,0.6
				c-0.1,0.1-0.3,0.1-0.4,0.1c-0.1,0-0.2-0.1-0.2-0.2c0-0.1,0-0.1,0-0.2c0-0.1,0.1-0.1,0.1-0.3c0.1-0.2,0.1-0.3,0.1-0.5
				c0-0.2-0.1-0.4-0.3-0.8c-0.1-0.3-0.2-0.4-0.3-0.4c-0.1,0-0.1,0-0.2,0c-0.1,0-0.3,0.1-0.6,0.3c-0.1,0.1-0.2,0.1-0.2,0.2
				c0,0.1,0,0.2,0.1,0.4c0,0.1,0.1,0.2,0.2,0.2c0.1,0,0.1,0,0.2,0c0.1,0,0.2-0.1,0.3-0.1c0.1,0,0.1,0,0.2,0c0.1,0,0.1,0.1,0.1,0.1
				c0,0.1,0,0.2,0,0.3c0,0.1-0.1,0.2-0.3,0.3c-0.1,0.1-0.3,0.2-0.5,0.3c-0.4,0.2-0.7,0.2-0.9,0.2c-0.2,0-0.3-0.1-0.3-0.2
				c0-0.1,0-0.1,0-0.2c0,0,0.1-0.1,0.2-0.2c0.2-0.2,0.3-0.4,0.2-0.6c0-0.1-0.1-0.2-0.2-0.2c-0.1,0-0.2,0-0.4,0.1
				c-0.1,0-0.2,0.1-0.4,0.2C51.1,81,51,81.1,51,81.2c-0.1,0-0.1,0.1-0.1,0.2c0,0.1,0.1,0.3,0.2,0.5c0.2,0.3,0.3,0.6,0.5,0.7
				c0.2,0.1,0.4,0.2,0.7,0.2c0.2,0,0.3,0,0.3,0.1c0.1,0,0.1,0.1,0.2,0.2c0,0.1,0,0.2,0,0.3c-0.1,0.1-0.1,0.2-0.3,0.2
				c-0.1,0.1-0.3,0.1-0.5,0.1c-0.2,0-0.4,0-0.6,0c-0.1,0-0.2,0-0.2-0.1c0,0-0.1-0.1-0.1-0.1c0,0,0-0.1-0.1-0.2
				c0-0.2-0.1-0.4-0.2-0.6l-1.3-2.9c-0.1-0.1-0.1-0.2,0-0.3c0-0.1,0.1-0.2,0.2-0.2c0.1,0,0.1,0,0.2,0c0,0,0.1,0.1,0.2,0.1
				c0.1,0.1,0.1,0.1,0.2,0.1c0.1,0,0.1,0,0.2,0c0.4-0.1,0.8-0.3,1.4-0.5c0.9-0.4,1.4-0.7,1.6-0.9c0,0,0.1-0.1,0.1-0.1
				c0,0,0-0.1,0-0.2c0-0.1,0-0.3,0.2-0.3c0.1,0,0.1,0,0.2,0c0.1,0,0.1,0.1,0.2,0.1C53.9,77.6,53.9,77.8,54.1,78L54.1,78z M54.8,85.6
				c-0.1-0.1-0.1-0.1-0.2-0.1c-0.1,0-0.2,0.1-0.3,0.2c-0.2,0.2-0.4,0.4-0.5,0.5c0,0-0.1,0.1-0.1,0.1c0,0,0,0.1,0,0.2
				c0,0.2,0,0.3-0.1,0.4c-0.1,0.1-0.3,0.1-0.5,0c-0.2-0.1-0.4-0.4-0.7-0.8c-0.5-0.7-0.7-1.2-0.4-1.4c0,0,0.1-0.1,0.1-0.1
				c0,0,0.1,0,0.2,0.1c0.1,0,0.2,0.1,0.3,0c0.1,0,0.2-0.1,0.4-0.2c0.1-0.1,0.6-0.5,1.5-1.1c0.3-0.2,0.4-0.4,0.5-0.5
				c0.1-0.1,0.1-0.2,0.1-0.3c0-0.1,0-0.2,0-0.3c0-0.1,0-0.1,0.1-0.1c0.1-0.1,0.2-0.1,0.3-0.1c0.1,0,0.2,0.1,0.3,0.1
				c0.1,0.1,0.2,0.2,0.3,0.3c0,0.1,0.2,0.2,0.3,0.5c0,0.1,0.1,0.1,0.2,0.2c0.1,0.2,0.3,0.4,0.6,0.7c0.2,0.2,0.3,0.3,0.3,0.4
				c0.3,0.4,0.5,0.9,0.5,1.3c0,0.4-0.2,0.7-0.5,1c-0.2,0.1-0.4,0.2-0.6,0.2c-0.2,0-0.4,0-0.6-0.1c-0.1,0-0.1,0-0.2,0
				c-0.1,0-0.1,0.1,0,0.3c0.1,0.3,0.1,0.5,0,0.7c-0.1,0.2-0.3,0.5-0.5,0.7c-0.1,0.1-0.2,0.2-0.2,0.3c0,0.1,0,0.2,0.1,0.3
				c0,0,0,0.1,0,0.2c0,0.1-0.1,0.1-0.1,0.1c-0.1,0-0.1,0.1-0.2,0.1c-0.1,0-0.2,0-0.3-0.1c-0.2-0.1-0.4-0.3-0.6-0.6
				c-0.3-0.4-0.4-0.7-0.3-1.1c0-0.1,0.1-0.3,0.2-0.5c0.1-0.2,0.3-0.4,0.5-0.7c0.2-0.2,0.2-0.3,0.3-0.5
				C54.9,85.8,54.9,85.7,54.8,85.6L54.8,85.6z M56.1,84.2l-0.7,0.5c0,0,0,0,0,0c-0.1,0.1-0.1,0.1-0.1,0.1c0,0,0,0.1,0.1,0.2
				c0.1,0.2,0.3,0.3,0.4,0.3c0.1,0,0.3-0.1,0.5-0.2c0.4-0.3,0.5-0.6,0.3-0.8c-0.1-0.1-0.1-0.1-0.2-0.1
				C56.3,84.2,56.2,84.2,56.1,84.2L56.1,84.2z M61.3,89.8l-3.5,1.5c-0.2,0.1-0.4,0.1-0.5,0.1c-0.1,0-0.2-0.1-0.3-0.1
				c-0.1-0.1-0.2-0.2-0.2-0.3c0-0.1,0-0.2,0-0.2c0-0.1,0-0.2,0.1-0.3l1.1-3.5c0.1-0.2,0.1-0.3,0.1-0.4c0-0.1,0-0.2-0.1-0.3
				c-0.1-0.1-0.1-0.2,0-0.4c0.1-0.1,0.3-0.2,0.6-0.1c0.3,0.1,0.6,0.3,0.9,0.6c0.4,0.3,0.6,0.6,0.7,0.8c0.1,0.2,0.1,0.4,0,0.5
				c-0.1,0.1-0.2,0.1-0.3,0.1c-0.1,0-0.2,0-0.2,0c0,0-0.1,0.1-0.1,0.2l-0.3,1.1c-0.1,0.2,0,0.3,0,0.3c0.1,0.1,0.1,0.1,0.2,0.1
				c0.1,0,0.3-0.1,0.5-0.2c0.4-0.2,0.7-0.3,0.7-0.4c0.1,0,0.1-0.1,0.2-0.1c0.1-0.1,0.1-0.2,0-0.3c-0.1-0.1,0-0.2,0-0.3
				c0.2-0.2,0.6-0.1,1.2,0.5c0.3,0.3,0.5,0.5,0.6,0.6c0.1,0.2,0.1,0.3,0,0.4c-0.1,0.1-0.3,0.1-0.4,0c-0.1-0.1-0.2-0.1-0.3-0.1
				C61.7,89.7,61.6,89.7,61.3,89.8L61.3,89.8z M64.3,90.3c0.2,0.2,0.4,0.3,0.6,0.5c0.2,0.2,0.3,0.5,0.2,0.6c0,0.1-0.1,0.1-0.1,0.1
				c0,0-0.1,0-0.3,0c-0.1,0-0.3,0-0.4,0.2c-0.1,0.1-0.4,0.4-0.7,0.9c-0.5,0.8-0.8,1.3-0.9,1.5c0,0.1,0,0.1,0,0.2
				c0,0.1,0,0.1,0.1,0.2c0.1,0.2,0.1,0.3,0,0.4c-0.1,0.2-0.3,0.2-0.6,0.1c-0.3-0.1-0.7-0.3-1.1-0.6c-0.7-0.4-0.9-0.8-0.7-1.1
				c0.1-0.1,0.2-0.1,0.4-0.1c0.1,0,0.3,0,0.3-0.1c0.2-0.2,0.5-0.7,1-1.5c0.3-0.5,0.5-0.9,0.6-1.1c0-0.1,0-0.2-0.1-0.4
				c0-0.1-0.1-0.2-0.1-0.3c0-0.1,0-0.1,0-0.2c0.1-0.1,0.1-0.1,0.3-0.1c0.1,0,0.3,0.1,0.5,0.2C63.8,90,64.1,90.1,64.3,90.3z M67.5,92
				c0.3,0.2,0.6,0.4,0.8,0.7c0.1,0.1,0.2,0.2,0.2,0.2c0,0,0.1,0,0.2,0.1c0,0,0.1,0,0.1,0c0.1,0.1,0.2,0.2,0.2,0.3
				c0.1,0.4,0,0.7-0.1,1.1c-0.1,0.3-0.3,0.4-0.6,0.5c-0.1,0-0.3,0-0.4-0.1c-0.1-0.1-0.2-0.1-0.2-0.2c0-0.1-0.1-0.2-0.1-0.4
				c0-0.2,0-0.4-0.1-0.5c0-0.1-0.1-0.2-0.1-0.3c-0.1-0.3-0.3-0.4-0.6-0.6c-0.2-0.1-0.4-0.1-0.7,0c-0.2,0.1-0.4,0.3-0.5,0.6
				c-0.2,0.4-0.3,0.8-0.2,1.2c0.1,0.6,0.3,1,0.8,1.2C66.6,96,66.8,96,67,96c0.2,0,0.4,0,0.5,0c0.1,0,0.2,0,0.3,0
				c0.1,0,0.1,0.1,0.1,0.2c0,0.1,0,0.2,0,0.3c-0.1,0.1-0.2,0.3-0.3,0.4c-0.2,0.1-0.3,0.2-0.5,0.2c-0.1,0-0.2,0-0.3,0
				c-0.1,0-0.2,0-0.4,0c-0.4,0-0.8-0.1-1.1-0.3c-0.4-0.2-0.7-0.4-1-0.8c-0.3-0.4-0.5-0.9-0.6-1.4c-0.1-0.5,0-1,0.2-1.4
				c0.2-0.5,0.6-0.9,1.1-1.1c0.4-0.2,0.9-0.3,1.4-0.3C66.8,91.7,67.2,91.8,67.5,92L67.5,92z M70.2,93.3l1.8,0.5
				c0.4,0.1,0.6,0.2,0.8,0.2c0.2,0,0.3,0,0.5,0c0.1,0,0.1,0,0.1,0c0.1,0,0.2,0.1,0.3,0.3c0.1,0.3,0.1,0.5,0,0.9
				c0,0.2-0.1,0.3-0.2,0.3c-0.1,0.1-0.2,0.1-0.3,0.1c-0.1,0-0.1-0.1-0.2-0.1c0,0-0.1-0.1-0.1-0.3c-0.1-0.2-0.2-0.3-0.3-0.4
				c-0.1-0.1-0.4-0.2-0.8-0.3c-0.3-0.1-0.4-0.1-0.5,0c0,0-0.1,0.1-0.1,0.2c0,0.1-0.1,0.3-0.2,0.7c0,0.1,0,0.2,0,0.3
				c0,0,0.2,0.1,0.4,0.2c0.1,0,0.2,0,0.2,0c0.1,0,0.1-0.1,0.1-0.2c0.1-0.1,0.1-0.2,0.1-0.3c0,0,0.1-0.1,0.1-0.1c0.1,0,0.1,0,0.2,0
				c0.1,0,0.2,0.1,0.2,0.2c0,0.1,0,0.2,0,0.4c0,0.2,0,0.4-0.1,0.6c-0.1,0.4-0.3,0.7-0.4,0.9c-0.1,0.1-0.2,0.2-0.3,0.1
				c-0.1,0-0.1-0.1-0.1-0.1c0-0.1,0-0.1,0-0.3c0-0.3-0.1-0.5-0.4-0.5c-0.1,0-0.2,0-0.2,0c-0.1,0.1-0.1,0.2-0.2,0.4
				c0,0.1-0.1,0.3-0.1,0.4c0,0.2-0.1,0.3-0.1,0.4c0,0.1,0,0.1,0.1,0.2c0.1,0.1,0.2,0.1,0.5,0.2c0.4,0.1,0.6,0.1,0.8,0.1
				c0.2,0,0.4-0.2,0.6-0.4c0.1-0.1,0.2-0.2,0.3-0.2c0.1,0,0.1,0,0.2,0c0.1,0,0.2,0.1,0.2,0.2c0,0.1,0,0.2,0,0.4
				c0,0.1-0.1,0.3-0.3,0.5c-0.1,0.2-0.3,0.4-0.4,0.5c-0.1,0.1-0.1,0.1-0.2,0.1c0,0-0.1,0-0.1,0c0,0-0.1,0-0.2-0.1
				c-0.1-0.1-0.3-0.1-0.6-0.2l-3-0.9c-0.1,0-0.2-0.1-0.3-0.2c0-0.1-0.1-0.2,0-0.3c0-0.1,0-0.1,0.1-0.1c0,0,0.1,0,0.2-0.1
				c0.1,0,0.1,0,0.2-0.1c0,0,0.1-0.1,0.1-0.2c0.2-0.3,0.4-0.8,0.5-1.4c0.3-0.9,0.4-1.5,0.3-1.8c0-0.1,0-0.1,0-0.1
				c0,0-0.1-0.1-0.2-0.1c-0.1-0.1-0.2-0.2-0.1-0.3c0-0.1,0.1-0.1,0.1-0.2c0.1,0,0.1-0.1,0.2-0.1C69.7,93.2,69.9,93.2,70.2,93.3
				L70.2,93.3z M76.9,100.1l-0.5-0.1c-0.3,0-0.6-0.1-0.8-0.1c-0.1,0-0.2,0-0.3,0c-0.1,0-0.3-0.1-0.3-0.2c-0.1-0.1-0.1-0.2-0.1-0.3
				c0-0.1,0-0.1,0.1-0.2c0,0,0.1-0.1,0.2-0.2c0.1,0,0.1-0.1,0.2-0.2c0-0.1,0.1-0.3,0.2-0.7c0.1-0.5,0.2-1.2,0.3-2c0-0.3,0-0.5,0-0.6
				c0-0.1-0.1-0.2-0.2-0.3c-0.2-0.1-0.2-0.2-0.2-0.3c0-0.1,0.1-0.2,0.2-0.3c0.1-0.1,0.2-0.1,0.4-0.1c0.1,0,0.2,0,0.3,0
				c0.2,0,0.4,0.1,0.7,0.1c0.2,0,0.5,0.1,1.1,0.1c0.2,0,0.3,0,0.5,0c0.3,0,0.6,0.1,0.8,0.2c0.2,0.1,0.4,0.2,0.5,0.3
				c0.2,0.2,0.3,0.5,0.3,0.9c0,0.2-0.1,0.3-0.2,0.5c-0.1,0.2-0.2,0.3-0.3,0.4c-0.1,0.1-0.1,0.1-0.1,0.2c0,0.1,0,0.1,0.1,0.2
				c0.2,0.1,0.4,0.3,0.5,0.5c0.1,0.2,0.2,0.5,0.2,0.8c0,0.4-0.2,0.7-0.5,0.9c-0.4,0.4-0.9,0.5-1.6,0.4c-0.1,0-0.3,0-0.7-0.1
				C77.1,100.1,76.9,100.1,76.9,100.1L76.9,100.1z M77.5,96.1l-0.1,0.8c0,0.1,0,0.2,0,0.3c0,0.1,0.1,0.1,0.1,0.1
				c0.2,0,0.3,0,0.4-0.1c0.1-0.1,0.2-0.3,0.2-0.5c0-0.2,0-0.4-0.1-0.6c-0.1-0.1-0.2-0.2-0.4-0.2c-0.1,0-0.1,0-0.2,0.1
				C77.6,95.9,77.6,96,77.5,96.1z M77.3,98.2l0,0.4c0,0.3,0,0.5,0,0.7c0,0.1,0.1,0.2,0.3,0.2c0.4,0,0.6-0.2,0.6-0.6
				c0.1-0.5-0.1-0.8-0.5-0.9c-0.1,0-0.2,0-0.2,0C77.4,98,77.3,98.1,77.3,98.2L77.3,98.2z M80.9,95.3l1.9,0c0.4,0,0.7,0,0.8,0
				c0.2,0,0.3-0.1,0.5-0.1c0.1,0,0.1,0,0.1,0c0.1,0,0.2,0.1,0.3,0.2c0.2,0.2,0.2,0.5,0.3,0.8c0,0.2,0,0.3-0.1,0.4
				c-0.1,0.1-0.2,0.1-0.3,0.1c-0.1,0-0.1,0-0.2,0c0,0-0.1-0.1-0.2-0.2c-0.1-0.2-0.2-0.3-0.4-0.3C83.5,96,83.2,96,82.9,96
				c-0.3,0-0.5,0.1-0.5,0.2c0,0.1,0,0.1-0.1,0.2c0,0.1,0,0.3,0,0.7c0,0.1,0,0.2,0.1,0.3c0,0,0.2,0.1,0.4,0c0.1,0,0.2,0,0.2-0.1
				c0,0,0.1-0.1,0.1-0.2c0-0.1,0-0.2,0-0.3c0-0.1,0.1-0.1,0.1-0.1c0.1,0,0.1-0.1,0.2-0.1c0.1,0,0.2,0,0.3,0.1
				c0.1,0.1,0.1,0.2,0.1,0.4c0,0.2,0.1,0.4,0.1,0.6c0,0.4-0.1,0.7-0.2,1c-0.1,0.1-0.2,0.2-0.3,0.2c-0.1,0-0.1,0-0.2-0.1
				c0,0-0.1-0.1-0.1-0.3c0-0.3-0.2-0.4-0.5-0.4c-0.1,0-0.2,0-0.2,0.1c0,0.1-0.1,0.2-0.1,0.4c0,0.1,0,0.3,0,0.5c0,0.2,0,0.3,0.1,0.4
				c0,0.1,0.1,0.1,0.2,0.2c0.1,0,0.3,0,0.5,0c0.4,0,0.6-0.1,0.8-0.2c0.2-0.1,0.3-0.3,0.4-0.5c0.1-0.1,0.1-0.2,0.2-0.3
				c0.1-0.1,0.1-0.1,0.2-0.1c0.1,0,0.2,0,0.3,0.1c0.1,0.1,0.1,0.2,0.1,0.3c0,0.1,0,0.3-0.1,0.6c-0.1,0.2-0.2,0.4-0.3,0.6
				c-0.1,0.1-0.1,0.1-0.1,0.2c0,0-0.1,0-0.1,0c0,0-0.1,0-0.2,0c-0.2,0-0.4,0-0.6,0l-3.1,0.1c-0.1,0-0.2,0-0.3-0.1
				c-0.1-0.1-0.1-0.1-0.1-0.2c0-0.1,0-0.1,0-0.2c0,0,0.1-0.1,0.2-0.1c0.1,0,0.1-0.1,0.2-0.1c0,0,0.1-0.1,0.1-0.2
				c0.1-0.4,0.1-0.9,0.1-1.5c0-1-0.1-1.6-0.2-1.8c0,0-0.1-0.1-0.1-0.1c0,0-0.1,0-0.2-0.1c-0.1,0-0.2-0.1-0.2-0.3
				c0-0.1,0-0.2,0.1-0.2c0-0.1,0.1-0.1,0.2-0.1C80.4,95.3,80.6,95.3,80.9,95.3L80.9,95.3z M87.5,95.7c-0.2,0-0.3,0.1-0.3,0.2
				c0,0.1,0,0.2,0,0.4c0,0.2,0,0.4,0,0.5c0,0.1,0,0.1,0.1,0.2c0.1,0,0.2,0,0.3,0c0.1,0,0.2,0,0.2-0.1c0,0,0.1-0.1,0.1-0.2
				c0-0.3,0.1-0.4,0.3-0.5c0.3,0,0.5,0.3,0.6,1c0.1,0.5,0,0.8-0.1,1c-0.1,0.1-0.2,0.2-0.3,0.2c-0.1,0-0.2-0.1-0.3-0.3
				c0-0.1-0.1-0.2-0.1-0.3c0,0-0.1-0.1-0.1-0.1c-0.1-0.1-0.2-0.1-0.4-0.1c-0.1,0-0.2,0-0.2,0.1c0,0,0,0.1,0,0.2c0,0,0,0.1,0,0.3
				c0.1,0.4,0.1,0.7,0.2,0.8c0,0,0.1,0.1,0.1,0.1c0,0,0.1,0,0.2,0c0.1,0,0.1,0,0.2,0.1c0.1,0.1,0.1,0.1,0.1,0.2
				c0,0.2-0.1,0.3-0.3,0.4c-0.3,0.1-0.7,0.2-1.3,0.3c-0.5,0.1-0.8,0.1-1,0.1c-0.1,0-0.2-0.1-0.2-0.1c-0.1-0.1-0.1-0.1-0.1-0.2
				c0-0.1,0-0.2,0.1-0.3c0,0,0.1-0.1,0.2-0.1c0.1-0.1,0.2-0.2,0.2-0.4c0-0.3-0.1-1-0.2-2.1c-0.1-0.5-0.1-0.8-0.2-0.9
				c0-0.1-0.1-0.2-0.3-0.3c-0.1,0-0.2-0.1-0.3-0.1c0,0-0.1-0.1-0.1-0.2c0-0.1,0-0.2,0.1-0.3c0.1-0.1,0.2-0.1,0.4-0.2
				c0.1,0,0.2,0,0.4,0c0.4,0,0.9-0.1,1.4-0.2c0.9-0.1,1.5-0.2,1.8-0.3c0,0,0.1,0,0.1,0c0.1,0,0.2,0,0.3,0.1c0.3,0.2,0.4,0.5,0.4,0.9
				c0,0.2,0,0.3-0.1,0.4c-0.1,0.1-0.1,0.2-0.3,0.2c-0.1,0-0.2,0-0.2,0c0,0-0.2-0.1-0.4-0.3c-0.1-0.1-0.3-0.2-0.4-0.2
				C88.2,95.6,87.9,95.6,87.5,95.7L87.5,95.7z M92,93.8c0.6-0.2,1.2-0.1,1.7,0.1c0.4,0.2,0.7,0.4,1,0.7c0.3,0.3,0.5,0.7,0.6,1.1
				c0.1,0.6,0.1,1.1-0.2,1.7c-0.2,0.5-0.5,0.8-1,1.2c-0.3,0.2-0.6,0.3-0.9,0.4c-0.4,0.1-0.8,0.1-1.2,0.1c-0.5-0.1-0.9-0.3-1.3-0.7
				c-0.4-0.3-0.6-0.8-0.7-1.2c-0.2-0.6-0.1-1.1,0.1-1.6c0.2-0.5,0.5-0.9,0.9-1.2C91.3,94.1,91.6,93.9,92,93.8L92,93.8z M92,95
				c-0.2,0.1-0.3,0.2-0.4,0.4c-0.1,0.2-0.1,0.3,0,0.5c0.1,0.3,0.2,0.6,0.4,0.9c0.2,0.3,0.4,0.6,0.7,0.8c0.1,0.1,0.2,0.2,0.3,0.2
				c0.1,0,0.2,0,0.4,0c0.2,0,0.3-0.2,0.4-0.3c0.1-0.2,0.1-0.4,0-0.6c-0.1-0.3-0.2-0.6-0.4-0.9c-0.2-0.3-0.4-0.6-0.6-0.8
				c-0.1-0.1-0.3-0.2-0.4-0.3C92.2,94.9,92.1,94.9,92,95z"/>
			<path id="path38" class="st3" d="M97.6,95.1c-0.1,0-0.1,0.1-0.1,0.2c0,0.1,0,0.2,0.1,0.4c0.1,0.3,0.2,0.5,0.4,0.6
				c0,0,0.1,0.1,0.1,0.1c0,0,0.1,0,0.2,0c0.2,0,0.3,0.1,0.3,0.2c0.1,0.1,0,0.3-0.1,0.4c-0.2,0.1-0.5,0.3-0.9,0.5
				C96.7,98,96.2,98,96,97.7c0-0.1,0-0.1,0-0.1c0,0,0-0.1,0.1-0.2c0.1-0.1,0.1-0.2,0.1-0.3c0-0.1-0.1-0.3-0.1-0.5
				c-0.1-0.2-0.3-0.7-0.8-1.7c-0.1-0.3-0.3-0.5-0.3-0.6C94.9,94,94.8,94,94.7,94c-0.1,0-0.2,0-0.3,0c-0.1,0-0.1-0.1-0.1-0.1
				c0-0.1,0-0.2,0-0.3c0-0.1,0.1-0.2,0.2-0.3c0.1-0.1,0.2-0.1,0.4-0.2c0.1,0,0.3-0.1,0.6-0.2c0.1,0,0.1-0.1,0.3-0.1
				c0.2-0.1,0.5-0.2,0.8-0.4c0.2-0.1,0.3-0.2,0.4-0.2c0.5-0.2,0.9-0.3,1.3-0.2c0.4,0.1,0.6,0.3,0.8,0.7c0.1,0.2,0.1,0.4,0.1,0.6
				c0,0.2-0.1,0.4-0.2,0.6c-0.1,0.1-0.1,0.1,0,0.2c0,0.1,0.1,0.1,0.2,0.1c0.3,0,0.5,0,0.7,0.1c0.2,0.1,0.4,0.4,0.6,0.7
				c0.1,0.1,0.2,0.2,0.2,0.2c0.1,0,0.2,0,0.3,0c0,0,0.1,0,0.1,0c0,0,0.1,0.1,0.1,0.1c0,0.1,0,0.2,0,0.2c0,0.1-0.1,0.2-0.1,0.3
				c-0.1,0.2-0.4,0.3-0.7,0.5c-0.4,0.2-0.8,0.2-1.1,0.1c-0.1-0.1-0.3-0.2-0.4-0.3c-0.1-0.1-0.3-0.3-0.5-0.6
				c-0.1-0.2-0.3-0.3-0.4-0.4C97.8,95,97.7,95,97.6,95.1L97.6,95.1z M96.6,93.5l0.3,0.8c0,0,0,0,0,0c0,0.1,0.1,0.1,0.1,0.1
				c0,0,0.1,0,0.2,0c0.2-0.1,0.3-0.2,0.4-0.4c0-0.1,0-0.3-0.1-0.6c-0.2-0.4-0.4-0.6-0.8-0.4c-0.1,0-0.1,0.1-0.2,0.1
				C96.5,93.3,96.5,93.3,96.6,93.5z M99.5,90.8l1.6-1c0.3-0.2,0.6-0.4,0.7-0.5c0.1-0.1,0.3-0.2,0.4-0.4c0,0,0.1-0.1,0.1-0.1
				c0.1-0.1,0.2-0.1,0.4,0c0.3,0.1,0.5,0.3,0.6,0.6c0.1,0.1,0.1,0.3,0.1,0.4c0,0.1-0.1,0.2-0.2,0.3c-0.1,0-0.1,0.1-0.2,0.1
				c-0.1,0-0.1,0-0.3-0.1c-0.2-0.1-0.4-0.1-0.5-0.1c-0.2,0-0.4,0.2-0.7,0.4c-0.2,0.2-0.4,0.3-0.4,0.4c0,0.1,0,0.1,0.1,0.2
				c0,0.1,0.2,0.3,0.4,0.6c0.1,0.1,0.1,0.2,0.2,0.2c0.1,0,0.2,0,0.4-0.2c0.1-0.1,0.1-0.1,0.2-0.2c0-0.1,0-0.1,0-0.2
				c-0.1-0.1-0.1-0.2-0.1-0.3c0-0.1,0-0.1,0-0.2c0-0.1,0.1-0.1,0.1-0.2c0.1-0.1,0.2-0.1,0.3,0c0.1,0,0.2,0.1,0.3,0.3
				c0.1,0.1,0.2,0.3,0.3,0.5c0.2,0.3,0.3,0.6,0.4,0.9c0,0.2,0,0.3-0.1,0.3c-0.1,0-0.1,0.1-0.2,0c0,0-0.1-0.1-0.2-0.2
				c-0.2-0.2-0.4-0.2-0.6-0.1c-0.1,0.1-0.1,0.1-0.1,0.2c0,0.1,0.1,0.2,0.2,0.4c0.1,0.1,0.1,0.2,0.3,0.4c0.1,0.1,0.2,0.2,0.2,0.3
				c0.1,0.1,0.1,0.1,0.2,0c0.1,0,0.3-0.1,0.5-0.2c0.3-0.2,0.5-0.4,0.6-0.6c0.1-0.2,0.1-0.4,0.1-0.7c0-0.2,0-0.3,0-0.3
				c0-0.1,0.1-0.1,0.1-0.2c0.1-0.1,0.2-0.1,0.3,0c0.1,0,0.2,0.1,0.3,0.2c0.1,0.1,0.1,0.3,0.2,0.5c0.1,0.2,0.1,0.4,0.1,0.7
				c0,0.1,0,0.2,0,0.2c0,0,0,0.1-0.1,0.1c0,0-0.1,0.1-0.2,0.1c-0.1,0.1-0.3,0.2-0.6,0.3l-2.6,1.7c-0.1,0.1-0.2,0.1-0.3,0.1
				c-0.1,0-0.2-0.1-0.2-0.1c0-0.1-0.1-0.1,0-0.2c0,0,0-0.1,0.1-0.2c0-0.1,0.1-0.1,0.1-0.2c0-0.1,0-0.1,0-0.2
				c-0.1-0.4-0.4-0.8-0.7-1.4c-0.5-0.8-0.9-1.3-1.1-1.4c0,0-0.1,0-0.1,0c0,0-0.1,0-0.2,0c-0.1,0-0.2,0-0.3-0.1
				c0-0.1-0.1-0.1-0.1-0.2c0-0.1,0-0.1,0.1-0.2C99.1,91.1,99.3,91,99.5,90.8L99.5,90.8z M105.4,86.3c0.2-0.2,0.5-0.4,0.8-0.6
				c0,0,0.1,0,0.1-0.1c0,0,0.1-0.1,0.1-0.2c0,0,0-0.1,0.1-0.1c0.1-0.1,0.3-0.2,0.6-0.1c0.3,0.1,0.6,0.2,0.7,0.3
				c0.1,0.1,0.2,0.2,0.2,0.3c0,0.1,0,0.2-0.1,0.3c-0.1,0.1-0.1,0.1-0.2,0.1c-0.1,0-0.2,0-0.5,0c-0.4,0-0.7,0.1-0.9,0.3
				c-0.1,0.1-0.1,0.2-0.2,0.3c0,0.1,0,0.2,0.1,0.3c0.2,0.2,0.4,0.1,0.7-0.1c0.5-0.3,0.8-0.4,0.9-0.5c0.7-0.2,1.2-0.1,1.6,0.3
				c0.4,0.4,0.5,0.8,0.5,1.4c-0.1,0.6-0.3,1.1-0.8,1.6c-0.2,0.2-0.5,0.4-0.8,0.6c-0.3,0.2-0.5,0.3-0.7,0.4c-0.1,0-0.3,0-0.6-0.1
				c-0.3-0.1-0.5-0.3-0.6-0.4c-0.1-0.1-0.1-0.2-0.1-0.2c0-0.1,0-0.2,0.1-0.3c0.1-0.1,0.2-0.1,0.3-0.1c0.1,0,0.3,0,0.6,0.1
				c0.2,0,0.3,0,0.5-0.1c0.2-0.1,0.4-0.2,0.5-0.3c0.1-0.1,0.2-0.3,0.2-0.4c0-0.1,0-0.2-0.1-0.3c-0.1-0.1-0.2-0.1-0.3-0.1
				c-0.1,0-0.3,0.1-0.4,0.2c-0.3,0.2-0.6,0.3-0.8,0.4c-0.2,0.1-0.4,0.1-0.6,0.1c-0.5,0-0.9-0.1-1.2-0.4c-0.2-0.2-0.3-0.3-0.3-0.6
				c-0.1-0.2-0.1-0.4-0.1-0.7C104.8,87.2,105,86.7,105.4,86.3L105.4,86.3z M107.3,84.4l1.1-1.6c0.2-0.3,0.4-0.5,0.5-0.7
				c0.1-0.2,0.2-0.3,0.2-0.5c0-0.1,0-0.1,0.1-0.1c0.1-0.1,0.2-0.2,0.4-0.2c0.3,0,0.5,0.1,0.8,0.3c0.1,0.1,0.2,0.2,0.2,0.3
				c0,0.1,0,0.2-0.1,0.3c0,0.1-0.1,0.1-0.2,0.1c-0.1,0-0.1,0-0.3,0c-0.2,0-0.4,0-0.5,0.1c-0.1,0.1-0.3,0.3-0.5,0.6
				c-0.2,0.2-0.2,0.4-0.2,0.5c0,0.1,0.1,0.1,0.1,0.2c0.1,0.1,0.3,0.2,0.6,0.4c0.1,0.1,0.2,0.1,0.3,0.1c0.1,0,0.1-0.1,0.3-0.3
				c0.1-0.1,0.1-0.2,0.1-0.2c0-0.1-0.1-0.1-0.1-0.2c-0.1-0.1-0.2-0.2-0.2-0.2c0,0,0-0.1-0.1-0.2c0-0.1,0-0.1,0.1-0.2
				c0.1-0.1,0.1-0.1,0.3-0.1c0.1,0,0.2,0,0.4,0.1c0.2,0.1,0.3,0.2,0.5,0.3c0.3,0.2,0.5,0.5,0.7,0.7c0.1,0.1,0.1,0.3,0,0.4
				c0,0.1-0.1,0.1-0.2,0.1c-0.1,0-0.1,0-0.3-0.1c-0.2-0.1-0.5-0.1-0.6,0.2c-0.1,0.1-0.1,0.2,0,0.2c0,0.1,0.1,0.2,0.3,0.3
				c0.1,0.1,0.2,0.2,0.4,0.2c0.2,0.1,0.3,0.2,0.3,0.2c0.1,0,0.1,0,0.2-0.1c0.1-0.1,0.2-0.2,0.3-0.4c0.2-0.3,0.3-0.6,0.4-0.8
				c0-0.2,0-0.4-0.1-0.7c-0.1-0.1-0.1-0.2-0.1-0.3c0-0.1,0-0.1,0.1-0.2c0.1-0.1,0.1-0.1,0.3-0.1c0.1,0,0.2,0,0.3,0.1
				c0.1,0.1,0.2,0.2,0.4,0.4c0.1,0.2,0.2,0.4,0.3,0.6c0,0.1,0.1,0.2,0.1,0.2c0,0,0,0.1,0,0.1c0,0-0.1,0.1-0.1,0.2
				c-0.1,0.1-0.3,0.3-0.4,0.5l-1.8,2.6c-0.1,0.1-0.2,0.2-0.2,0.2c-0.1,0-0.2,0-0.2-0.1c-0.1,0-0.1-0.1-0.1-0.1c0,0,0-0.1,0-0.2
				c0-0.1,0-0.1,0-0.2c0-0.1-0.1-0.1-0.1-0.2c-0.3-0.3-0.6-0.6-1.1-1c-0.8-0.6-1.3-0.9-1.5-0.9c-0.1,0-0.1,0-0.1,0
				c0,0-0.1,0-0.2,0.1c-0.1,0.1-0.2,0.1-0.3,0c-0.1,0-0.1-0.1-0.1-0.2c0-0.1,0-0.1,0-0.2C107.1,84.8,107.2,84.6,107.3,84.4
				L107.3,84.4z M112.2,79.5l1.5,0.7c0.3,0.2,0.6,0.2,0.7,0.2c0.2,0,0.3-0.2,0.4-0.4c0.1-0.3,0.1-0.5,0.1-0.7c0-0.2-0.2-0.4-0.4-0.5
				c-0.1-0.1-0.2-0.2-0.1-0.3c0.1-0.1,0.1-0.2,0.3-0.2c0.1,0,0.3,0,0.5,0.1c0.3,0.1,0.5,0.4,0.8,0.7c0.1,0.1,0.1,0.2,0.1,0.3
				c0,0.1,0,0.1,0,0.2l-0.4,0.7l-1,2.4c-0.1,0.2-0.1,0.3-0.2,0.3c-0.1,0.1-0.2,0.1-0.3,0c-0.1,0-0.1-0.1-0.1-0.1c0,0,0-0.1,0-0.3
				c0-0.2-0.1-0.3-0.1-0.4c-0.1-0.1-0.3-0.2-0.8-0.4c-0.2-0.1-0.5-0.2-0.9-0.4c-0.4-0.2-0.7-0.3-0.8-0.4c-0.2-0.1-0.3-0.1-0.4-0.1
				c-0.1,0-0.2,0-0.2,0.1c-0.1,0.1-0.2,0.2-0.2,0.2c-0.1,0-0.2,0.1-0.2,0c-0.2-0.1-0.2-0.3-0.2-0.6c0-0.3,0.1-0.6,0.3-1
				c0.2-0.4,0.4-0.8,0.5-1c0.2-0.3,0.4-0.3,0.5-0.3c0.1,0,0.1,0.1,0.1,0.1c0,0.1,0,0.2,0,0.3c0,0.1,0,0.2,0.1,0.3
				C111.7,79.3,111.8,79.4,112.2,79.5L112.2,79.5z M112.7,75c0,0.2,0,0.3,0.1,0.3c0.1,0,0.2,0.1,0.3,0.2c0.2,0.1,0.3,0.1,0.5,0.2
				c0.1,0,0.2,0,0.2,0c0-0.1,0.1-0.2,0.1-0.3c0-0.1,0-0.2,0-0.2c0-0.1-0.1-0.1-0.2-0.2c-0.2-0.1-0.3-0.3-0.3-0.4
				c0.1-0.3,0.5-0.4,1.1-0.2c0.4,0.1,0.7,0.3,0.9,0.4c0.1,0.1,0.1,0.2,0.1,0.4c0,0.1-0.1,0.2-0.3,0.2c-0.1,0-0.2,0-0.3,0
				c-0.1,0-0.1,0-0.2,0.1c-0.1,0.1-0.2,0.2-0.2,0.3c0,0.1,0,0.2,0,0.2c0,0,0.1,0.1,0.2,0.1c0,0,0.1,0,0.3,0.1
				c0.4,0.1,0.7,0.1,0.8,0.1c0,0,0.1,0,0.1-0.1c0,0,0.1-0.1,0.1-0.2c0-0.1,0.1-0.1,0.1-0.1c0.1,0,0.1,0,0.2,0c0.2,0,0.3,0.2,0.3,0.4
				c0,0.3-0.1,0.8-0.2,1.4c-0.1,0.5-0.2,0.8-0.3,1c0,0.1-0.1,0.1-0.2,0.2c-0.1,0-0.2,0-0.2,0c-0.1,0-0.2-0.1-0.2-0.2
				c0,0,0-0.1,0-0.2c0-0.1-0.1-0.3-0.3-0.3c-0.3-0.1-0.9-0.3-2-0.6c-0.4-0.1-0.7-0.2-0.9-0.2c-0.1,0-0.3,0.1-0.3,0.2
				c-0.1,0.1-0.1,0.2-0.2,0.2c0,0-0.1,0-0.2,0c-0.1,0-0.2-0.1-0.2-0.2c0-0.1,0-0.3,0-0.4c0-0.1,0.1-0.2,0.1-0.4
				c0.1-0.4,0.3-0.9,0.4-1.4c0.2-0.9,0.3-1.5,0.4-1.8c0,0,0-0.1,0-0.1c0-0.1,0.1-0.2,0.2-0.2c0.3-0.1,0.6-0.2,1-0.1
				c0.1,0,0.3,0.1,0.3,0.2c0.1,0.1,0.1,0.2,0.1,0.3c0,0.1-0.1,0.1-0.1,0.2c0,0-0.2,0.1-0.4,0.2c-0.1,0.1-0.3,0.2-0.3,0.3
				C112.9,74.3,112.8,74.5,112.7,75L112.7,75z"/>
		</g>
	</g>
</g>
</svg>
