<?xml version="1.0" standalone="no"?>
<!DOCTYPE svg PUBLIC "-//W3C//DTD SVG 20010904//EN"
 "http://www.w3.org/TR/2001/REC-SVG-20010904/DTD/svg10.dtd">
<svg version="1.0" xmlns="http://www.w3.org/2000/svg"
 width="163.000000pt" height="40.000000pt" viewBox="0 0 163.000000 40.000000"
 preserveAspectRatio="xMidYMid meet">

<g transform="translate(0.000000,40.000000) scale(0.100000,-0.100000)"
fill="#000000" stroke="none">
<path d="M175 371 c-45 -20 -105 -68 -105 -83 0 -5 20 8 44 29 53 46 101 63
182 63 70 0 149 -33 182 -75 12 -16 25 -25 29 -22 11 12 -69 76 -115 92 -62
21 -167 19 -217 -4z"/>
<path d="M594 349 c-4 -7 4 -20 17 -31 l24 -20 -22 5 c-24 5 -32 -8 -10 -16
31 -11 53 27 22 39 -8 4 -15 10 -15 15 0 4 7 5 17 2 11 -4 14 -3 9 5 -9 15
-33 15 -42 1z"/>
<path d="M663 320 c0 -25 2 -35 4 -22 5 24 33 31 33 7 0 -8 5 -15 10 -15 6 0
10 16 10 35 0 19 -4 35 -10 35 -5 0 -10 -7 -10 -15 0 -21 -28 -19 -33 3 -3 9
-5 -3 -4 -28z"/>
<path d="M730 325 c0 -19 5 -35 10 -35 6 0 10 16 10 35 0 19 -4 35 -10 35 -5
0 -10 -16 -10 -35z"/>
<path d="M760 325 c0 -23 6 -38 15 -42 22 -8 33 6 15 18 -13 8 -13 10 0 19 10
6 11 10 3 10 -19 0 -16 18 5 23 10 3 6 5 -10 6 -26 1 -28 -2 -28 -34z"/>
<path d="M822 323 c-2 -32 2 -43 12 -43 8 0 18 5 21 10 3 6 -1 10 -9 10 -9 0
-16 12 -19 33 -3 28 -4 26 -5 -10z"/>
<path d="M870 320 c0 -45 -1 -44 34 -30 46 17 31 70 -20 70 -10 0 -14 -12 -14
-40z m40 15 c14 -16 6 -35 -16 -35 -8 0 -14 10 -14 25 0 28 12 32 30 10z"/>
<path d="M977 353 c-12 -12 -7 -33 7 -33 8 0 18 -5 22 -12 5 -8 0 -9 -14 -6
-23 6 -31 -7 -9 -15 31 -11 53 27 22 39 -8 4 -15 10 -15 15 0 4 7 5 17 2 11
-4 14 -3 9 5 -8 13 -29 16 -39 5z"/>
<path d="M1037 353 c-4 -3 -7 -19 -7 -35 0 -31 24 -48 43 -29 8 8 7 11 -6 11
-20 0 -23 16 -4 23 10 4 10 6 0 6 -19 1 -16 19 5 24 14 4 13 5 -4 6 -11 0 -24
-2 -27 -6z"/>
<path d="M1103 353 c-20 -7 -15 -51 6 -62 13 -7 23 -6 37 5 18 13 17 14 -7 8
-16 -3 -30 -1 -34 6 -11 17 13 38 38 33 18 -4 19 -3 7 6 -16 11 -27 12 -47 4z"/>
<path d="M1170 330 c0 -18 7 -33 18 -38 28 -15 42 -3 41 36 -1 35 -2 36 -8 8
-9 -41 -31 -46 -31 -7 0 17 -4 31 -10 31 -5 0 -10 -13 -10 -30z"/>
<path d="M1251 318 c1 -24 3 -35 6 -25 4 17 6 17 22 3 17 -16 18 -14 17 21 -1
31 -5 39 -23 41 -21 3 -23 0 -22 -40z m34 22 c3 -5 -1 -10 -9 -10 -9 0 -16 5
-16 10 0 6 4 10 9 10 6 0 13 -4 16 -10z"/>
<path d="M1323 320 c0 -25 2 -35 4 -22 2 12 2 32 0 45 -2 12 -4 2 -4 -23z"/>
<path d="M1348 353 c6 -2 12 -18 12 -34 0 -16 5 -29 10 -29 6 0 10 14 10 30 0
42 26 39 41 -5 l13 -34 13 37 c16 47 16 52 -2 28 -13 -17 -15 -17 -21 -3 -4
12 -18 17 -48 16 -22 0 -35 -3 -28 -6z"/>
<path d="M1506 328 c-7 -38 -6 -39 34 -42 23 -2 29 1 25 12 -3 7 -5 16 -5 18
0 2 -6 4 -14 4 -8 0 -17 7 -20 16 -5 12 -2 15 9 10 9 -3 13 -2 10 4 -13 20
-33 9 -39 -22z m29 -18 c3 -5 -1 -10 -9 -10 -9 0 -16 5 -16 10 0 6 4 10 9 10
6 0 13 -4 16 -10z"/>
<path d="M186 315 c4 -8 10 -15 15 -15 5 0 9 7 9 15 0 8 -7 15 -15 15 -9 0
-12 -6 -9 -15z"/>
<path d="M220 317 c0 -8 7 -14 15 -14 8 0 16 6 19 14 3 8 -2 13 -14 13 -11 0
-20 -6 -20 -13z"/>
<path d="M271 314 c0 -11 3 -14 6 -6 3 7 2 16 -1 19 -3 4 -6 -2 -5 -13z"/>
<path d="M290 314 c0 -8 5 -12 10 -9 6 4 8 11 5 16 -9 14 -15 11 -15 -7z"/>
<path d="M331 314 c0 -11 3 -14 6 -6 3 7 2 16 -1 19 -3 4 -6 -2 -5 -13z"/>
<path d="M360 315 c0 -8 5 -15 10 -15 6 0 10 5 10 11 0 5 5 7 10 4 6 -3 10 -1
10 4 0 6 -9 11 -20 11 -11 0 -20 -7 -20 -15z"/>
<path d="M110 278 c0 -4 7 -8 15 -8 8 0 15 4 15 8 0 5 -7 9 -15 9 -8 0 -15 -4
-15 -9z"/>
<path d="M195 280 c3 -5 8 -10 11 -10 2 0 4 5 4 10 0 6 -5 10 -11 10 -5 0 -7
-4 -4 -10z"/>
<path d="M42 253 c2 -9 28 -25 65 -39 51 -19 63 -21 73 -9 13 16 11 17 -60 44
-66 25 -82 26 -78 4z"/>
<path d="M455 249 c-59 -24 -67 -30 -56 -47 10 -17 135 29 139 52 5 21 -21 20
-83 -5z"/>
<path d="M32 209 c2 -15 17 -27 48 -39 85 -33 90 -33 90 -11 0 12 -2 21 -5 21
-2 0 -34 11 -70 25 -66 24 -66 24 -63 4z"/>
<path d="M201 204 c-25 -31 -25 -40 -6 -74 17 -30 19 -21 3 15 -10 22 -8 30
11 55 27 37 20 40 -8 4z"/>
<path d="M350 226 c0 -2 8 -10 18 -17 15 -13 16 -12 3 4 -13 16 -21 21 -21 13z"/>
<path d="M463 199 c-40 -15 -53 -25 -53 -41 0 -15 4 -18 18 -13 9 4 41 16 70
27 29 11 52 26 52 34 0 19 -25 17 -87 -7z"/>
<path d="M687 209 c-32 -18 -14 -69 24 -69 10 0 21 5 25 12 5 8 2 9 -11 5 -22
-9 -46 9 -38 29 4 11 13 14 29 10 28 -7 31 -1 6 13 -11 6 -24 6 -35 0z"/>
<path d="M925 206 c-18 -13 -18 -14 3 -27 25 -16 30 -34 7 -25 -8 3 -15 1 -15
-4 0 -14 37 -12 46 1 4 7 -4 20 -17 31 -16 14 -18 18 -6 14 9 -3 17 -1 17 4 0
17 -17 19 -35 6z"/>
<path d="M1317 209 c-27 -16 -22 -57 9 -65 15 -4 30 -2 37 6 10 10 7 12 -10 7
-25 -6 -49 16 -38 33 4 7 18 9 31 6 28 -7 31 -1 6 13 -11 6 -24 6 -35 0z"/>
<path d="M755 190 c-4 -12 -1 -27 5 -35 27 -33 78 -5 65 35 -9 28 -61 28 -70
0z m53 -12 c-2 -13 -10 -23 -18 -23 -8 0 -16 10 -18 23 -3 17 2 22 18 22 16 0
21 -5 18 -22z"/>
<path d="M841 173 c1 -33 2 -35 8 -13 l7 25 15 -22 c20 -33 29 -28 28 15 -1
32 -2 34 -8 12 l-7 -25 -12 23 c-19 33 -32 27 -31 -15z"/>
<path d="M982 178 c2 -28 7 -33 28 -33 22 0 25 5 27 35 1 33 1 33 -5 6 -10
-41 -32 -46 -32 -7 0 17 -5 31 -11 31 -6 0 -9 -14 -7 -32z"/>
<path d="M1062 178 c-2 -34 1 -38 21 -37 15 1 17 3 5 6 -10 2 -18 17 -21 36
-4 31 -4 31 -5 -5z"/>
<path d="M1108 203 c6 -2 12 -18 12 -34 0 -41 17 -36 22 6 4 32 2 35 -22 34
-14 0 -19 -3 -12 -6z"/>
<path d="M1170 175 c0 -30 3 -35 23 -34 16 1 18 2 5 6 -21 5 -23 19 -5 26 10
4 10 6 0 6 -19 1 -16 19 5 24 13 4 11 5 -5 6 -20 1 -23 -4 -23 -34z"/>
<path d="M1220 175 c0 -19 5 -35 10 -35 6 0 10 10 10 22 l0 22 16 -22 c22 -32
34 -27 34 13 0 19 -4 35 -10 35 -5 0 -10 -10 -10 -22 l0 -22 -16 22 c-22 32
-34 27 -34 -13z"/>
<path d="M1394 175 c6 -19 13 -35 16 -35 3 0 10 16 16 35 10 33 3 50 -10 23
-5 -10 -7 -10 -12 0 -13 27 -20 10 -10 -23z"/>
<path d="M230 176 c0 -4 7 -14 15 -22 8 -9 15 -11 15 -6 0 5 -7 15 -15 22 -8
7 -15 9 -15 6z"/>
<path d="M270 176 c0 -4 7 -14 15 -22 8 -9 15 -11 15 -6 0 5 -7 15 -15 22 -8
7 -15 9 -15 6z"/>
<path d="M310 166 c0 -8 4 -17 9 -20 5 -4 7 3 4 14 -6 23 -13 26 -13 6z"/>
<path d="M50 162 c0 -24 30 -71 63 -96 85 -65 206 -75 305 -25 62 31 94 63
106 109 6 22 5 23 -6 8 -7 -9 -20 -30 -29 -46 -9 -17 -39 -43 -65 -58 -44 -26
-58 -29 -134 -29 -116 0 -178 34 -223 120 -9 17 -16 24 -17 17z"/>
<path d="M381 151 c-1 -8 -9 -24 -18 -35 -16 -20 -16 -20 6 0 13 12 21 28 18
35 -4 11 -6 11 -6 0z"/>
<path d="M118 123 c6 -2 9 -10 6 -15 -4 -7 -2 -8 5 -4 13 9 5 26 -12 25 -9 0
-8 -2 1 -6z"/>
<path d="M136 91 c-3 -5 3 -11 15 -14 16 -4 18 -3 8 9 -13 16 -16 17 -23 5z"/>
<path d="M415 89 c-10 -15 3 -25 16 -12 7 7 7 13 1 17 -6 3 -14 1 -17 -5z"/>
<path d="M770 75 c0 -8 6 -15 13 -15 9 0 8 -3 -2 -9 -9 -6 -3 -8 19 -7 34 2
50 19 30 31 -6 4 -17 1 -25 -5 -14 -11 -19 -7 -16 13 0 4 -3 7 -9 7 -5 0 -10
-7 -10 -15z"/>
<path d="M1030 65 c0 -16 6 -25 15 -25 9 0 15 9 15 25 0 16 -6 25 -15 25 -9 0
-15 -9 -15 -25z"/>
<path d="M1116 83 c-4 -4 -15 -8 -24 -8 -21 0 -23 -27 -2 -32 13 -4 13 -3 0 6
-8 5 -12 13 -8 16 3 3 12 -1 21 -9 13 -14 15 -13 21 6 6 25 3 32 -8 21z"/>
<path d="M1265 81 c-3 -5 -1 -12 5 -16 6 -4 8 -10 6 -14 -3 -4 8 -8 23 -8 22
0 28 4 24 16 -3 11 0 10 11 -3 16 -20 16 -20 16 0 0 20 -34 31 -45 14 -3 -5
-13 -6 -21 -3 -13 5 -13 7 -2 14 9 6 9 9 1 9 -6 0 -14 -4 -18 -9z"/>
<path d="M1367 83 c-4 -3 -7 -16 -6 -27 0 -19 1 -19 10 3 10 24 8 36 -4 24z"/>
<path d="M851 58 c0 -16 2 -18 6 -8 3 8 11 18 17 22 7 5 4 8 -6 8 -12 0 -18
-7 -17 -22z"/>
<path d="M907 59 c4 -13 8 -18 11 -10 2 7 -1 18 -6 23 -8 8 -9 4 -5 -13z"/>
<path d="M935 70 c-8 -13 3 -30 18 -30 7 0 6 4 -3 10 -13 9 -13 11 0 20 9 6
10 10 3 10 -6 0 -15 -4 -18 -10z"/>
<path d="M975 70 c-8 -13 3 -30 18 -29 9 0 9 2 0 6 -7 2 -13 9 -13 14 0 4 7 5
17 2 11 -4 14 -3 9 5 -9 15 -23 15 -31 2z"/>
<path d="M1140 61 c0 -12 6 -21 16 -21 9 0 14 7 12 17 -5 25 -28 28 -28 4z"/>
<path d="M1180 60 c0 -11 2 -20 4 -20 2 0 6 9 9 20 3 11 1 20 -4 20 -5 0 -9
-9 -9 -20z"/>
<path d="M1204 69 c-10 -17 13 -36 27 -22 12 12 4 33 -11 33 -5 0 -12 -5 -16
-11z"/>
<path d="M180 60 c0 -5 5 -10 11 -10 5 0 7 5 4 10 -3 6 -8 10 -11 10 -2 0 -4
-4 -4 -10z"/>
<path d="M355 55 c-23 -10 -25 -13 -10 -13 28 -1 61 13 49 20 -5 3 -22 0 -39
-7z"/>
<path d="M880 50 c0 -5 5 -10 10 -10 6 0 10 5 10 10 0 6 -4 10 -10 10 -5 0
-10 -4 -10 -10z"/>
<path d="M250 39 c0 -5 9 -9 20 -9 11 0 20 4 20 8 0 4 -9 8 -20 9 -11 1 -20
-2 -20 -8z"/>
<path d="M305 40 c3 -5 8 -10 11 -10 2 0 4 5 4 10 0 6 -5 10 -11 10 -5 0 -7
-4 -4 -10z"/>
</g>
</svg>
