<?xml version="1.0" encoding="utf-8"?>
<!-- Generator: Adobe Illustrator 23.0.2, SVG Export Plug-In . SVG Version: 6.00 Build 0)  -->
<svg version="1.1" id="Layer_1" xmlns="http://www.w3.org/2000/svg" xmlns:xlink="http://www.w3.org/1999/xlink" x="0px" y="0px"
	 viewBox="0 0 434.6 434.6" style="enable-background:new 0 0 434.6 434.6;" xml:space="preserve">
<style type="text/css">
	.st0{fill-rule:evenodd;clip-rule:evenodd;fill:#013966;}
	.st1{fill-rule:evenodd;clip-rule:evenodd;fill:#E3000F;}
	.st2{fill:#056CA7;}
</style>
<path class="st0" d="M59.6,227.8c12.7,3.8,30.3,14.6,43.1,20.9c59.6,29.4,31,14.8,51.7,44.3c14.5,20.6,35,34.4,62.2,34.4
	c18.8,0,34.6-7.4,46-16.8c14.4-11.9,16.7-18,26.5-37.9c4.1-8.3,32.1-19.3,40.3-23.4c13.1-6.5,31.2-17.5,43.7-21.4l-0.7-32.1
	c-6.4,0.6-79.1,37.4-84.2,41.9c-0.1,31.3-3.1,43.6-18.3,61.6c-28.3,33.2-79.9,31.9-106.8,0.3c-17.5-20.6-16.3-29.7-18.5-63.5
	c-17-6.5-72.1-39.2-83.4-40.3L59.6,227.8z"/>
<path class="st0" d="M216.5,363.9c-53.4,0-99.8-32.7-121.6-77.5c-17.9-36.6-6.2-39.5-23.6-44.3c7.6,71,70.7,131.9,145.3,131.9
	c74.7,0,137.5-60.8,145.3-131.9c-14,3.9-9.9,7.1-14.2,21.3C329.9,321.4,277.6,363.9,216.5,363.9"/>
<path class="st0" d="M83,154.7l7.2,2.6c2.5-2.4,11-19.8,20.4-31.9c8.2-10.7,15.8-18.1,27.4-26.6c47.7-35.2,109-34.9,157.2,0
	c15.7,11.4,27.8,25.1,37.9,41.5c3.3,5.4,5.4,12.6,9.9,16.9l7.1-2.8c-5.8-24.6-34.1-52.7-49-63.6c-50.8-37.4-117.1-37.8-168-0.7
	C117.6,101.4,89,129.4,83,154.7"/>
<path class="st0" d="M63.6,185.5l82.2,42.1c1.9-2.9,11.6-23.3,13.1-26.7c-16-7.7-78-41-88.6-43.7C68.2,166.5,63.9,174.8,63.6,185.5"
	/>
<path class="st0" d="M274,200.8c3.6,9.1,9.2,14.6,11.5,26.7l84.2-41.6c-0.6-11.2-4.8-19.3-6.9-28.8c-11.7,3-32.8,15.8-44.4,21.5
	C304.1,185.7,288.1,194.8,274,200.8"/>
<path class="st1" d="M203.2,182.9c-30,7-57.1,39.1-48.2,79.8c18.6,84.9,140.5,57.2,123-29.3C271.6,202.1,240.4,174.2,203.2,182.9
	 M203.3,189.9c34.9-9,62.5,16.4,68.6,44.6c8.1,37.6-16.3,65.7-42.6,72.1C156.2,324.5,130.9,208.5,203.3,189.9z"/>
<path class="st2" d="M242.5,246.6h12.7v22.9h-2.8l-1-2.9c-2.5,2.4-5.1,3.6-7.9,3.6c-4.6,0-8.1-1.9-10.6-5.6c-2.5-3.7-3.8-9-3.8-15.9
	c0-6.6,1.3-12,4-16.1c2.7-4.1,6.2-6.2,10.5-6.2c5.7,0,9.2,4,10.4,12l-4.2,2.6v-1l-0.1-2.3c-0.3-5-2-7.5-5-7.5c-2.3,0-3.8,1.3-4.6,4
	c-0.8,2.6-1.2,7.6-1.2,14.8c0,6.7,0.3,11.3,1,13.7c0.7,2.4,1.9,3.6,3.8,3.6c2.2,0,3.3-1.7,3.3-5.1v-10.4h-4.5V246.6z M225.2,239
	l-4.2,1.1c0.2-1.1,0.3-2.1,0.3-2.9c0-4.9-2.2-7.4-6.5-7.4c-3.4,0-5.1,1.7-5.1,5.1c0,2.5,1.9,4.7,5.7,6.5c7.4,3.5,11.1,8.7,11.1,15.5
	c0,4-1,7.2-3.1,9.7c-2.1,2.4-4.8,3.6-8.3,3.6c-7.6,0-11.4-4.1-11.4-12.2c0-0.7,0-1.5,0.1-2.4l4.3-1.3c-0.3,1.8-0.5,3.4-0.5,4.7
	c0,5.3,2.2,7.9,6.6,7.9c3.5,0,5.3-1.9,5.3-5.7c0-2.8-2.1-5.3-6.3-7.4c-6.1-3.1-9.1-7.9-9.1-14.7c0-3.8,1-6.9,3-9.2
	c2-2.3,4.7-3.5,8-3.5C221.8,226.4,225.2,230.6,225.2,239z M199.9,239l-4.2,1.1c0.2-1.1,0.3-2.1,0.3-2.9c0-4.9-2.2-7.4-6.5-7.4
	c-3.4,0-5.1,1.7-5.1,5.1c0,2.5,1.9,4.7,5.7,6.5c7.4,3.5,11.1,8.7,11.1,15.5c0,4-1,7.2-3.1,9.7c-2.1,2.4-4.8,3.6-8.3,3.6
	c-7.6,0-11.4-4.1-11.4-12.2c0-0.7,0-1.5,0.1-2.4l4.3-1.3c-0.3,1.8-0.5,3.4-0.5,4.7c0,5.3,2.2,7.9,6.6,7.9c3.5,0,5.3-1.9,5.3-5.7
	c0-2.8-2.1-5.3-6.3-7.4c-6.1-3.1-9.1-7.9-9.1-14.7c0-3.8,1-6.9,3-9.2c2-2.3,4.7-3.5,8-3.5C196.5,226.4,199.9,230.6,199.9,239z"/>
<path d="M269.1,118.1v13.4c0,0.7,0.1,1.2,0.4,1.6c0.3,0.3,0.8,0.5,1.5,0.5c3.2,0,4.8-2.6,4.8-7.7c0-2.8-0.4-5-1.1-6.6
	c-0.8-1.7-2.2-2.6-4.2-2.6c-0.5,0-0.9,0.1-1.1,0.3C269.2,117.3,269.1,117.6,269.1,118.1 M265.6,136.9h-1.2c-0.7,0-1.5,0-2.3,0.1
	c-0.5,0-0.9,0.1-1.1,0.1c-0.7,0-1.3-0.2-1.8-0.5c-0.5-0.4-0.7-0.8-0.7-1.4c0-0.4,0.1-0.7,0.3-0.9c0.2-0.2,0.5-0.4,1-0.6
	c0.4-0.1,0.7-0.3,0.9-0.6c0.2-0.3,0.3-0.8,0.4-1.5c0.1-0.9,0.2-2.6,0.2-5.1c0.1-2.5,0.1-5,0.1-7.5c0-1-0.1-1.6-0.2-1.9
	c-0.1-0.3-0.5-0.6-1-0.8c-0.8-0.3-1.1-0.8-1.1-1.5c0-0.6,0.3-1,0.8-1.3c0.5-0.3,1.2-0.5,2.2-0.5c0.3,0,0.7,0,1.1,0
	c0.9,0,1.6,0.1,2,0.1c1.6,0,3.3-0.1,5.3-0.2c0.4,0,0.9,0,1.6,0c2.5,0,4.5,0.3,5.9,0.9c2.2,0.9,3.8,2.4,4.9,4.5
	c1,1.9,1.5,4.1,1.5,6.7c0,1.3-0.2,2.6-0.5,3.9c-0.4,1.3-0.8,2.4-1.5,3.4c-1.3,1.9-3,3.3-5.2,4.1c-1.3,0.5-2.7,0.7-4.2,0.7l-2-0.1
	l-1.7-0.1C267.8,137,266.6,136.9,265.6,136.9z M248.1,120.8v8c0,1.8,0.1,2.9,0.4,3.5c0.4,0.6,1.1,0.9,2.3,0.9c1.2,0,2.2-0.3,3-0.9
	c0.7-0.6,1.2-1.5,1.5-2.7c0.2-0.8,0.5-1.1,1.1-1.1c0.6,0,1.1,0.3,1.4,0.8c0.4,0.6,0.5,1.3,0.5,2.1c0,1.4-0.5,3-1.5,4.6
	c-0.3,0.5-0.6,0.9-0.8,1.1c-0.2,0.2-0.5,0.3-0.9,0.3l-3.6-0.5H240c-0.8,0-1.3-0.1-1.6-0.3c-0.4-0.3-0.7-0.7-0.7-1.2
	c0-0.3,0.1-0.6,0.2-0.7c0.1-0.2,0.5-0.4,1.1-0.7c0.6-0.3,1-0.8,1.2-1.3c0.1-0.5,0.2-1.9,0.2-4.1c0-1.1,0-2.6-0.1-4.6
	c-0.1-1.9-0.1-3.4-0.1-4.3c0-0.9-0.1-1.6-0.2-1.9c-0.1-0.3-0.4-0.6-0.9-0.7c-0.7-0.3-1.2-0.5-1.4-0.6c-0.4-0.3-0.5-0.6-0.5-1
	c0-0.8,0.7-1.5,2-1.9c1.1-0.4,2.6-0.6,4.5-0.6c2.1,0,3.7,0.1,4.8,0.3c1.4,0.3,2,0.9,2,1.9c0,0.4-0.1,0.7-0.3,0.9
	c-0.2,0.2-0.6,0.4-1.3,0.7c-0.4,0.2-0.7,0.5-0.8,1C248.1,118.2,248.1,119.3,248.1,120.8z M217.7,113.3h8.4c1.7,0,2.9,0,3.7-0.1
	c0.8-0.1,1.5-0.2,2.3-0.5c0.2-0.1,0.4-0.1,0.5-0.1c0.6,0,1.1,0.3,1.5,1c0.7,1.1,1.1,2.3,1.1,3.8c0,0.8-0.2,1.3-0.4,1.8
	c-0.3,0.4-0.7,0.6-1.2,0.6c-0.4,0-0.6-0.1-0.8-0.2c-0.2-0.2-0.5-0.5-0.8-1c-0.5-0.8-1.1-1.3-1.8-1.6c-0.7-0.3-1.9-0.4-3.6-0.4
	c-1.3,0-2,0.2-2.3,0.7c-0.1,0.3-0.2,0.6-0.3,1c0,0.4,0,1.5,0,3.3c0,0.7,0.1,1.1,0.3,1.3c0.2,0.2,0.8,0.3,1.7,0.3
	c0.5,0,0.8-0.1,1-0.3c0.2-0.2,0.3-0.6,0.4-1.1c0.1-0.7,0.2-1.1,0.2-1.4c0.1-0.2,0.2-0.5,0.4-0.7c0.2-0.2,0.5-0.3,0.8-0.3
	c0.4,0,0.8,0.2,1.1,0.7c0.2,0.3,0.4,0.9,0.6,1.8c0.2,0.8,0.2,1.7,0.2,2.7c0,1.8-0.3,3.3-0.8,4.5c-0.3,0.6-0.7,1-1.3,1
	c-0.4,0-0.6-0.1-0.8-0.3c-0.1-0.2-0.3-0.6-0.3-1.3c-0.2-1.3-0.9-2-2.2-2c-0.5,0-0.8,0.2-1,0.5c-0.2,0.3-0.3,0.9-0.3,1.8
	c0,0.5,0,1.2,0.1,2.1c0.1,0.9,0.1,1.4,0.2,1.7c0.1,0.3,0.4,0.6,0.8,0.7c0.5,0.1,1.2,0.2,2.3,0.2c1.6,0,2.9-0.2,3.7-0.7
	c0.8-0.4,1.5-1.2,2-2.4c0.3-0.7,0.6-1.1,0.8-1.3c0.2-0.2,0.6-0.3,1-0.3c0.5,0,0.8,0.2,1.1,0.6c0.3,0.4,0.4,1,0.4,1.6
	c0,0.7-0.2,1.6-0.5,2.6c-0.3,1-0.8,2-1.2,2.8c-0.3,0.4-0.5,0.7-0.6,0.8c-0.2,0.1-0.4,0.2-0.6,0.2c-0.2,0-0.5,0-0.9-0.1
	c-0.7-0.1-1.6-0.2-2.8-0.3H216c-0.6,0-1-0.1-1.3-0.4c-0.3-0.3-0.5-0.6-0.5-1.1c0-0.3,0.1-0.6,0.2-0.7c0.1-0.1,0.4-0.3,0.9-0.6
	c0.3-0.1,0.6-0.3,0.7-0.6c0.2-0.2,0.3-0.5,0.4-1c0.4-1.7,0.5-4.1,0.5-7.1c0-4.5-0.3-7.3-0.8-8.4c-0.1-0.2-0.2-0.4-0.4-0.5
	c-0.1-0.1-0.4-0.2-0.8-0.3c-0.6-0.2-0.9-0.6-0.9-1.3c0-0.4,0.1-0.7,0.3-1c0.2-0.3,0.5-0.5,0.8-0.6
	C215.7,113.3,216.5,113.3,217.7,113.3z M207.5,112.9c1.2,0,2.4,0.1,3.5,0.3c1.5,0.3,2.2,1,2.2,2c0,0.3-0.1,0.6-0.2,0.8
	c-0.1,0.2-0.5,0.4-1.1,0.7c-0.5,0.3-0.8,0.8-1,1.8c-0.2,0.9-0.2,2.7-0.2,5.3c0,4.4,0.1,7.1,0.3,8.2c0.1,0.3,0.2,0.6,0.4,0.8
	c0.2,0.2,0.4,0.4,0.8,0.6c0.7,0.3,1.1,0.8,1.1,1.5c0,0.9-0.7,1.6-2,1.9c-1.4,0.4-3.2,0.6-5.3,0.6c-3.6,0-5.3-0.7-5.3-2.2
	c0-0.5,0.3-1,1-1.5c0.5-0.3,0.9-0.8,1-1.4c0.2-1.3,0.3-4.1,0.3-8.4c0-3-0.1-4.9-0.4-5.7c-0.2-0.5-0.5-0.9-1.1-1.3
	c-0.4-0.3-0.7-0.6-0.9-0.8c-0.2-0.2-0.2-0.5-0.2-0.8c0-0.5,0.2-0.9,0.7-1.2c0.5-0.3,1.3-0.6,2.4-0.8
	C204.7,113.1,206.1,112.9,207.5,112.9z M180.6,112.9c3.4,0,5.1,0.7,5.1,2.2c0,0.4-0.1,0.7-0.3,1c-0.2,0.3-0.5,0.5-1,0.9
	c-0.4,0.3-0.7,0.6-0.8,1.1c-0.1,0.4-0.2,1.4-0.2,2.7c0,0.8,0.1,1.3,0.4,1.5c0.2,0.1,0.4,0.2,0.7,0.2c0.3,0,1.1,0,2.4,0
	c1.1,0,1.8-0.1,2.1-0.2c0.3-0.1,0.4-0.4,0.4-1c0-1.5-0.1-2.6-0.2-3.2c-0.1-0.6-0.4-1-0.8-1.2c-0.5-0.3-0.8-0.5-1-0.7
	c-0.2-0.2-0.2-0.5-0.2-0.8c0-0.5,0.2-0.9,0.5-1.3c0.3-0.4,0.8-0.7,1.3-0.8c1.1-0.3,2.6-0.4,4.3-0.4c2,0,3.5,0.2,4.4,0.6
	c1,0.4,1.4,1,1.4,1.8c0,0.7-0.3,1.2-1,1.6c-0.4,0.2-0.7,0.4-0.8,0.6c-0.1,0.2-0.2,0.6-0.3,1.1c0,0.3-0.1,1.6-0.2,3.8
	c-0.1,2.3-0.1,4.1-0.1,5.4c0,2.3,0.1,3.8,0.2,4.5c0.1,0.3,0.2,0.6,0.3,0.7c0.1,0.1,0.5,0.3,1,0.7c0.4,0.2,0.6,0.6,0.6,1.1
	c0,0.9-0.5,1.5-1.5,1.9c-1,0.4-2.6,0.6-4.8,0.6c-1.9,0-3.4-0.2-4.3-0.6c-0.8-0.4-1.3-0.9-1.3-1.7c0-0.7,0.3-1.2,1-1.5
	c0.3-0.2,0.5-0.4,0.6-0.6c0.1-0.2,0.2-0.5,0.3-1c0.2-1,0.3-2.2,0.3-3.6c0-0.7-0.1-1.2-0.3-1.3c-0.2-0.2-0.7-0.3-1.6-0.3
	c-2,0-3.2,0.1-3.7,0.3c-0.2,0.1-0.4,0.4-0.4,0.8c-0.1,0.6-0.1,1.2-0.1,2c0,1.3,0.2,2.3,0.5,2.8c0.1,0.2,0.4,0.4,0.8,0.7
	c0.5,0.3,0.7,0.7,0.7,1.4c0,0.8-0.5,1.4-1.6,1.9c-1.1,0.4-2.6,0.6-4.5,0.6c-1.8,0-3.3-0.2-4.4-0.6c-0.5-0.2-0.9-0.4-1.2-0.7
	c-0.3-0.3-0.4-0.7-0.4-1c0-0.4,0.1-0.7,0.3-0.9c0.2-0.2,0.6-0.5,1.1-0.8c0.3-0.2,0.5-0.4,0.6-0.6c0.1-0.3,0.2-0.7,0.3-1.3
	c0.2-1.4,0.2-3.1,0.2-5.3c0-0.4,0-0.9,0-1.4c0-2.8-0.1-4.4-0.1-4.8c0-1-0.1-1.6-0.2-2c-0.2-0.3-0.6-0.7-1.3-1
	c-0.5-0.2-0.7-0.6-0.7-1.1c0-1.2,1.1-2,3.2-2.4C178,113,179.3,112.9,180.6,112.9z M161.8,112.8c1.1,0,2.6,0.3,4.4,0.9
	c0.2,0.1,0.4,0.1,0.5,0.1c0.1,0,0.4-0.1,1-0.3c0.2-0.1,0.4-0.1,0.6-0.1c0.7,0,1.5,0.6,2.3,1.8c0.8,1.2,1.2,2.4,1.2,3.5
	c0,0.6-0.2,1.2-0.5,1.6c-0.4,0.4-0.8,0.7-1.3,0.7c-0.4,0-0.8-0.1-1.1-0.3c-0.3-0.2-0.9-0.7-1.8-1.7c-1.3-1.3-2.6-1.9-3.9-1.9
	c-0.6,0-1.1,0.2-1.5,0.5c-0.4,0.3-0.6,0.7-0.6,1.2c0,1,0.8,1.8,2.5,2.3c2.3,0.7,3.7,1.2,4.3,1.5c2.8,1.4,4.2,3.5,4.2,6.3
	c0,2.5-1,4.5-2.9,6c-1.9,1.6-4.5,2.4-7.6,2.4c-1.4,0-2.9-0.2-4.4-0.5c-1.5-0.4-2.7-0.8-3.4-1.2c-0.5-0.4-1-1.2-1.4-2.4
	c-0.4-1.2-0.6-2.5-0.6-3.6c0-0.6,0.1-1,0.3-1.3c0.3-0.4,0.6-0.6,1-0.6c0.4,0,0.8,0.2,1.2,0.7c0.2,0.3,0.8,1.1,1.6,2.4
	c0.4,0.6,1,1.2,1.9,1.6c0.9,0.4,1.8,0.6,2.7,0.6c0.8,0,1.5-0.2,2-0.5c0.5-0.3,0.8-0.7,0.8-1.2c0-0.5-0.2-0.9-0.6-1.2
	c-0.4-0.3-1-0.6-1.9-0.9c-1.6-0.5-2.8-1-3.6-1.4c-0.8-0.4-1.6-1-2.3-1.6c-1.7-1.6-2.6-3.5-2.6-5.5c0-1,0.2-2,0.7-3
	c0.4-1,1.1-1.8,1.9-2.5C156.9,113.6,159.2,112.8,161.8,112.8z"/>
<path d="M241.7,156.7h1.7c0.3,0,0.5-0.1,0.5-0.3c0-0.2-0.2-0.9-0.6-1.8c-0.2-0.4-0.3-0.7-0.4-0.9c-0.1-0.2-0.2-0.2-0.3-0.2
	c-0.2,0-0.4,0.3-0.5,0.8c0,0.1-0.1,0.3-0.2,0.8c-0.2,0.8-0.4,1.2-0.4,1.4C241.3,156.6,241.4,156.7,241.7,156.7 M247.5,155.3l1.6,4.6
	c0.2,0.4,0.3,0.7,0.4,0.8c0.1,0.1,0.3,0.2,0.5,0.3c0.4,0.1,0.6,0.4,0.6,0.8c0,0.6-0.2,0.9-0.7,1.2c-0.5,0.2-1.3,0.4-2.4,0.4
	c-1.3,0-2.2-0.1-2.8-0.2c-0.3-0.1-0.5-0.2-0.7-0.4c-0.2-0.2-0.2-0.5-0.2-0.8c0-0.2,0-0.4,0.1-0.5c0.1-0.1,0.2-0.2,0.5-0.3
	c0.3-0.1,0.4-0.3,0.4-0.6c0-0.5-0.2-0.8-0.7-0.9c-0.5-0.1-1.2-0.1-2.1-0.1c-0.7,0-1.2,0.1-1.3,0.2c-0.1,0.1-0.2,0.2-0.2,0.4
	c-0.1,0.2-0.1,0.4-0.1,0.6c0,0.2,0,0.3,0.1,0.3c0,0.1,0.2,0.1,0.5,0.2c0.3,0.1,0.5,0.4,0.5,0.8c0,0.9-0.8,1.4-2.4,1.4
	c-0.9,0-1.6-0.1-2-0.3c-0.4-0.2-0.6-0.5-0.6-1c0-0.2,0-0.4,0.1-0.5c0.1-0.1,0.2-0.2,0.5-0.4c0.4-0.2,0.6-0.4,0.8-0.7
	c0.2-0.3,0.5-1,0.8-2l1.2-3.5c0.4-1.3,0.7-2.3,0.9-2.9c0.1-0.6,0.2-1.3,0.2-1.9c0-0.7,0-1.1,0.1-1.4c0.1-0.3,0.2-0.5,0.4-0.7
	c0.4-0.5,0.9-0.8,1.5-0.8c0.6,0,1.1,0.3,1.6,0.9C245.1,148.9,246.2,151.3,247.5,155.3z M235.7,153.3v2.8c0,1.7-0.1,2.9-0.3,3.6
	c-0.4,1.5-1.3,2.5-2.6,3.2c-0.8,0.4-1.7,0.6-2.8,0.6c-1.8,0-3.2-0.6-4.3-1.7c-0.5-0.6-0.9-1.2-1.1-2c-0.2-0.7-0.3-1.8-0.3-3.2
	c0-0.6,0-1.5,0-2.7c0-0.9,0-1.5,0-1.8c0-0.6,0-1.1-0.1-1.3c-0.1-0.2-0.2-0.5-0.5-0.7c-0.4-0.3-0.6-0.7-0.6-1.1
	c0-0.3,0.1-0.6,0.3-0.8c0.2-0.2,0.4-0.4,0.7-0.5c0.6-0.2,1.3-0.3,2.2-0.3c0.9,0,1.7,0.1,2.3,0.3c0.6,0.2,0.9,0.6,0.9,1.2
	c0,0.3-0.1,0.6-0.3,0.8c0,0-0.2,0.2-0.5,0.4c-0.2,0.1-0.3,0.3-0.4,0.6c-0.1,0.3-0.1,0.7-0.1,1.4c0,0.7,0,2.1-0.1,4.3
	c0,1.3,0.2,2.3,0.8,3c0.4,0.6,1,0.8,1.7,0.8c0.5,0,0.9-0.1,1.2-0.3c0.4-0.2,0.6-0.5,0.8-0.9c0.2-0.3,0.3-0.6,0.3-1
	c0.1-0.4,0.1-0.9,0.1-1.5v-2.5c0-1.9-0.1-3-0.1-3.4c-0.1-0.3-0.2-0.6-0.5-0.8c-0.3-0.2-0.5-0.3-0.6-0.5c-0.1-0.1-0.2-0.3-0.2-0.5
	c0-0.5,0.2-0.8,0.6-1c0.4-0.2,1-0.3,1.9-0.3c0.9,0,1.5,0.1,1.9,0.3c0.4,0.2,0.6,0.5,0.6,1c0,0.2,0,0.4-0.1,0.5
	c-0.1,0.1-0.2,0.3-0.5,0.5c-0.3,0.2-0.5,0.5-0.5,0.7C235.8,150.6,235.8,151.6,235.7,153.3z M216.2,147.3c0.7,0,1.4,0.1,2.1,0.4
	c0.3,0.1,0.5,0.2,0.6,0.2c0.1,0,0.3-0.1,0.7-0.3c0.1-0.1,0.2-0.1,0.4-0.1c0.3,0,0.6,0.3,0.9,0.8c0.5,0.8,0.7,1.7,0.7,2.6
	c0,0.7-0.1,1.2-0.4,1.6c-0.2,0.4-0.6,0.6-1,0.6c-0.3,0-0.6-0.2-1-0.5c-0.1-0.1-0.3-0.5-0.7-1.1c-0.6-1-1.3-1.5-2.1-1.5
	c-0.7,0-1.3,0.4-1.7,1.1c-0.4,0.7-0.6,1.7-0.6,2.9c0,1.8,0.3,3.3,1,4.6c0.3,0.5,0.6,0.8,0.9,1.1c0.4,0.3,0.7,0.4,1.1,0.4
	c0.3,0,0.5-0.1,0.7-0.4c0.2-0.3,0.3-0.6,0.3-1c0-0.4-0.1-0.6-0.2-0.8c-0.1-0.1-0.1-0.1-0.2-0.1c-0.1,0-0.2,0-0.5,0
	c-0.2,0-0.4-0.1-0.6-0.3c-0.2-0.2-0.2-0.5-0.2-0.8c0-0.6,0.3-1.1,0.9-1.3c0.7-0.3,1.5-0.4,2.4-0.4c0.9,0,1.7,0.1,2.4,0.4
	c0.6,0.3,0.9,0.7,0.9,1.4c0,0.3-0.1,0.5-0.2,0.7c-0.1,0.2-0.3,0.3-0.5,0.4c-0.2,0-0.3,0.1-0.4,0.2c-0.1,0.1-0.1,0.3-0.2,0.6
	c-0.2,1.2-0.7,2.2-1.4,3c-0.5,0.6-1.1,1-1.7,1.3c-0.7,0.3-1.4,0.5-2.2,0.5c-1.2,0-2.4-0.4-3.4-1.1c-1.1-0.8-1.9-1.9-2.4-3.3
	c-0.5-1.2-0.7-2.4-0.7-3.8c0-1.4,0.3-2.7,0.8-3.9c0.6-1.3,1.4-2.3,2.5-3.1C214,147.6,215,147.3,216.2,147.3z M195.3,147.4
	c1.1,0,1.9,0.1,2.5,0.2c0.3,0.1,0.5,0.2,0.6,0.4c0.2,0.2,0.2,0.4,0.2,0.7c0,0.2-0.1,0.4-0.2,0.6c-0.2,0.3-0.3,0.5-0.3,0.7
	c0,0.3,0.2,0.7,0.5,1.3c0.2,0.4,0.4,0.6,0.6,0.6c0.1,0,0.2-0.1,0.3-0.2c0.1-0.1,0.3-0.3,0.4-0.6c0.2-0.4,0.3-0.7,0.3-0.9
	c0-0.1,0-0.2,0-0.3c0-0.1-0.1-0.2-0.3-0.5c-0.1-0.2-0.2-0.4-0.2-0.7c0-0.9,0.9-1.3,2.6-1.3c1,0,1.6,0.1,1.9,0.2
	c0.2,0.1,0.3,0.2,0.5,0.4c0.1,0.2,0.2,0.4,0.2,0.7c0,0.3-0.1,0.5-0.2,0.7c-0.1,0.2-0.4,0.3-0.7,0.4c-0.3,0.1-0.6,0.2-0.8,0.5
	c-0.2,0.2-0.7,0.8-1.3,1.7c-0.8,1.1-1.2,1.9-1.4,2.5c-0.2,0.5-0.3,1.3-0.3,2.4c0,0.9,0,1.7,0.1,2.4c0,0.5,0.1,0.8,0.2,1
	c0.1,0.2,0.2,0.4,0.5,0.5c0.4,0.3,0.6,0.6,0.6,1.1c0,1-1.1,1.5-3.4,1.5c-0.9,0-1.8-0.1-2.6-0.4c-0.7-0.2-1-0.6-1-1.2
	c0-0.5,0.2-0.8,0.6-1c0.3-0.2,0.5-0.3,0.6-0.6c0.2-0.5,0.3-1.8,0.3-3.7c0-0.6,0-1.1-0.1-1.4c-0.1-0.3-0.3-0.8-0.6-1.3
	c-0.6-1.1-1.3-2.1-2-3c-0.3-0.4-0.6-0.6-0.8-0.8c-0.4-0.2-0.6-0.3-0.7-0.4c-0.2-0.2-0.2-0.4-0.2-0.7c0-0.5,0.3-0.9,0.9-1.1
	C193,147.5,193.9,147.4,195.3,147.4z M183.2,147.6h4.4c0.5,0,0.9-0.1,1.3-0.3c0.2-0.1,0.3-0.1,0.4-0.1c0.5,0,0.9,0.5,1.3,1.4
	c0.4,0.9,0.6,1.8,0.6,2.8c0,0.7-0.1,1.1-0.4,1.4c-0.2,0.2-0.5,0.3-0.8,0.3c-0.3,0-0.6-0.1-0.8-0.3c-0.2-0.2-0.4-0.6-0.7-1.1
	c-0.2-0.5-0.3-0.8-0.4-0.9c-0.1-0.1-0.2-0.2-0.4-0.2c-0.2,0-0.4,0.1-0.4,0.4c-0.1,0.2-0.1,0.6-0.1,1.2v6.4c0,0.7,0.1,1.1,0.2,1.4
	c0.1,0.3,0.3,0.5,0.6,0.7c0.3,0.2,0.5,0.3,0.6,0.5c0.1,0.2,0.2,0.4,0.2,0.6c0,0.5-0.3,0.9-0.8,1.2c-0.5,0.3-1.4,0.4-2.5,0.4
	c-1.4,0-2.4-0.2-3.1-0.5c-0.6-0.3-0.9-0.7-0.9-1.2c0-0.3,0.1-0.6,0.3-0.7c0,0,0.3-0.1,0.6-0.3c0.2-0.1,0.4-0.2,0.4-0.5
	c0.1-0.2,0.1-0.7,0.2-1.3c0-0.6,0.1-1.5,0.1-2.9c0-1.3,0.1-2.5,0.1-3.4c0-0.7,0-1.2-0.1-1.5c-0.1-0.3-0.2-0.4-0.4-0.4
	c-0.2,0-0.4,0.2-0.6,0.6c-0.4,0.8-0.7,1.3-0.9,1.5c-0.3,0.3-0.6,0.4-0.8,0.4c-0.3,0-0.6-0.2-0.7-0.5c-0.2-0.3-0.3-0.7-0.3-1.2
	c0-0.5,0.1-1,0.2-1.5c0.2-0.6,0.4-1.1,0.6-1.6c0.4-0.8,0.8-1.2,1.3-1.2c0.1,0,0.2,0,0.4,0.1c0.3,0.1,0.6,0.1,0.7,0.2
	C182.8,147.6,183,147.6,183.2,147.6z M176.1,147.4c0.6,0,1.2,0.1,1.8,0.2c0.8,0.2,1.1,0.6,1.1,1.3c0,0.2,0,0.4-0.1,0.5
	c-0.1,0.1-0.3,0.3-0.6,0.5c-0.3,0.2-0.4,0.6-0.5,1.1c-0.1,0.6-0.1,1.7-0.1,3.4c0,2.9,0.1,4.7,0.2,5.4c0,0.2,0.1,0.4,0.2,0.5
	c0.1,0.1,0.2,0.2,0.4,0.4c0.4,0.2,0.6,0.6,0.6,1c0,0.6-0.3,1-1,1.2c-0.7,0.2-1.6,0.4-2.7,0.4c-1.8,0-2.7-0.5-2.7-1.4
	c0-0.3,0.2-0.7,0.5-1c0.3-0.2,0.4-0.5,0.5-0.9c0.1-0.9,0.2-2.7,0.2-5.5c0-1.9-0.1-3.2-0.2-3.7c-0.1-0.3-0.3-0.6-0.6-0.8
	c-0.2-0.2-0.4-0.4-0.5-0.5c-0.1-0.1-0.1-0.3-0.1-0.5c0-0.3,0.1-0.6,0.4-0.8c0.2-0.2,0.6-0.4,1.2-0.5
	C174.7,147.5,175.4,147.4,176.1,147.4z M164.1,150.8l-0.1,2.6c0,0,0,0.1,0,0.1c0,0.3,0,0.5,0.1,0.5c0.1,0.1,0.2,0.1,0.4,0.1
	c0.5,0,0.9-0.2,1.1-0.5c0.2-0.3,0.3-0.9,0.3-1.7c0-1.5-0.4-2.2-1.2-2.2c-0.2,0-0.4,0.1-0.5,0.2C164.2,150.2,164.1,150.5,164.1,150.8
	z M164.6,156.6c-0.2,0-0.3,0.1-0.4,0.3c-0.1,0.2-0.1,0.6-0.1,1.2c0,1,0,1.7,0.1,2.2c0,0.2,0.1,0.3,0.1,0.4c0.1,0.1,0.2,0.2,0.3,0.3
	c0.3,0.3,0.5,0.6,0.5,1c0,0.5-0.2,0.9-0.7,1.1c-0.5,0.2-1.3,0.3-2.4,0.3c-2.1,0-3.1-0.5-3.1-1.6c0-0.2,0-0.3,0.1-0.4
	c0.1-0.1,0.2-0.3,0.4-0.5c0.2-0.2,0.4-0.5,0.5-0.8c0.1-0.3,0.1-0.8,0.2-1.5c0-0.5,0-2.5,0-5.8c0-1.1,0-1.8-0.1-2.1
	c-0.1-0.4-0.2-0.7-0.5-0.8c-0.2-0.2-0.4-0.3-0.5-0.4c-0.1-0.1-0.1-0.3-0.1-0.5c0-0.3,0.1-0.5,0.2-0.7c0.2-0.2,0.4-0.4,0.7-0.5
	c0.2-0.1,0.6-0.1,1-0.1c0.2,0,0.7,0,1.4,0.1c0.1,0,0.4,0,0.7,0c0.5,0,1.2,0,2-0.1c0.5-0.1,0.9-0.1,1.1-0.1c1.2,0,2.2,0.4,3,1.2
	c0.7,0.7,1.1,1.7,1.1,2.9c0,0.7-0.1,1.3-0.4,1.9c-0.2,0.6-0.6,1-1,1.3c-0.2,0.1-0.3,0.3-0.3,0.4c0,0.2,0.1,0.4,0.4,0.5
	c0.6,0.3,1,0.7,1.3,1.3c0.3,0.6,0.5,1.5,0.6,2.7c0,0.5,0.1,0.8,0.2,1c0.1,0.1,0.3,0.3,0.7,0.4c0.1,0,0.2,0.1,0.3,0.3
	c0.1,0.2,0.1,0.3,0.1,0.5c0,0.2-0.1,0.5-0.2,0.7c-0.1,0.2-0.3,0.4-0.5,0.6c-0.5,0.3-1.1,0.4-1.9,0.4c-1.1,0-1.9-0.4-2.3-1.2
	c-0.2-0.3-0.4-0.8-0.5-1.3c-0.1-0.5-0.3-1.4-0.5-2.5c-0.1-0.7-0.3-1.2-0.5-1.5C165.3,156.8,165,156.6,164.6,156.6z M157.3,153.3v2.8
	c0,1.7-0.1,2.9-0.3,3.6c-0.4,1.5-1.3,2.5-2.6,3.2c-0.8,0.4-1.7,0.6-2.8,0.6c-1.8,0-3.2-0.6-4.3-1.7c-0.5-0.6-0.9-1.2-1.1-2
	c-0.2-0.7-0.3-1.8-0.3-3.2c0-0.6,0-1.5,0-2.7c0-0.9,0-1.5,0-1.8c0-0.6,0-1.1-0.1-1.3c-0.1-0.2-0.2-0.5-0.5-0.7
	c-0.4-0.3-0.6-0.7-0.6-1.1c0-0.3,0.1-0.6,0.3-0.8c0.2-0.2,0.4-0.4,0.7-0.5c0.6-0.2,1.3-0.3,2.2-0.3c0.9,0,1.7,0.1,2.3,0.3
	c0.6,0.2,0.9,0.6,0.9,1.2c0,0.3-0.1,0.6-0.3,0.8c0,0-0.2,0.2-0.5,0.4c-0.2,0.1-0.3,0.3-0.4,0.6c-0.1,0.3-0.1,0.7-0.1,1.4
	c0,0.7,0,2.1-0.1,4.3c0,1.3,0.2,2.3,0.8,3c0.4,0.6,1,0.8,1.7,0.8c0.5,0,0.9-0.1,1.2-0.3c0.4-0.2,0.6-0.5,0.8-0.9
	c0.2-0.3,0.3-0.6,0.3-1c0.1-0.4,0.1-0.9,0.1-1.5v-2.5c0-1.9-0.1-3-0.1-3.4c-0.1-0.3-0.2-0.6-0.5-0.8c-0.3-0.2-0.5-0.3-0.6-0.5
	c-0.1-0.1-0.2-0.3-0.2-0.5c0-0.5,0.2-0.8,0.6-1c0.4-0.2,1-0.3,1.9-0.3c0.9,0,1.5,0.1,1.9,0.3c0.4,0.2,0.6,0.5,0.6,1
	c0,0.2,0,0.4-0.1,0.5c-0.1,0.1-0.2,0.3-0.5,0.5c-0.3,0.2-0.5,0.5-0.5,0.7C157.3,150.6,157.3,151.6,157.3,153.3z M139,147.3
	c0.8,0,1.6,0.2,2.4,0.7c0.4,0.2,0.6,0.3,0.8,0.3c0.1,0,0.3,0,0.5-0.1c0.1,0,0.2,0,0.2,0c0.3,0,0.5,0.2,0.8,0.5
	c0.5,0.9,0.8,2,0.8,3.3c0,0.9-0.2,1.6-0.7,2c-0.3,0.2-0.5,0.3-0.9,0.3c-0.3,0-0.5-0.1-0.7-0.2c-0.2-0.2-0.4-0.5-0.5-0.9
	c-0.2-0.6-0.4-1-0.6-1.3c-0.1-0.3-0.3-0.5-0.6-0.7c-0.5-0.5-1.1-0.8-1.7-0.8c-0.6,0-1,0.3-1.4,0.8c-0.3,0.6-0.5,1.3-0.5,2.3
	c0,1.3,0.2,2.5,0.7,3.6c0.7,1.4,1.6,2.2,2.8,2.2c0.5,0,0.9-0.1,1.4-0.3c0.4-0.2,0.8-0.5,1-0.8c0.2-0.3,0.4-0.4,0.5-0.4
	c0.2,0,0.4,0.1,0.5,0.4c0.1,0.2,0.2,0.5,0.2,0.9c0,0.4-0.1,0.9-0.3,1.5c-0.2,0.5-0.4,1-0.7,1.3c-0.1,0.1-0.4,0.2-0.7,0.3
	c-0.2,0.1-0.5,0.2-0.9,0.4c-0.8,0.5-1.7,0.8-2.6,0.8c-0.9,0-1.9-0.3-2.8-0.9c-1.1-0.7-1.9-1.7-2.6-3c-0.6-1.3-0.9-2.7-0.9-4.2
	c0-1.7,0.4-3.2,1.2-4.6c0.7-1.2,1.6-2.1,2.6-2.8C137.2,147.5,138.1,147.3,139,147.3z M122.4,147.6h4.3c0.9,0,1.5,0,1.9-0.1
	c0.4-0.1,0.8-0.2,1.2-0.3c0.1,0,0.2-0.1,0.3-0.1c0.3,0,0.6,0.2,0.8,0.6c0.4,0.7,0.6,1.5,0.6,2.5c0,0.5-0.1,0.9-0.2,1.2
	c-0.2,0.3-0.4,0.4-0.6,0.4c-0.2,0-0.3-0.1-0.4-0.2c-0.1-0.1-0.2-0.3-0.4-0.7c-0.2-0.5-0.6-0.8-0.9-1c-0.4-0.2-1-0.3-1.9-0.3
	c-0.6,0-1,0.2-1.2,0.5c-0.1,0.2-0.1,0.4-0.1,0.7c0,0.3,0,1,0,2.1c0,0.5,0.1,0.7,0.2,0.8c0.1,0.1,0.4,0.2,0.9,0.2
	c0.2,0,0.4-0.1,0.5-0.2c0.1-0.1,0.2-0.4,0.2-0.7c0-0.4,0.1-0.7,0.1-0.9c0-0.2,0.1-0.3,0.2-0.4c0.1-0.1,0.3-0.2,0.4-0.2
	c0.2,0,0.4,0.1,0.6,0.4c0.1,0.2,0.2,0.6,0.3,1.2c0.1,0.6,0.1,1.1,0.1,1.7c0,1.2-0.1,2.2-0.4,2.9c-0.2,0.4-0.4,0.6-0.7,0.6
	c-0.2,0-0.3-0.1-0.4-0.2c-0.1-0.1-0.1-0.4-0.2-0.8c-0.1-0.9-0.5-1.3-1.1-1.3c-0.3,0-0.4,0.1-0.5,0.3c-0.1,0.2-0.1,0.6-0.1,1.2
	c0,0.4,0,0.8,0.1,1.4c0,0.6,0.1,0.9,0.1,1.1c0,0.2,0.2,0.4,0.4,0.5c0.2,0.1,0.6,0.1,1.2,0.1c0.8,0,1.5-0.1,1.9-0.4
	c0.4-0.3,0.8-0.8,1-1.6c0.2-0.4,0.3-0.7,0.4-0.9c0.1-0.2,0.3-0.2,0.5-0.2c0.2,0,0.4,0.1,0.6,0.4c0.2,0.3,0.2,0.6,0.2,1
	c0,0.5-0.1,1-0.3,1.7c-0.2,0.7-0.4,1.3-0.6,1.8c-0.1,0.3-0.2,0.4-0.3,0.5c-0.1,0.1-0.2,0.1-0.3,0.1c-0.1,0-0.3,0-0.5-0.1
	c-0.4-0.1-0.8-0.1-1.4-0.2h-7.1c-0.3,0-0.5-0.1-0.7-0.3c-0.2-0.2-0.2-0.4-0.2-0.7c0-0.2,0-0.4,0.1-0.5c0.1-0.1,0.2-0.2,0.5-0.4
	c0.2-0.1,0.3-0.2,0.4-0.4c0.1-0.1,0.1-0.4,0.2-0.6c0.2-1.1,0.3-2.7,0.3-4.6c0-2.9-0.1-4.8-0.4-5.5c-0.1-0.2-0.1-0.3-0.2-0.3
	c-0.1-0.1-0.2-0.1-0.4-0.2c-0.3-0.1-0.5-0.4-0.5-0.9c0-0.2,0.1-0.5,0.2-0.6c0.1-0.2,0.2-0.3,0.4-0.4
	C121.3,147.7,121.7,147.6,122.4,147.6z M114.6,147.3c0.6,0,1.3,0.2,2.3,0.6c0.1,0,0.2,0.1,0.3,0.1c0.1,0,0.2-0.1,0.5-0.2
	c0.1,0,0.2-0.1,0.3-0.1c0.4,0,0.8,0.4,1.2,1.2c0.4,0.8,0.6,1.6,0.6,2.3c0,0.4-0.1,0.8-0.3,1.1c-0.2,0.3-0.4,0.4-0.7,0.4
	c-0.2,0-0.4-0.1-0.5-0.2c-0.1-0.1-0.4-0.5-0.9-1.1c-0.7-0.8-1.3-1.3-2-1.3c-0.3,0-0.6,0.1-0.8,0.3c-0.2,0.2-0.3,0.5-0.3,0.8
	c0,0.7,0.4,1.2,1.3,1.5c1.2,0.5,1.9,0.8,2.2,1c1.4,0.9,2.1,2.3,2.1,4.1c0,1.6-0.5,2.9-1.5,4c-1,1-2.3,1.6-3.9,1.6
	c-0.7,0-1.5-0.1-2.3-0.3c-0.8-0.2-1.4-0.5-1.7-0.8c-0.3-0.2-0.5-0.8-0.7-1.6c-0.2-0.8-0.3-1.6-0.3-2.4c0-0.4,0.1-0.7,0.2-0.8
	c0.1-0.2,0.3-0.4,0.5-0.4c0.2,0,0.4,0.1,0.6,0.4c0.1,0.2,0.4,0.7,0.8,1.6c0.2,0.4,0.5,0.8,1,1.1c0.5,0.3,0.9,0.4,1.4,0.4
	c0.4,0,0.8-0.1,1-0.3c0.3-0.2,0.4-0.5,0.4-0.8c0-0.3-0.1-0.6-0.3-0.8c-0.2-0.2-0.5-0.4-1-0.6c-0.8-0.3-1.4-0.7-1.8-0.9
	c-0.4-0.3-0.8-0.6-1.2-1.1c-0.9-1.1-1.3-2.3-1.3-3.6c0-0.7,0.1-1.3,0.3-1.9c0.2-0.6,0.6-1.2,1-1.6
	C112.1,147.8,113.2,147.3,114.6,147.3z"/>
<path d="M320.7,150.4v3.9c0,0.3,0,0.5,0.1,0.5c0.2,0.1,0.4,0.2,0.6,0.2c0.4,0,0.7-0.1,0.9-0.4c0.4-0.4,0.5-1.1,0.5-2
	c0-1-0.2-1.7-0.6-2.1c-0.3-0.3-0.6-0.4-1-0.4C320.9,149.9,320.7,150.1,320.7,150.4 M316.9,157.8v-6c0-0.8,0-1.3-0.1-1.5
	c-0.1-0.2-0.3-0.4-0.6-0.5c-0.5-0.2-0.8-0.5-0.8-1c0-0.3,0.1-0.6,0.3-0.8c0.2-0.2,0.5-0.3,0.9-0.3c0.1,0,0.5,0,1,0h0.5
	c0.9,0,1.5,0,1.6,0c0.2,0,0.7-0.1,1.7-0.2c0.3,0,0.6-0.1,0.9-0.1c0.9,0,1.7,0.3,2.5,0.8c1.3,0.9,1.9,2.3,1.9,4.2
	c0,1.5-0.4,2.8-1.3,3.7c-0.8,0.9-1.8,1.3-3,1.3c-0.3,0-0.7,0-1.1-0.1c-0.2,0-0.4,0-0.4,0c-0.2,0-0.2,0.1-0.2,0.4v0.1l0.1,1.9
	c0,0.4,0.1,0.6,0.1,0.8c0.1,0.2,0.3,0.4,0.5,0.5c0.4,0.3,0.5,0.6,0.5,0.9c0,0.5-0.3,0.8-0.8,1.1c-0.5,0.3-1.3,0.4-2.3,0.4
	c-2.1,0-3.1-0.5-3.1-1.4c0-0.2,0-0.4,0.1-0.5c0.1-0.1,0.3-0.3,0.6-0.5c0.2-0.1,0.3-0.3,0.4-0.6C316.8,160,316.8,159.2,316.9,157.8z
	 M309.9,152.6v5.2c0,1.2,0.1,1.9,0.2,2.3c0.2,0.4,0.6,0.6,1.2,0.6c0.6,0,1.1-0.2,1.5-0.6c0.4-0.4,0.6-1,0.8-1.8
	c0.1-0.5,0.3-0.7,0.6-0.7c0.3,0,0.5,0.2,0.7,0.5c0.2,0.4,0.3,0.8,0.3,1.4c0,0.9-0.3,1.9-0.8,3c-0.2,0.3-0.3,0.6-0.4,0.7
	c-0.1,0.1-0.3,0.2-0.4,0.2l-1.9-0.3h-5.9c-0.4,0-0.7-0.1-0.8-0.2c-0.2-0.2-0.3-0.4-0.3-0.8c0-0.2,0-0.4,0.1-0.5
	c0.1-0.1,0.3-0.2,0.6-0.4c0.3-0.2,0.5-0.5,0.6-0.9c0.1-0.3,0.1-1.2,0.1-2.7c0-0.7,0-1.7,0-3c0-1.3,0-2.2-0.1-2.8c0-0.6,0-1-0.1-1.2
	c-0.1-0.2-0.2-0.4-0.4-0.5c-0.4-0.2-0.6-0.3-0.7-0.4c-0.2-0.2-0.3-0.4-0.3-0.6c0-0.5,0.3-1,1-1.3c0.6-0.2,1.4-0.4,2.3-0.4
	c1.1,0,1.9,0.1,2.4,0.2c0.7,0.2,1,0.6,1,1.2c0,0.3,0,0.4-0.1,0.6c-0.1,0.1-0.3,0.3-0.7,0.5c-0.2,0.1-0.3,0.3-0.4,0.7
	C310,150.9,309.9,151.5,309.9,152.6z M299,152.6v5.2c0,1.2,0.1,1.9,0.2,2.3c0.2,0.4,0.6,0.6,1.2,0.6c0.6,0,1.1-0.2,1.5-0.6
	c0.4-0.4,0.6-1,0.8-1.8c0.1-0.5,0.3-0.7,0.6-0.7c0.3,0,0.5,0.2,0.7,0.5c0.2,0.4,0.3,0.8,0.3,1.4c0,0.9-0.3,1.9-0.8,3
	c-0.2,0.3-0.3,0.6-0.4,0.7c-0.1,0.1-0.3,0.2-0.4,0.2l-1.9-0.3h-5.9c-0.4,0-0.7-0.1-0.8-0.2c-0.2-0.2-0.3-0.4-0.3-0.8
	c0-0.2,0-0.4,0.1-0.5c0.1-0.1,0.3-0.2,0.6-0.4c0.3-0.2,0.5-0.5,0.6-0.9c0.1-0.3,0.1-1.2,0.1-2.7c0-0.7,0-1.7,0-3
	c0-1.3,0-2.2-0.1-2.8c0-0.6,0-1-0.1-1.2c-0.1-0.2-0.2-0.4-0.4-0.5c-0.4-0.2-0.6-0.3-0.7-0.4c-0.2-0.2-0.3-0.4-0.3-0.6
	c0-0.5,0.3-1,1-1.3c0.6-0.2,1.4-0.4,2.3-0.4c1.1,0,1.9,0.1,2.4,0.2c0.7,0.2,1,0.6,1,1.2c0,0.3,0,0.4-0.1,0.6
	c-0.1,0.1-0.3,0.3-0.7,0.5c-0.2,0.1-0.3,0.3-0.4,0.7C299.1,150.9,299,151.5,299,152.6z M283.3,147.3c0.6,0,1.3,0.2,2.3,0.6
	c0.1,0,0.2,0.1,0.3,0.1c0.1,0,0.2-0.1,0.5-0.2c0.1,0,0.2-0.1,0.3-0.1c0.4,0,0.8,0.4,1.2,1.2c0.4,0.8,0.6,1.6,0.6,2.3
	c0,0.4-0.1,0.8-0.3,1.1c-0.2,0.3-0.4,0.4-0.7,0.4c-0.2,0-0.4-0.1-0.5-0.2c-0.1-0.1-0.4-0.5-0.9-1.1c-0.7-0.8-1.3-1.3-2-1.3
	c-0.3,0-0.6,0.1-0.8,0.3c-0.2,0.2-0.3,0.5-0.3,0.8c0,0.7,0.4,1.2,1.3,1.5c1.2,0.5,1.9,0.8,2.2,1c1.4,0.9,2.1,2.3,2.1,4.1
	c0,1.6-0.5,2.9-1.5,4c-1,1-2.3,1.6-3.9,1.6c-0.7,0-1.5-0.1-2.3-0.3c-0.8-0.2-1.4-0.5-1.7-0.8c-0.3-0.2-0.5-0.8-0.7-1.6
	c-0.2-0.8-0.3-1.6-0.3-2.4c0-0.4,0.1-0.7,0.2-0.8c0.1-0.2,0.3-0.4,0.5-0.4c0.2,0,0.4,0.1,0.6,0.4c0.1,0.2,0.4,0.7,0.8,1.6
	c0.2,0.4,0.5,0.8,1,1.1c0.5,0.3,0.9,0.4,1.4,0.4c0.4,0,0.8-0.1,1-0.3c0.3-0.2,0.4-0.5,0.4-0.8c0-0.3-0.1-0.6-0.3-0.8
	c-0.2-0.2-0.5-0.4-1-0.6c-0.8-0.3-1.4-0.7-1.8-0.9c-0.4-0.3-0.8-0.6-1.2-1.1c-0.9-1.1-1.3-2.3-1.3-3.6c0-0.7,0.1-1.3,0.3-1.9
	c0.2-0.6,0.6-1.2,1-1.6C280.7,147.8,281.9,147.3,283.3,147.3z M269.6,150.8v8.8c0,0.5,0.1,0.8,0.2,1c0.2,0.2,0.4,0.3,0.8,0.3
	c1.6,0,2.5-1.7,2.5-5c0-1.9-0.2-3.3-0.6-4.3c-0.4-1.1-1.1-1.7-2.1-1.7c-0.3,0-0.5,0.1-0.6,0.2C269.7,150.2,269.6,150.5,269.6,150.8z
	 M267.8,163.1h-0.6c-0.4,0-0.8,0-1.2,0.1c-0.3,0-0.5,0-0.6,0c-0.4,0-0.7-0.1-0.9-0.4c-0.2-0.2-0.4-0.5-0.4-0.9
	c0-0.3,0.1-0.5,0.2-0.6c0.1-0.2,0.3-0.3,0.5-0.4c0.2-0.1,0.4-0.2,0.5-0.4c0.1-0.2,0.1-0.5,0.2-1c0-0.6,0.1-1.7,0.1-3.3
	c0-1.6,0.1-3.3,0.1-4.9c0-0.6,0-1.1-0.1-1.3c-0.1-0.2-0.2-0.4-0.5-0.5c-0.4-0.2-0.6-0.5-0.6-1c0-0.4,0.1-0.7,0.4-0.9
	c0.3-0.2,0.6-0.3,1.1-0.3c0.2,0,0.3,0,0.6,0c0.5,0,0.8,0,1,0c0.8,0,1.7,0,2.7-0.1c0.2,0,0.5,0,0.8,0c1.3,0,2.3,0.2,3,0.6
	c1.1,0.6,2,1.6,2.5,3c0.5,1.2,0.8,2.7,0.8,4.4c0,0.9-0.1,1.7-0.3,2.6c-0.2,0.9-0.4,1.6-0.8,2.2c-0.6,1.3-1.5,2.2-2.7,2.7
	c-0.7,0.3-1.4,0.5-2.2,0.5l-1,0l-0.9,0C269,163.1,268.4,163.1,267.8,163.1z M255.9,150.8l-0.1,2.6c0,0,0,0.1,0,0.1
	c0,0.3,0,0.5,0.1,0.5c0.1,0.1,0.2,0.1,0.4,0.1c0.5,0,0.9-0.2,1.1-0.5c0.2-0.3,0.3-0.9,0.3-1.7c0-1.5-0.4-2.2-1.2-2.2
	c-0.2,0-0.4,0.1-0.5,0.2C256,150.2,256,150.5,255.9,150.8z M256.4,156.6c-0.2,0-0.3,0.1-0.4,0.3c-0.1,0.2-0.1,0.6-0.1,1.2
	c0,1,0,1.7,0.1,2.2c0,0.2,0.1,0.3,0.1,0.4c0.1,0.1,0.2,0.2,0.3,0.3c0.3,0.3,0.5,0.6,0.5,1c0,0.5-0.2,0.9-0.7,1.1
	c-0.5,0.2-1.3,0.3-2.4,0.3c-2.1,0-3.1-0.5-3.1-1.6c0-0.2,0-0.3,0.1-0.4c0.1-0.1,0.2-0.3,0.4-0.5c0.2-0.2,0.4-0.5,0.5-0.8
	c0.1-0.3,0.1-0.8,0.2-1.5c0-0.5,0-2.5,0-5.8c0-1.1,0-1.8-0.1-2.1c-0.1-0.4-0.2-0.7-0.5-0.8c-0.2-0.2-0.4-0.3-0.5-0.4
	c-0.1-0.1-0.1-0.3-0.1-0.5c0-0.3,0.1-0.5,0.2-0.7c0.2-0.2,0.4-0.4,0.7-0.5c0.2-0.1,0.6-0.1,1-0.1c0.2,0,0.6,0,1.4,0.1
	c0.1,0,0.4,0,0.7,0c0.5,0,1.2,0,2-0.1c0.5-0.1,0.9-0.1,1.1-0.1c1.2,0,2.2,0.4,3,1.2c0.7,0.7,1.1,1.7,1.1,2.9c0,0.7-0.1,1.3-0.4,1.9
	c-0.2,0.6-0.6,1-1,1.3c-0.2,0.1-0.3,0.3-0.3,0.4c0,0.2,0.1,0.4,0.4,0.5c0.6,0.3,1,0.7,1.3,1.3c0.3,0.6,0.5,1.5,0.6,2.7
	c0,0.5,0.1,0.8,0.2,1c0.1,0.1,0.3,0.3,0.7,0.4c0.1,0,0.2,0.1,0.3,0.3c0.1,0.2,0.1,0.3,0.1,0.5c0,0.2-0.1,0.5-0.2,0.7
	c-0.1,0.2-0.3,0.4-0.5,0.6c-0.5,0.3-1.1,0.4-1.9,0.4c-1.1,0-1.9-0.4-2.3-1.2c-0.2-0.3-0.4-0.8-0.5-1.3c-0.1-0.5-0.3-1.4-0.5-2.5
	c-0.1-0.7-0.3-1.2-0.5-1.5C257.1,156.8,256.8,156.6,256.4,156.6z"/>
<path d="M245.9,338.8c-0.6,0.2-1,0.6-1.3,1.3c-0.2,0.5-0.2,1,0,1.6c0.2,0.9,0.7,1.8,1.3,2.8c0.6,1,1.3,1.9,2.1,2.6
	c0.3,0.3,0.7,0.5,1.1,0.6c0.4,0.1,0.8,0.1,1.1,0c0.6-0.2,1-0.5,1.2-1c0.2-0.5,0.3-1.1,0.1-1.8c-0.2-0.9-0.6-1.9-1.2-2.8
	c-0.6-1-1.2-1.8-1.8-2.4c-0.4-0.4-0.8-0.7-1.3-0.8C246.7,338.8,246.3,338.7,245.9,338.8 M246.1,335.3c1.9-0.5,3.7-0.4,5.4,0.3
	c1.2,0.5,2.2,1.3,3.1,2.3c0.9,1,1.5,2.2,1.8,3.4c0.5,1.8,0.3,3.5-0.5,5.2c-0.7,1.5-1.7,2.7-3.1,3.6c-0.9,0.6-1.8,1-2.8,1.3
	c-1.3,0.4-2.6,0.4-3.9,0.2c-1.6-0.3-2.9-1-4.1-2.1c-1.1-1.1-1.9-2.4-2.3-3.9c-0.5-1.8-0.4-3.5,0.2-5.2c0.6-1.5,1.5-2.7,2.9-3.7
	C243.8,336.1,244.9,335.6,246.1,335.3z M231.9,341.1c-0.5,0.1-0.8,0.3-0.9,0.5c-0.1,0.2-0.1,0.6-0.1,1.2c0,0.6,0,1.1,0.1,1.6
	c0,0.3,0.2,0.5,0.4,0.6c0.2,0.1,0.5,0.1,1,0c0.3,0,0.6-0.1,0.7-0.3c0.1-0.1,0.2-0.4,0.2-0.7c0.1-0.9,0.4-1.3,0.9-1.4
	c0.9-0.1,1.5,0.9,1.8,3.2c0.2,1.4,0.1,2.5-0.2,3.2c-0.2,0.4-0.5,0.7-0.9,0.8c-0.4,0.1-0.7-0.2-0.9-0.8c-0.1-0.4-0.2-0.7-0.3-0.8
	c-0.1-0.2-0.2-0.3-0.4-0.4c-0.3-0.2-0.7-0.3-1.1-0.2c-0.3,0-0.6,0.1-0.7,0.3c-0.1,0.1-0.1,0.4-0.1,0.7c0,0.1,0.1,0.4,0.1,1.1
	c0.2,1.3,0.4,2.1,0.7,2.4c0.1,0.1,0.2,0.2,0.3,0.2c0.1,0,0.4,0,0.8,0c0.2,0,0.4,0.1,0.5,0.2c0.2,0.2,0.3,0.4,0.3,0.6
	c0.1,0.6-0.2,1-0.9,1.3c-1,0.4-2.3,0.7-4.1,1c-1.6,0.2-2.7,0.3-3.3,0.2c-0.3,0-0.5-0.2-0.7-0.4c-0.2-0.2-0.3-0.4-0.4-0.7
	c0-0.3,0-0.6,0.3-0.9c0.1-0.1,0.2-0.2,0.6-0.4c0.4-0.2,0.6-0.7,0.6-1.3c0-1-0.2-3.1-0.7-6.5c-0.2-1.5-0.4-2.4-0.5-2.8
	c-0.2-0.4-0.4-0.7-0.8-0.8c-0.4-0.1-0.7-0.2-0.8-0.3c-0.1-0.1-0.2-0.3-0.2-0.5c0-0.3,0.1-0.6,0.4-0.9c0.3-0.3,0.7-0.4,1.2-0.5
	c0.3,0,0.7-0.1,1.3-0.1c1.3-0.1,2.7-0.2,4.5-0.5c2.8-0.4,4.6-0.7,5.5-1c0.1,0,0.2-0.1,0.3-0.1c0.3,0,0.5,0.1,0.8,0.4
	c0.8,0.8,1.2,1.7,1.4,2.7c0.1,0.5,0,0.9-0.2,1.2c-0.2,0.3-0.5,0.5-0.8,0.6c-0.3,0-0.5,0-0.6-0.1c-0.2-0.1-0.6-0.4-1.2-1
	c-0.4-0.4-0.8-0.6-1.3-0.6C234.1,340.9,233.2,341,231.9,341.1z M211.3,339.9l5.9-0.1c1.2,0,2.1-0.1,2.6-0.1c0.5-0.1,1.1-0.2,1.6-0.3
	c0.2,0,0.3-0.1,0.4-0.1c0.4,0,0.8,0.2,1.1,0.6c0.5,0.7,0.8,1.6,0.8,2.6c0,0.5-0.1,0.9-0.3,1.2c-0.2,0.3-0.5,0.4-0.9,0.4
	c-0.3,0-0.5,0-0.6-0.1c-0.1-0.1-0.3-0.3-0.6-0.7c-0.3-0.5-0.8-0.9-1.3-1c-0.5-0.2-1.4-0.2-2.5-0.2c-0.9,0-1.4,0.2-1.6,0.5
	c-0.1,0.2-0.2,0.4-0.2,0.7c0,0.3,0,1,0,2.2c0,0.5,0.1,0.8,0.2,0.9c0.2,0.1,0.6,0.2,1.2,0.2c0.3,0,0.6-0.1,0.7-0.2
	c0.1-0.1,0.2-0.4,0.3-0.7c0-0.5,0.1-0.8,0.2-0.9c0.1-0.2,0.2-0.3,0.3-0.4c0.2-0.1,0.3-0.2,0.6-0.2c0.3,0,0.6,0.1,0.8,0.4
	c0.2,0.2,0.3,0.6,0.4,1.2c0.1,0.6,0.2,1.2,0.2,1.8c0,1.2-0.2,2.2-0.5,3c-0.2,0.4-0.5,0.7-0.9,0.7c-0.3,0-0.4-0.1-0.5-0.2
	c-0.1-0.1-0.2-0.4-0.2-0.8c-0.1-0.9-0.6-1.3-1.5-1.3c-0.3,0-0.6,0.1-0.7,0.3c-0.1,0.2-0.2,0.6-0.2,1.2c0,0.4,0,0.8,0.1,1.4
	c0.1,0.6,0.1,1,0.2,1.2c0.1,0.2,0.3,0.4,0.6,0.5c0.3,0.1,0.8,0.1,1.6,0.1c1.1,0,2-0.2,2.6-0.5c0.6-0.3,1-0.9,1.4-1.7
	c0.2-0.5,0.4-0.8,0.6-0.9c0.2-0.2,0.4-0.2,0.7-0.2c0.3,0,0.6,0.1,0.8,0.4c0.2,0.3,0.3,0.6,0.3,1.1c0,0.5-0.1,1.1-0.3,1.8
	c-0.2,0.7-0.5,1.3-0.8,1.9c-0.2,0.3-0.3,0.4-0.4,0.5c-0.1,0.1-0.3,0.1-0.4,0.1c-0.1,0-0.4,0-0.6-0.1c-0.5-0.1-1.1-0.1-2-0.1
	l-9.7,0.2c-0.4,0-0.7-0.1-0.9-0.2c-0.2-0.2-0.3-0.4-0.3-0.7c0-0.2,0-0.4,0.1-0.5c0.1-0.1,0.3-0.2,0.6-0.4c0.2-0.1,0.4-0.2,0.5-0.4
	c0.1-0.2,0.2-0.4,0.2-0.7c0.2-1.2,0.3-2.8,0.3-4.8c0-3-0.2-4.9-0.6-5.7c-0.1-0.2-0.2-0.3-0.3-0.3c-0.1-0.1-0.3-0.1-0.6-0.2
	c-0.4-0.1-0.7-0.4-0.7-0.9c0-0.3,0.1-0.5,0.2-0.7c0.1-0.2,0.3-0.3,0.6-0.4C209.8,340,210.4,339.9,211.3,339.9z M200,349l-0.1,1.1
	c-0.1,1-0.1,1.7,0,2c0.1,0.3,0.4,0.5,0.8,0.6c1.2,0.1,1.8-0.5,2-1.9c0.2-1.7-0.4-2.7-1.7-2.8c-0.3,0-0.6,0-0.7,0.1
	C200.2,348.4,200.1,348.7,200,349z M200.8,342.3l-0.3,2.4c0,0.4,0,0.7,0.1,0.8c0.1,0.2,0.2,0.3,0.5,0.3c0.6,0.1,1-0.1,1.3-0.4
	c0.3-0.3,0.5-0.9,0.6-1.6c0.1-0.7,0-1.3-0.2-1.7c-0.2-0.4-0.6-0.7-1.1-0.7c-0.3,0-0.5,0-0.6,0.2C200.9,341.7,200.8,342,200.8,342.3z
	 M198.6,354.9l-1.5-0.2c-1.1-0.1-1.9-0.2-2.4-0.2c-0.4,0-0.8,0-1,0c-0.5-0.1-0.8-0.2-1.1-0.5c-0.2-0.3-0.3-0.6-0.3-0.9
	c0-0.2,0.1-0.4,0.2-0.5c0.1-0.1,0.4-0.3,0.8-0.5c0.2-0.1,0.4-0.4,0.5-0.7c0.1-0.3,0.3-1,0.5-2.1c0.3-1.7,0.6-3.7,0.9-6.2
	c0.1-0.9,0.1-1.5,0-1.8c-0.1-0.3-0.3-0.6-0.7-0.8c-0.5-0.3-0.7-0.6-0.6-1c0-0.3,0.2-0.6,0.5-0.8c0.3-0.2,0.7-0.2,1.2-0.2
	c0.3,0,0.6,0.1,1,0.1c0.7,0.1,1.4,0.2,2.2,0.3c0.6,0.1,1.7,0.2,3.4,0.3c0.5,0,1,0.1,1.4,0.1c1,0.1,1.8,0.3,2.4,0.5
	c0.6,0.2,1.1,0.6,1.5,1c0.7,0.7,1,1.6,0.8,2.7c-0.1,0.5-0.2,1-0.5,1.5c-0.3,0.5-0.6,0.9-1,1.1c-0.3,0.2-0.4,0.4-0.5,0.6
	c0,0.2,0.1,0.4,0.4,0.5c0.6,0.3,1.1,0.8,1.6,1.5c0.5,0.7,0.6,1.5,0.5,2.5c-0.1,1.1-0.6,2.1-1.5,2.9c-1.2,1.1-2.8,1.5-4.9,1.3
	c-0.3,0-1-0.1-2.1-0.3C199.4,355,198.8,354.9,198.6,354.9z M177.6,333.7l5.7,1.6c1.1,0.3,2,0.5,2.5,0.6c0.5,0.1,1.1,0.1,1.6,0.1
	c0.2,0,0.3,0,0.4,0c0.4,0.1,0.7,0.4,0.8,0.9c0.3,0.8,0.3,1.7,0,2.7c-0.1,0.5-0.3,0.8-0.6,1.1c-0.3,0.2-0.6,0.3-0.9,0.2
	c-0.2-0.1-0.4-0.2-0.5-0.3c-0.1-0.1-0.2-0.4-0.4-0.8c-0.2-0.6-0.5-1.1-0.9-1.4c-0.5-0.3-1.2-0.6-2.4-1c-0.8-0.2-1.4-0.2-1.7,0
	c-0.1,0.1-0.3,0.3-0.4,0.6c-0.1,0.3-0.3,1-0.6,2.1c-0.1,0.4-0.1,0.8,0,0.9c0.1,0.2,0.5,0.3,1.1,0.5c0.3,0.1,0.6,0.1,0.7,0
	c0.2-0.1,0.3-0.3,0.5-0.6c0.2-0.4,0.3-0.7,0.4-0.8c0.1-0.1,0.2-0.3,0.4-0.3c0.2-0.1,0.4-0.1,0.6,0c0.3,0.1,0.5,0.3,0.7,0.7
	c0.1,0.3,0.1,0.7,0.1,1.3c0,0.6-0.2,1.2-0.3,1.8c-0.3,1.2-0.8,2.1-1.4,2.8c-0.3,0.4-0.7,0.5-1.1,0.4c-0.3-0.1-0.4-0.2-0.5-0.3
	c-0.1-0.2-0.1-0.5,0-0.9c0.1-0.9-0.2-1.4-1.1-1.7c-0.3-0.1-0.6-0.1-0.8,0.1c-0.2,0.2-0.4,0.6-0.5,1.1c-0.1,0.4-0.2,0.8-0.3,1.4
	c-0.1,0.6-0.2,1-0.2,1.2c0,0.2,0.1,0.5,0.4,0.6c0.3,0.2,0.8,0.4,1.5,0.6c1.1,0.3,2,0.4,2.6,0.3c0.6-0.1,1.2-0.5,1.8-1.2
	c0.3-0.4,0.6-0.6,0.8-0.7c0.2-0.1,0.4-0.1,0.7,0c0.3,0.1,0.5,0.3,0.7,0.6c0.1,0.3,0.1,0.7,0,1.1c-0.1,0.5-0.4,1-0.8,1.6
	c-0.4,0.6-0.9,1.1-1.3,1.6c-0.2,0.2-0.4,0.3-0.6,0.4c-0.1,0.1-0.3,0.1-0.5,0c-0.1,0-0.3-0.1-0.6-0.2c-0.4-0.2-1.1-0.5-1.8-0.7
	l-9.4-2.7c-0.4-0.1-0.6-0.3-0.8-0.5c-0.2-0.2-0.2-0.5-0.1-0.8c0.1-0.2,0.2-0.4,0.3-0.4c0.1-0.1,0.4-0.1,0.7-0.2
	c0.2,0,0.4-0.1,0.6-0.2c0.1-0.1,0.3-0.3,0.4-0.6c0.6-1.1,1.1-2.6,1.6-4.5c0.8-2.9,1.1-4.8,1-5.6c0-0.2-0.1-0.3-0.2-0.4
	c-0.1-0.1-0.2-0.2-0.5-0.4c-0.4-0.3-0.5-0.6-0.4-1c0.1-0.2,0.2-0.4,0.4-0.6c0.2-0.1,0.4-0.2,0.7-0.2
	C176.2,333.3,176.8,333.4,177.6,333.7z M169.3,329.6c1,0.5,1.9,1.2,2.6,2.1c0.3,0.4,0.6,0.7,0.8,0.8c0.1,0.1,0.3,0.1,0.6,0.2
	c0.1,0,0.2,0.1,0.3,0.1c0.4,0.2,0.6,0.5,0.7,1c0.3,1.1,0.1,2.3-0.4,3.5c-0.4,0.9-1,1.3-1.7,1.4c-0.4,0.1-0.8,0-1.2-0.2
	c-0.3-0.2-0.6-0.4-0.7-0.6c-0.1-0.3-0.2-0.6-0.3-1.1c0-0.7-0.1-1.2-0.2-1.6c-0.1-0.3-0.2-0.7-0.4-1c-0.4-0.8-1-1.4-1.8-1.7
	c-0.7-0.3-1.4-0.4-2.1,0c-0.7,0.3-1.2,0.9-1.6,1.8c-0.6,1.2-0.8,2.5-0.7,3.8c0.2,1.7,1,3,2.5,3.7c0.6,0.3,1.2,0.4,1.8,0.5
	c0.6,0.1,1.2,0,1.6-0.1c0.4-0.1,0.7-0.1,0.8-0.1c0.2,0.1,0.4,0.3,0.5,0.6c0.1,0.3,0,0.6-0.1,1c-0.2,0.4-0.5,0.8-1,1.2
	c-0.5,0.4-1,0.6-1.4,0.8c-0.2,0-0.5,0-1-0.1c-0.3-0.1-0.7-0.1-1.2-0.1c-1.3,0-2.4-0.3-3.5-0.8c-1.2-0.6-2.2-1.4-3.1-2.5
	c-1-1.3-1.6-2.7-1.8-4.4c-0.2-1.6,0.1-3.1,0.7-4.4c0.7-1.6,1.9-2.8,3.4-3.6c1.4-0.7,2.8-1,4.4-1C167.1,328.8,168.2,329,169.3,329.6z
	 M159.3,324.2c0.7,0.5,1.4,1,1.9,1.6c0.8,0.8,0.9,1.4,0.6,2c-0.1,0.2-0.3,0.3-0.4,0.3c-0.1,0-0.5,0-0.9,0c-0.4,0-0.8,0.2-1.2,0.6
	c-0.4,0.4-1.1,1.4-2.1,2.9c-1.6,2.5-2.5,4.1-2.8,4.8c-0.1,0.2-0.1,0.4-0.1,0.6c0,0.2,0.1,0.4,0.3,0.7c0.3,0.5,0.3,0.9,0.1,1.3
	c-0.3,0.5-1,0.6-1.9,0.3c-1-0.4-2.1-0.9-3.3-1.8c-2.1-1.4-2.9-2.5-2.3-3.3c0.2-0.3,0.6-0.4,1.1-0.4c0.4,0,0.8-0.1,1.1-0.4
	c0.6-0.7,1.7-2.2,3.2-4.6c1.1-1.7,1.7-2.8,1.8-3.4c0.1-0.3,0-0.7-0.2-1.2c-0.2-0.3-0.2-0.6-0.2-0.8c0-0.2,0-0.4,0.2-0.5
	c0.2-0.3,0.5-0.4,0.8-0.4c0.4,0,0.9,0.2,1.7,0.5C157.6,323.2,158.5,323.7,159.3,324.2z M150,322.6l-11,4.6c-0.7,0.3-1.2,0.4-1.6,0.4
	c-0.4,0-0.7-0.2-1.1-0.5c-0.3-0.2-0.5-0.5-0.6-0.8c-0.1-0.2-0.1-0.5-0.1-0.7c0-0.2,0.1-0.5,0.2-1l3.3-11.1c0.2-0.6,0.3-1.1,0.3-1.4
	c0-0.3-0.2-0.6-0.4-0.9c-0.3-0.4-0.3-0.7,0-1.1c0.4-0.5,1-0.5,1.8-0.2c0.8,0.3,1.8,0.9,2.9,2c1.2,1,2,1.9,2.3,2.6
	c0.4,0.7,0.4,1.2,0.1,1.6c-0.2,0.2-0.6,0.3-1,0.3c-0.4,0-0.6,0-0.7,0.1c-0.1,0.1-0.2,0.4-0.3,0.7l-1.1,3.4c-0.2,0.5-0.1,0.8,0.1,1
	c0.2,0.2,0.4,0.2,0.8,0.2c0.3-0.1,0.8-0.3,1.6-0.6c1.3-0.6,2.1-1,2.3-1.1c0.2-0.1,0.4-0.2,0.5-0.3c0.2-0.2,0.2-0.5,0-0.9
	c-0.2-0.4-0.1-0.8,0.1-1c0.6-0.7,1.8-0.2,3.7,1.4c0.9,0.8,1.5,1.5,1.7,2c0.2,0.5,0.2,0.9-0.1,1.3c-0.4,0.4-0.8,0.5-1.4,0.1
	c-0.4-0.3-0.7-0.4-0.8-0.4C151.2,322.2,150.7,322.3,150,322.6z M133.7,305.3l-2.2,1.5c0,0,0,0-0.1,0.1c-0.2,0.2-0.3,0.3-0.4,0.4
	c0,0.1,0,0.3,0.2,0.5c0.4,0.5,0.8,0.8,1.3,0.9c0.5,0,1-0.2,1.6-0.7c1.2-0.9,1.4-1.8,0.8-2.6c-0.2-0.2-0.4-0.4-0.5-0.4
	C134.2,305,134,305,133.7,305.3z M129.4,309.4c-0.2-0.2-0.4-0.3-0.5-0.3c-0.2,0-0.5,0.3-1.1,0.7c-0.8,0.6-1.3,1.1-1.7,1.6
	c-0.1,0.1-0.2,0.2-0.2,0.4c0,0.1,0,0.3,0,0.5c0.1,0.5-0.1,0.9-0.4,1.2c-0.4,0.3-0.9,0.3-1.4-0.1c-0.6-0.4-1.3-1.2-2.2-2.4
	c-1.7-2.3-2.1-3.8-1.3-4.4c0.1-0.1,0.3-0.2,0.4-0.2c0.1,0,0.4,0.1,0.7,0.2c0.4,0.1,0.7,0.2,1,0.1c0.3-0.1,0.8-0.3,1.4-0.8
	c0.5-0.3,2-1.5,4.7-3.6c0.8-0.7,1.4-1.1,1.6-1.5c0.2-0.3,0.3-0.7,0.2-1.1c-0.1-0.4-0.1-0.6-0.1-0.8c0-0.2,0.1-0.3,0.3-0.5
	c0.2-0.2,0.5-0.2,0.8-0.2c0.3,0,0.6,0.2,0.9,0.5c0.3,0.2,0.6,0.6,0.9,1c0.2,0.2,0.5,0.7,1.1,1.6c0.1,0.2,0.3,0.4,0.5,0.7
	c0.4,0.6,1,1.3,1.8,2.2c0.5,0.6,0.8,1,1,1.2c1,1.3,1.5,2.7,1.5,4c0,1.2-0.5,2.2-1.5,3c-0.6,0.4-1.2,0.7-1.8,0.8
	c-0.7,0.1-1.3,0-1.9-0.3c-0.2-0.1-0.4-0.1-0.6,0c-0.2,0.1-0.2,0.4-0.1,0.8c0.3,0.8,0.3,1.6,0,2.2c-0.2,0.7-0.8,1.4-1.7,2.3
	c-0.4,0.4-0.6,0.7-0.6,0.8c0,0.2,0,0.5,0.2,1c0.1,0.1,0.1,0.3,0,0.5c-0.1,0.2-0.2,0.3-0.3,0.4c-0.2,0.1-0.4,0.2-0.7,0.2
	c-0.3,0-0.6-0.1-0.9-0.2c-0.6-0.3-1.3-1-1.9-1.9c-0.9-1.2-1.2-2.3-1-3.3c0.1-0.5,0.3-0.9,0.6-1.4c0.3-0.5,0.8-1.2,1.6-2.1
	c0.5-0.6,0.7-1.1,0.8-1.5C129.8,310.2,129.7,309.8,129.4,309.4z M127.1,285.8l2.4,5.5c0.5,1.1,0.9,1.9,1.1,2.4
	c0.3,0.5,0.6,0.9,0.9,1.4c0.1,0.1,0.2,0.2,0.2,0.3c0.2,0.4,0.1,0.8-0.1,1.3c-0.4,0.8-1.1,1.4-2,1.8c-0.5,0.2-0.9,0.3-1.2,0.2
	c-0.3-0.1-0.6-0.3-0.7-0.6c-0.1-0.2-0.1-0.4-0.1-0.6c0-0.2,0.2-0.5,0.4-0.8c0.3-0.5,0.5-1.1,0.4-1.6c-0.1-0.6-0.3-1.4-0.8-2.5
	c-0.4-0.8-0.7-1.2-1.1-1.3c-0.2,0-0.4,0-0.7,0.1c-0.3,0.1-0.9,0.4-2,0.9c-0.4,0.2-0.6,0.4-0.7,0.6c0,0.2,0.1,0.6,0.3,1.2
	c0.1,0.3,0.3,0.5,0.5,0.6c0.2,0.1,0.4,0.1,0.8-0.1c0.4-0.1,0.7-0.2,0.9-0.2c0.2,0,0.3,0,0.5,0.1c0.2,0.1,0.3,0.2,0.4,0.4
	c0.1,0.3,0.1,0.6-0.1,0.9c-0.1,0.2-0.4,0.5-0.9,0.9c-0.5,0.3-1,0.6-1.5,0.9c-1.1,0.5-2.1,0.8-2.9,0.7c-0.5,0-0.8-0.2-1-0.6
	c-0.1-0.2-0.1-0.4,0-0.6c0.1-0.1,0.3-0.3,0.7-0.6c0.7-0.5,0.9-1.1,0.6-2c-0.1-0.3-0.3-0.5-0.6-0.5c-0.3,0-0.6,0.1-1.2,0.3
	c-0.3,0.2-0.7,0.4-1.2,0.7c-0.5,0.3-0.8,0.5-1,0.6c-0.2,0.2-0.2,0.4-0.2,0.7c0,0.3,0.2,0.8,0.5,1.5c0.5,1.1,1,1.8,1.5,2.2
	c0.5,0.4,1.2,0.6,2,0.6c0.5,0,0.8,0.1,1.1,0.2c0.2,0.1,0.4,0.3,0.5,0.5c0.1,0.3,0.1,0.6-0.1,0.9c-0.2,0.3-0.4,0.6-0.8,0.7
	c-0.4,0.2-1,0.3-1.7,0.4c-0.7,0.1-1.4,0.1-2,0c-0.3-0.1-0.5-0.1-0.7-0.2c-0.1-0.1-0.2-0.2-0.3-0.3c-0.1-0.1-0.1-0.3-0.2-0.6
	c-0.1-0.5-0.3-1.1-0.7-1.9l-4-9c-0.2-0.4-0.2-0.7-0.1-1c0.1-0.3,0.2-0.5,0.5-0.6c0.2-0.1,0.4-0.1,0.5-0.1c0.1,0,0.3,0.2,0.6,0.4
	c0.2,0.2,0.4,0.3,0.5,0.3c0.2,0,0.4,0,0.7,0c1.2-0.3,2.6-0.8,4.4-1.6c2.7-1.3,4.3-2.2,4.9-2.9c0.1-0.1,0.2-0.3,0.2-0.4
	c0-0.1,0-0.3,0-0.6c-0.1-0.5,0.1-0.8,0.5-1c0.2-0.1,0.5-0.1,0.7-0.1c0.2,0.1,0.4,0.2,0.6,0.4C126.5,284.5,126.8,285,127.1,285.8z
	 M125.5,276.5c0.1,0.8,0.1,1.9,0,3.2c0,0.2,0,0.3,0,0.4c0,0.1,0.1,0.3,0.3,0.6c0.1,0.1,0.1,0.2,0.1,0.4c0.1,0.5-0.2,1.1-0.9,1.9
	c-0.7,0.7-1.4,1.2-2.1,1.3c-0.4,0.1-0.8,0-1.1-0.2c-0.3-0.2-0.5-0.5-0.6-0.9c-0.1-0.3,0-0.6,0-0.8c0.1-0.2,0.4-0.7,0.8-1.5
	c0.7-1.1,0.9-2.1,0.8-3c-0.1-0.4-0.2-0.8-0.5-1c-0.3-0.2-0.5-0.3-0.9-0.2c-0.7,0.1-1,0.8-1.1,2.1c-0.2,1.7-0.3,2.8-0.4,3.2
	c-0.6,2.1-1.8,3.4-3.6,3.7c-1.6,0.3-3-0.1-4.3-1.2c-1.3-1.2-2.1-2.8-2.6-5c-0.2-1-0.3-2-0.2-3.2c0-1.1,0.1-2,0.4-2.5
	c0.2-0.4,0.6-0.8,1.4-1.3c0.8-0.5,1.5-0.8,2.3-0.9c0.4-0.1,0.7,0,0.9,0.1c0.3,0.1,0.4,0.4,0.5,0.7c0.1,0.3,0,0.6-0.3,0.9
	c-0.1,0.2-0.6,0.7-1.4,1.5c-0.4,0.4-0.6,0.9-0.8,1.6c-0.2,0.7-0.2,1.3-0.1,2c0.1,0.6,0.3,1,0.6,1.3c0.3,0.3,0.6,0.4,0.9,0.4
	c0.3-0.1,0.5-0.3,0.7-0.6c0.2-0.3,0.3-0.8,0.4-1.5c0.1-1.2,0.3-2.1,0.5-2.7c0.2-0.6,0.4-1.2,0.8-1.8c0.8-1.4,1.9-2.3,3.2-2.5
	c0.7-0.1,1.3-0.1,2,0.1c0.7,0.2,1.3,0.5,1.9,1C124.3,273.2,125.1,274.6,125.5,276.5z"/>
<path d="M311,276.1c-0.1,0.5-0.1,0.9,0.2,1.1c0.2,0.1,0.5,0.3,1.1,0.5c0.5,0.2,1,0.4,1.5,0.5c0.3,0.1,0.5,0,0.6-0.1
	c0.1-0.2,0.3-0.5,0.4-1c0.1-0.3,0.1-0.6,0-0.8c-0.1-0.2-0.3-0.4-0.5-0.5c-0.8-0.4-1.1-0.8-1-1.4c0.2-0.9,1.4-1.1,3.6-0.6
	c1.4,0.3,2.3,0.8,2.9,1.4c0.3,0.3,0.5,0.7,0.4,1.1c-0.1,0.4-0.5,0.6-1.1,0.6c-0.4-0.1-0.7-0.1-0.8-0.1c-0.2,0-0.3,0.1-0.5,0.2
	c-0.3,0.2-0.5,0.5-0.6,1c-0.1,0.3-0.1,0.6,0,0.7c0.1,0.1,0.3,0.3,0.6,0.3c0.1,0,0.4,0.1,1,0.3c1.3,0.3,2.1,0.4,2.5,0.2
	c0.1-0.1,0.2-0.1,0.3-0.2c0.1-0.1,0.2-0.3,0.3-0.7c0.1-0.2,0.2-0.3,0.4-0.4c0.2-0.1,0.4-0.1,0.6-0.1c0.6,0.1,0.9,0.6,0.9,1.3
	c0,1-0.2,2.5-0.7,4.2c-0.4,1.6-0.7,2.6-1,3.2c-0.1,0.2-0.3,0.4-0.6,0.5c-0.3,0.1-0.5,0.1-0.8,0.1c-0.3-0.1-0.6-0.3-0.7-0.6
	c0-0.1-0.1-0.3-0.1-0.7c-0.1-0.5-0.4-0.8-1-1c-0.9-0.4-2.9-0.9-6.2-1.8c-1.4-0.3-2.3-0.5-2.8-0.5c-0.4,0-0.8,0.2-1,0.5
	c-0.3,0.3-0.5,0.5-0.6,0.6c-0.1,0.1-0.3,0.1-0.6,0c-0.3-0.1-0.6-0.3-0.7-0.7c-0.1-0.4-0.2-0.8,0-1.3c0.1-0.3,0.2-0.7,0.4-1.3
	c0.4-1.2,0.8-2.7,1.2-4.4c0.7-2.8,1-4.6,1.1-5.6c0-0.1,0-0.2,0-0.3c0.1-0.3,0.3-0.5,0.6-0.7c1-0.5,2-0.6,3-0.3
	c0.5,0.1,0.8,0.3,1,0.6c0.2,0.3,0.3,0.6,0.2,1c-0.1,0.3-0.2,0.5-0.3,0.6c-0.1,0.1-0.6,0.4-1.3,0.8c-0.5,0.2-0.8,0.6-1.1,1
	C311.6,274,311.3,274.8,311,276.1 M309.2,290.3l4.8,2.2c1.1,0.5,1.8,0.7,2.2,0.6c0.5-0.1,0.9-0.5,1.2-1.2c0.4-0.8,0.5-1.5,0.3-2.2
	c-0.1-0.6-0.6-1.2-1.2-1.7c-0.4-0.3-0.5-0.7-0.4-1c0.2-0.4,0.5-0.6,0.9-0.7c0.4-0.1,0.9,0,1.5,0.2c0.9,0.4,1.7,1.1,2.4,2.2
	c0.2,0.3,0.4,0.6,0.4,0.8c0,0.2,0,0.4-0.1,0.6l-1.3,2.3l-3.2,7.5c-0.2,0.5-0.4,0.8-0.6,1c-0.3,0.2-0.6,0.3-0.9,0.1
	c-0.2-0.1-0.3-0.2-0.4-0.3c-0.1-0.1-0.1-0.4-0.1-0.9c0-0.5-0.2-0.9-0.5-1.1c-0.2-0.2-1.1-0.6-2.4-1.3c-0.6-0.3-1.6-0.7-2.8-1.2
	c-1.2-0.5-2.1-0.9-2.7-1.1c-0.6-0.2-1-0.4-1.2-0.4c-0.2,0-0.5,0.1-0.7,0.4c-0.4,0.4-0.6,0.6-0.8,0.7c-0.3,0.2-0.5,0.2-0.7,0.1
	c-0.5-0.2-0.7-0.8-0.6-1.8c0.1-0.8,0.4-1.9,0.9-3.1c0.6-1.4,1.1-2.4,1.6-3c0.6-0.8,1.1-1.1,1.7-0.8c0.2,0.1,0.4,0.2,0.4,0.4
	c0.1,0.2,0.1,0.5,0.1,1.1c0,0.3,0.1,0.6,0.4,0.8C307.7,289.6,308.3,289.9,309.2,290.3z M294.1,305.8l3.5-4.9c0.7-1,1.2-1.7,1.5-2.2
	c0.3-0.5,0.5-1,0.7-1.5c0.1-0.2,0.1-0.3,0.2-0.4c0.2-0.3,0.6-0.5,1.1-0.5c0.9,0,1.7,0.3,2.5,0.9c0.4,0.3,0.7,0.6,0.8,1
	c0.1,0.3,0,0.7-0.2,1c-0.2,0.2-0.3,0.3-0.5,0.4c-0.2,0.1-0.5,0.1-0.9,0.1c-0.6,0-1.1,0.1-1.6,0.4c-0.4,0.3-1,1-1.7,1.9
	c-0.5,0.7-0.7,1.3-0.6,1.6c0.1,0.2,0.2,0.4,0.4,0.6c0.2,0.2,0.8,0.6,1.7,1.3c0.4,0.3,0.6,0.4,0.8,0.3c0.2-0.1,0.5-0.4,0.8-0.9
	c0.2-0.3,0.3-0.5,0.3-0.7c0-0.2-0.2-0.4-0.4-0.7c-0.3-0.3-0.5-0.5-0.6-0.7c-0.1-0.1-0.2-0.3-0.2-0.5c0-0.2,0-0.4,0.2-0.6
	c0.2-0.3,0.5-0.4,0.8-0.4c0.3,0,0.7,0.1,1.2,0.4c0.5,0.2,1,0.5,1.5,0.9c1,0.7,1.7,1.5,2.1,2.2c0.2,0.4,0.2,0.8,0,1.2
	c-0.2,0.2-0.3,0.3-0.5,0.3c-0.2,0-0.4-0.1-0.8-0.3c-0.8-0.4-1.4-0.3-1.9,0.5c-0.2,0.3-0.3,0.5-0.2,0.8c0.1,0.2,0.4,0.5,0.9,0.9
	c0.3,0.2,0.7,0.5,1.2,0.8c0.5,0.3,0.8,0.5,1,0.5c0.2,0.1,0.5,0,0.7-0.2c0.3-0.2,0.6-0.6,1-1.2c0.7-0.9,1.1-1.7,1.2-2.4
	c0.1-0.7,0-1.4-0.5-2.1c-0.2-0.4-0.4-0.8-0.4-1c0-0.2,0-0.5,0.2-0.7c0.2-0.3,0.5-0.4,0.8-0.4c0.4,0,0.7,0.1,1,0.4
	c0.4,0.3,0.8,0.7,1.2,1.3c0.4,0.6,0.7,1.2,1,1.8c0.1,0.3,0.2,0.5,0.2,0.7c0,0.1-0.1,0.3-0.2,0.4c-0.1,0.1-0.2,0.3-0.4,0.5
	c-0.4,0.3-0.8,0.9-1.3,1.5l-5.7,8c-0.2,0.3-0.5,0.5-0.7,0.6c-0.3,0.1-0.5,0-0.8-0.2c-0.2-0.1-0.3-0.3-0.3-0.4c0-0.1,0-0.4,0.1-0.7
	c0.1-0.2,0.1-0.5,0-0.6c-0.1-0.2-0.2-0.4-0.4-0.6c-0.8-0.9-2-1.9-3.5-3.1c-2.4-1.8-4-2.7-4.8-2.9c-0.2,0-0.3,0-0.4,0
	c-0.1,0-0.3,0.2-0.5,0.3c-0.4,0.3-0.7,0.3-1.1,0c-0.2-0.1-0.3-0.3-0.4-0.6c-0.1-0.2-0.1-0.5,0-0.7
	C293.2,307,293.6,306.5,294.1,305.8z M288.1,311.7c0.6-0.6,1.4-1.2,2.6-1.8c0.1-0.1,0.2-0.1,0.3-0.2c0.1-0.1,0.2-0.3,0.3-0.6
	c0.1-0.1,0.1-0.2,0.2-0.3c0.4-0.4,1-0.5,2-0.3c1,0.2,1.7,0.5,2.3,1c0.3,0.3,0.5,0.7,0.5,1.1c0,0.4-0.1,0.7-0.3,1
	c-0.2,0.2-0.4,0.4-0.7,0.4c-0.2,0-0.8,0.1-1.7,0.1c-1.3,0.1-2.2,0.4-2.8,1c-0.3,0.3-0.5,0.6-0.5,1c0,0.3,0.1,0.6,0.3,0.9
	c0.5,0.5,1.2,0.4,2.3-0.2c1.4-0.8,2.4-1.3,2.9-1.5c2-0.7,3.7-0.4,5,0.9c1.2,1.2,1.6,2.6,1.4,4.3c-0.2,1.7-1.1,3.4-2.6,5
	c-0.7,0.7-1.5,1.4-2.4,2c-0.9,0.6-1.7,1-2.2,1.1c-0.4,0.1-1,0-1.8-0.4c-0.8-0.4-1.5-0.8-2-1.4c-0.3-0.3-0.4-0.5-0.4-0.8
	c0-0.3,0-0.6,0.2-0.8c0.2-0.2,0.5-0.3,0.9-0.3c0.2,0,0.9,0.1,2,0.3c0.5,0.1,1.1,0,1.7-0.2c0.6-0.2,1.2-0.6,1.6-1.1
	c0.4-0.4,0.6-0.8,0.7-1.2c0.1-0.4,0-0.7-0.2-1c-0.2-0.2-0.5-0.3-0.9-0.3c-0.3,0-0.8,0.2-1.4,0.5c-1,0.5-1.8,0.9-2.4,1.1
	c-0.6,0.2-1.2,0.3-1.9,0.4c-1.6,0.1-2.9-0.3-3.9-1.3c-0.5-0.5-0.8-1.1-1.1-1.8c-0.2-0.7-0.3-1.4-0.2-2.2
	C286,314.6,286.8,313,288.1,311.7z M269.6,325.9l5-3.2c1-0.7,1.7-1.1,2.2-1.5c0.4-0.3,0.8-0.7,1.2-1.1c0.1-0.1,0.2-0.2,0.3-0.3
	c0.3-0.2,0.7-0.2,1.2,0c0.8,0.3,1.5,0.9,2,1.8c0.3,0.4,0.4,0.8,0.4,1.2c0,0.4-0.2,0.6-0.5,0.8c-0.2,0.1-0.4,0.2-0.6,0.2
	c-0.2,0-0.5-0.1-0.8-0.3c-0.6-0.3-1.1-0.3-1.6-0.2c-0.5,0.1-1.3,0.5-2.3,1.2c-0.7,0.5-1.1,0.9-1.1,1.3c0,0.2,0.1,0.4,0.2,0.7
	c0.1,0.3,0.5,0.9,1.1,1.9c0.2,0.4,0.5,0.6,0.6,0.6c0.2,0,0.6-0.2,1.1-0.5c0.3-0.2,0.4-0.4,0.5-0.6c0-0.2,0-0.5-0.1-0.8
	c-0.2-0.4-0.3-0.7-0.3-0.9c0-0.2,0-0.4,0-0.5c0.1-0.2,0.2-0.4,0.4-0.5c0.3-0.2,0.6-0.2,0.9-0.1c0.3,0.1,0.6,0.4,1,0.8
	c0.4,0.4,0.8,0.9,1.1,1.4c0.6,1,1,2,1.1,2.9c0,0.5-0.1,0.8-0.5,1.1c-0.2,0.1-0.4,0.2-0.6,0.1c-0.2-0.1-0.4-0.3-0.6-0.6
	c-0.6-0.7-1.2-0.8-2-0.3c-0.3,0.2-0.4,0.4-0.4,0.7c0,0.3,0.2,0.6,0.5,1.1c0.2,0.3,0.5,0.7,0.8,1.2c0.3,0.5,0.6,0.8,0.7,0.9
	c0.2,0.2,0.4,0.2,0.7,0.1c0.3-0.1,0.8-0.3,1.4-0.8c1-0.6,1.6-1.2,2-1.8c0.3-0.6,0.5-1.3,0.4-2.2c-0.1-0.5,0-0.9,0-1.1
	c0.1-0.2,0.2-0.4,0.4-0.6c0.3-0.2,0.6-0.2,0.9-0.1c0.3,0.1,0.6,0.4,0.8,0.7c0.2,0.4,0.5,1,0.6,1.7c0.2,0.7,0.2,1.4,0.2,2.1
	c0,0.3,0,0.5-0.1,0.7c-0.1,0.1-0.2,0.3-0.3,0.4c-0.1,0.1-0.3,0.2-0.6,0.3c-0.5,0.2-1,0.5-1.8,0.9L277,340c-0.3,0.2-0.6,0.3-0.9,0.3
	c-0.3,0-0.5-0.2-0.7-0.5c-0.1-0.2-0.2-0.4-0.1-0.5c0-0.1,0.1-0.4,0.3-0.7c0.1-0.2,0.2-0.4,0.2-0.6c0-0.2,0-0.4-0.1-0.7
	c-0.4-1.1-1.1-2.5-2.2-4.2c-1.6-2.5-2.7-4.1-3.4-4.5c-0.1-0.1-0.3-0.1-0.4-0.1c-0.1,0-0.3,0-0.6,0.1c-0.4,0.1-0.8,0-1-0.4
	c-0.1-0.2-0.2-0.4-0.2-0.7c0-0.2,0.1-0.5,0.3-0.6C268.4,326.7,268.9,326.4,269.6,325.9z M260.4,334.1l1,2.5c0,0,0,0.1,0,0.1
	c0.1,0.3,0.2,0.4,0.3,0.5c0.1,0,0.3,0,0.5-0.1c0.6-0.3,1-0.7,1.1-1.1c0.1-0.5,0-1-0.3-1.7c-0.6-1.4-1.4-1.8-2.4-1.4
	c-0.3,0.1-0.4,0.3-0.5,0.5C260.3,333.5,260.3,333.8,260.4,334.1z M263.5,339.3c-0.3,0.1-0.4,0.3-0.4,0.5c0,0.2,0.1,0.6,0.4,1.2
	c0.4,0.9,0.8,1.6,1.1,2c0.1,0.1,0.2,0.2,0.3,0.3c0.1,0,0.3,0.1,0.5,0.1c0.5,0,0.9,0.3,1,0.6c0.2,0.5,0.1,0.9-0.4,1.4
	c-0.5,0.5-1.4,1-2.8,1.7c-2.6,1.2-4.1,1.3-4.5,0.3c-0.1-0.2-0.1-0.3-0.1-0.5c0-0.1,0.1-0.4,0.3-0.7c0.2-0.4,0.3-0.7,0.3-1
	c0-0.3-0.2-0.8-0.4-1.6c-0.2-0.5-1-2.3-2.4-5.4c-0.4-1-0.8-1.6-1.1-1.9c-0.3-0.3-0.6-0.5-1-0.5c-0.4,0-0.6,0-0.8-0.1
	c-0.2-0.1-0.3-0.2-0.4-0.4c-0.1-0.3-0.1-0.5,0-0.8c0.1-0.3,0.3-0.6,0.6-0.8c0.3-0.2,0.7-0.4,1.2-0.7c0.2-0.1,0.8-0.3,1.8-0.7
	c0.2-0.1,0.5-0.2,0.8-0.4c0.6-0.3,1.4-0.7,2.4-1.3c0.6-0.4,1.1-0.6,1.4-0.7c1.5-0.7,2.9-0.9,4.2-0.6c1.2,0.2,2,1,2.5,2.1
	c0.3,0.6,0.4,1.3,0.3,2c-0.1,0.7-0.3,1.3-0.7,1.8c-0.2,0.2-0.2,0.4-0.2,0.6c0.1,0.2,0.3,0.3,0.7,0.3c0.9-0.1,1.6,0.1,2.2,0.5
	c0.6,0.4,1.2,1.1,1.9,2.2c0.3,0.4,0.5,0.7,0.7,0.8c0.2,0.1,0.5,0.1,1,0c0.2,0,0.3,0,0.5,0.1c0.2,0.1,0.3,0.2,0.3,0.4
	c0.1,0.2,0.1,0.5,0.1,0.8c-0.1,0.3-0.2,0.6-0.4,0.8c-0.5,0.6-1.2,1.1-2.2,1.5c-1.4,0.6-2.5,0.7-3.4,0.3c-0.4-0.2-0.8-0.5-1.2-0.9
	c-0.4-0.4-1-1.1-1.7-2c-0.5-0.6-0.9-1-1.3-1.1C264.4,339,263.9,339.1,263.5,339.3z"/>
</svg>
